B612-BoldItalic.ufo
<glyph name="quotedbl" format="1">
  <advance width="800"/>
  <unicode hex="0022"/>
  <outline>
    <contour>
      <point x="937" y="1500" type="line"/>
      <point x="914" y="1367" type="line"/>
      <point x="911" y="1349"/>
      <point x="901" y="1300"/>
      <point x="889" y="1246"/>
      <point x="875" y="1191"/>
      <point x="868" y="1168" type="qcurve"/>
      <point x="818" y="1013" type="line"/>
      <point x="638" y="1013" type="line"/>
      <point x="642" y="1168" type="line"/>
      <point x="643" y="1191"/>
      <point x="649" y="1246"/>
      <point x="656" y="1300"/>
      <point x="665" y="1349"/>
      <point x="668" y="1367" type="qcurve"/>
      <point x="691" y="1500" type="line"/>
    </contour>
    <contour>
      <point x="637" y="1500" type="line"/>
      <point x="614" y="1367" type="line"/>
      <point x="611" y="1349"/>
      <point x="601" y="1300"/>
      <point x="589" y="1246"/>
      <point x="575" y="1191"/>
      <point x="568" y="1168" type="qcurve"/>
      <point x="518" y="1013" type="line"/>
      <point x="338" y="1013" type="line"/>
      <point x="342" y="1168" type="line"/>
      <point x="343" y="1191"/>
      <point x="349" y="1246"/>
      <point x="356" y="1300"/>
      <point x="365" y="1349"/>
      <point x="368" y="1367" type="qcurve"/>
      <point x="391" y="1500" type="line"/>
    </contour>
  </outline>
</glyph>
<glyph name="numbersign" format="1">
  <advance width="1700"/>
  <unicode hex="0023"/>
  <outline>
    <contour>
      <point x="1496" y="902" type="line"/>
      <point x="1484" y="861"/>
      <point x="1462" y="789"/>
      <point x="1439" y="717"/>
      <point x="1416" y="641"/>
      <point x="1404" y="598" type="qcurve"/>
      <point x="1709" y="598" type="line"/>
      <point x="1644" y="380" type="line"/>
      <point x="1341" y="380" type="line"/>
      <point x="1227" y="6" type="line"/>
      <point x="883" y="-27" type="line"/>
      <point x="1007" y="380" type="line"/>
      <point x="729" y="380" type="line"/>
      <point x="618" y="6" type="line"/>
      <point x="275" y="-27" type="line"/>
      <point x="397" y="380" type="line"/>
      <point x="122" y="380" type="line"/>
      <point x="160" y="598" type="line"/>
      <point x="460" y="598" type="line"/>
      <point x="552" y="902" type="line"/>
      <point x="210" y="902" type="line"/>
      <point x="275" y="1120" type="line"/>
      <point x="617" y="1120" type="line"/>
      <point x="658" y="1258" type="line"/>
      <point x="700" y="1494" type="line"/>
      <point x="1072" y="1526" type="line"/>
      <point x="949" y="1120" type="line"/>
      <point x="1228" y="1120" type="line"/>
      <point x="1339" y="1494" type="line"/>
      <point x="1682" y="1527" type="line"/>
      <point x="1561" y="1120" type="line"/>
      <point x="1797" y="1120" type="line"/>
      <point x="1759" y="902" type="line"/>
    </contour>
    <contour>
      <point x="1163" y="902" type="line"/>
      <point x="886" y="902" type="line"/>
      <point x="874" y="861"/>
      <point x="852" y="789"/>
      <point x="829" y="717"/>
      <point x="806" y="641"/>
      <point x="794" y="598" type="qcurve"/>
      <point x="1071" y="598" type="line"/>
    </contour>
  </outline>
</glyph>
<glyph name="parenleft" format="1">
  <advance width="900"/>
  <unicode hex="0028"/>
  <outline>
    <contour>
      <point x="361" y="1158" type="line"/>
      <point x="374" y="1228"/>
      <point x="402" y="1352"/>
      <point x="442" y="1454"/>
      <point x="499" y="1533"/>
      <point x="580" y="1584"/>
      <point x="691" y="1606"/>
      <point x="766" y="1600" type="qcurve"/>
      <point x="791" y="1598"/>
      <point x="837" y="1591"/>
      <point x="885" y="1578"/>
      <point x="937" y="1559"/>
      <point x="968" y="1545" type="qcurve"/>
      <point x="858" y="1431" type="line"/>
      <point x="836" y="1435"/>
      <point x="784" y="1434"/>
      <point x="734" y="1395"/>
      <point x="693" y="1308"/>
      <point x="681" y="1227" type="qcurve"/>
      <point x="456" y="-46" type="line"/>
      <point x="444" y="-104"/>
      <point x="456" y="-177"/>
      <point x="488" y="-221"/>
      <point x="533" y="-241"/>
      <point x="554" y="-245" type="qcurve"/>
      <point x="631" y="-365" type="line"/>
      <point x="608" y="-378"/>
      <point x="552" y="-400"/>
      <point x="492" y="-415"/>
      <point x="434" y="-422"/>
      <point x="409" y="-420" type="qcurve"/>
      <point x="338" y="-415"/>
      <point x="241" y="-370"/>
      <point x="180" y="-301"/>
      <point x="151" y="-212"/>
      <point x="144" y="-113"/>
      <point x="154" y="-10"/>
      <point x="163" y="38" type="qcurve"/>
    </contour>
  </outline>
</glyph>
<glyph name="plus" format="1">
  <advance width="1200"/>
  <unicode hex="002B"/>
  <outline>
    <contour>
      <point x="207" y="700" type="line"/>
      <point x="567" y="700" type="line"/>
      <point x="643" y="1130" type="line"/>
      <point x="853" y="1130" type="line"/>
      <point x="777" y="700" type="line"/>
      <point x="1137" y="700" type="line"/>
      <point x="1102" y="500" type="line"/>
      <point x="742" y="500" type="line"/>
      <point x="671" y="100" type="line"/>
      <point x="461" y="100" type="line"/>
      <point x="532" y="500" type="line"/>
      <point x="172" y="500" type="line"/>
    </contour>
  </outline>
</glyph>
<glyph name="comma" format="1">
  <advance width="500"/>
  <unicode hex="002C"/>
  <outline>
    <contour>
      <point x="84" y="169" type="qcurve"/>
      <point x="85" y="208"/>
      <point x="122" y="281"/>
      <point x="184" y="334"/>
      <point x="265" y="362"/>
      <point x="311" y="356" type="qcurve"/>
      <point x="355" y="351"/>
      <point x="416" y="314"/>
      <point x="454" y="258"/>
      <point x="470" y="187"/>
      <point x="469" y="148" type="qcurve"/>
      <point x="467" y="98"/>
      <point x="417" y="-29"/>
      <point x="335" y="-156"/>
      <point x="228" y="-269"/>
      <point x="168" y="-303" type="qcurve"/>
      <point x="26" y="-238" type="line"/>
      <point x="92" y="-180"/>
      <point x="152" y="-67"/>
      <point x="164" y="0" type="qcurve"/>
      <point x="128" y="26"/>
      <point x="82" y="103"/>
    </contour>
  </outline>
</glyph>
<glyph name="period" format="1">
  <advance width="500"/>
  <unicode hex="002E"/>
  <outline>
    <contour>
      <point x="95" y="171" type="qcurve"/>
      <point x="98" y="209"/>
      <point x="138" y="280"/>
      <point x="199" y="332"/>
      <point x="274" y="360"/>
      <point x="311" y="356" type="qcurve"/>
      <point x="387" y="348"/>
      <point x="469" y="248"/>
      <point x="464" y="171" type="qcurve"/>
      <point x="462" y="132"/>
      <point x="422" y="62"/>
      <point x="361" y="9"/>
      <point x="285" y="-20"/>
      <point x="248" y="-17" type="qcurve"/>
      <point x="209" y="-14"/>
      <point x="149" y="17"/>
      <point x="110" y="68"/>
      <point x="92" y="134"/>
    </contour>
  </outline>
</glyph>
<glyph name="one" format="1">
  <advance width="1300"/>
  <unicode hex="0031"/>
  <outline>
    <contour>
      <point x="700" y="880" type="line"/>
      <point x="838" y="1243" type="line"/>
      <point x="563" y="972" type="line"/>
      <point x="466" y="898" type="line"/>
      <point x="343" y="1083" type="line"/>
      <point x="901" y="1525" type="line"/>
      <point x="1124" y="1492" type="line"/>
      <point x="896" y="200" type="line"/>
      <point x="1139" y="200" type="line"/>
      <point x="1104" y="0" type="line"/>
      <point x="302" y="0" type="line"/>
      <point x="337" y="200" type="line"/>
      <point x="580" y="200" type="line"/>
    </contour>
  </outline>
</glyph>
<glyph name="two" format="1">
  <advance width="1300"/>
  <unicode hex="0032"/>
  <outline>
    <contour>
      <point x="124" y="0" type="line"/>
      <point x="157" y="190" type="line"/>
      <point x="197" y="239"/>
      <point x="297" y="350"/>
      <point x="406" y="463"/>
      <point x="516" y="573"/>
      <point x="617" y="670"/>
      <point x="702" y="750"/>
      <point x="731" y="775" type="qcurve"/>
      <point x="787" y="825"/>
      <point x="865" y="900"/>
      <point x="917" y="956"/>
      <point x="948" y="998"/>
      <point x="966" y="1036"/>
      <point x="978" y="1074"/>
      <point x="985" y="1097" type="qcurve"/>
      <point x="994" y="1128"/>
      <point x="983" y="1196"/>
      <point x="946" y="1255"/>
      <point x="884" y="1296"/>
      <point x="844" y="1300" type="qcurve"/>
      <point x="763" y="1307"/>
      <point x="612" y="1198"/>
      <point x="554" y="1096" type="qcurve"/>
      <point x="336" y="1183" type="line"/>
      <point x="416" y="1357"/>
      <point x="702" y="1527"/>
      <point x="897" y="1517" type="qcurve"/>
      <point x="1010" y="1511"/>
      <point x="1167" y="1431"/>
      <point x="1262" y="1309"/>
      <point x="1296" y="1160"/>
      <point x="1287" y="1086" type="qcurve"/>
      <point x="1278" y="1015"/>
      <point x="1201" y="885"/>
      <point x="1099" y="768"/>
      <point x="987" y="664"/>
      <point x="943" y="621" type="qcurve"/>
      <point x="882" y="561"/>
      <point x="753" y="437"/>
      <point x="636" y="325"/>
      <point x="541" y="231"/>
      <point x="514" y="200" type="qcurve"/>
      <point x="1156" y="200" type="line"/>
      <point x="1121" y="0" type="line"/>
    </contour>
  </outline>
</glyph>
<glyph name="three" format="1">
  <advance width="1300"/>
  <unicode hex="0033"/>
  <outline>
    <contour>
      <point x="440" y="938" type="line"/>
      <point x="473" y="959"/>
      <point x="566" y="1016"/>
      <point x="672" y="1084"/>
      <point x="783" y="1161"/>
      <point x="887" y="1244"/>
      <point x="975" y="1330"/>
      <point x="1005" y="1374" type="qcurve"/>
      <point x="732" y="1300" type="line"/>
      <point x="401" y="1300" type="line"/>
      <point x="457" y="1500" type="line"/>
      <point x="1286" y="1500" type="line"/>
      <point x="1255" y="1327" type="line"/>
      <point x="1234" y="1297"/>
      <point x="1177" y="1225"/>
      <point x="1108" y="1152"/>
      <point x="1030" y="1081"/>
      <point x="989" y="1052" type="qcurve"/>
      <point x="818" y="969" type="line"/>
      <point x="908" y="973"/>
      <point x="1061" y="920"/>
      <point x="1170" y="816"/>
      <point x="1225" y="666"/>
      <point x="1216" y="573" type="qcurve"/>
      <point x="1206" y="470"/>
      <point x="1114" y="305"/>
      <point x="964" y="178"/>
      <point x="767" y="87"/>
      <point x="539" y="28"/>
      <point x="289" y="0"/>
      <point x="162" y="0" type="qcurve"/>
      <point x="197" y="200" type="line"/>
      <point x="283" y="200"/>
      <point x="451" y="223"/>
      <point x="603" y="267"/>
      <point x="733" y="330"/>
      <point x="829" y="411"/>
      <point x="885" y="508"/>
      <point x="886" y="563" type="qcurve"/>
      <point x="887" y="621"/>
      <point x="844" y="701"/>
      <point x="769" y="749"/>
      <point x="670" y="770"/>
      <point x="616" y="770" type="qcurve"/>
      <point x="601" y="770"/>
      <point x="543" y="767"/>
      <point x="480" y="764"/>
      <point x="423" y="761"/>
      <point x="409" y="760" type="qcurve"/>
    </contour>
  </outline>
</glyph>
<glyph name="four" format="1">
  <advance width="1300"/>
  <unicode hex="0034"/>
  <outline>
    <contour>
      <point x="1190" y="300" type="line"/>
      <point x="1012" y="300" type="line"/>
      <point x="960" y="0" type="line"/>
      <point x="652" y="0" type="line"/>
      <point x="704" y="300" type="line"/>
      <point x="114" y="300" type="line"/>
      <point x="150" y="500" type="line"/>
      <point x="825" y="1525" type="line"/>
      <point x="1125" y="1492" type="line"/>
      <point x="669" y="763" type="line"/>
      <point x="449" y="500" type="line"/>
      <point x="740" y="500" type="line"/>
      <point x="792" y="799" type="line"/>
      <point x="1096" y="772" type="line"/>
      <point x="1048" y="500" type="line"/>
      <point x="1247" y="500" type="line"/>
    </contour>
  </outline>
</glyph>
<glyph name="five" format="1">
  <advance width="1300"/>
  <unicode hex="0035"/>
  <outline>
    <contour>
      <point x="675" y="1046" type="line"/>
      <point x="700" y="1052"/>
      <point x="758" y="1059"/>
      <point x="793" y="1059" type="qcurve"/>
      <point x="891" y="1059"/>
      <point x="1052" y="997"/>
      <point x="1161" y="883"/>
      <point x="1212" y="723"/>
      <point x="1200" y="626" type="qcurve"/>
      <point x="1187" y="524"/>
      <point x="1089" y="352"/>
      <point x="936" y="213"/>
      <point x="736" y="107"/>
      <point x="510" y="36"/>
      <point x="264" y="0"/>
      <point x="142" y="0" type="qcurve"/>
      <point x="181" y="226" type="line"/>
      <point x="257" y="227"/>
      <point x="418" y="253"/>
      <point x="571" y="299"/>
      <point x="708" y="364"/>
      <point x="812" y="447"/>
      <point x="875" y="548"/>
      <point x="879" y="606" type="qcurve"/>
      <point x="882" y="649"/>
      <point x="866" y="723"/>
      <point x="828" y="780"/>
      <point x="767" y="816"/>
      <point x="725" y="822" type="qcurve"/>
      <point x="687" y="827"/>
      <point x="627" y="820"/>
      <point x="575" y="801"/>
      <point x="527" y="774"/>
      <point x="500" y="759" type="qcurve"/>
      <point x="288" y="759" type="line"/>
      <point x="419" y="1500" type="line"/>
      <point x="1272" y="1500" type="line"/>
      <point x="1237" y="1300" type="line"/>
      <point x="720" y="1300" type="line"/>
    </contour>
  </outline>
</glyph>
<glyph name="six" format="1">
  <advance width="1300"/>
  <unicode hex="0036"/>
  <outline>
    <contour>
      <point x="1218" y="1280" type="line"/>
      <point x="1207" y="1287"/>
      <point x="1179" y="1295"/>
      <point x="1151" y="1298"/>
      <point x="1123" y="1299"/>
      <point x="1111" y="1300" type="qcurve"/>
      <point x="1055" y="1304"/>
      <point x="941" y="1275"/>
      <point x="832" y="1214"/>
      <point x="731" y="1123"/>
      <point x="646" y="1010"/>
      <point x="581" y="875"/>
      <point x="562" y="800" type="qcurve"/>
      <point x="752" y="945" type="line"/>
      <point x="780" y="950"/>
      <point x="832" y="954"/>
      <point x="855" y="956" type="qcurve"/>
      <point x="943" y="962"/>
      <point x="1100" y="915"/>
      <point x="1216" y="808"/>
      <point x="1277" y="640"/>
      <point x="1268" y="525" type="qcurve"/>
      <point x="1259" y="414"/>
      <point x="1152" y="212"/>
      <point x="980" y="61"/>
      <point x="758" y="-24"/>
      <point x="634" y="-17" type="qcurve"/>
      <point x="526" y="-11"/>
      <point x="376" y="57"/>
      <point x="277" y="162"/>
      <point x="222" y="295"/>
      <point x="199" y="434"/>
      <point x="201" y="570"/>
      <point x="207" y="627" type="qcurve"/>
      <point x="220" y="746"/>
      <point x="305" y="975"/>
      <point x="437" y="1177"/>
      <point x="611" y="1346"/>
      <point x="813" y="1465"/>
      <point x="1039" y="1524"/>
      <point x="1158" y="1517" type="qcurve"/>
      <point x="1176" y="1515"/>
      <point x="1242" y="1512"/>
      <point x="1291" y="1498" type="qcurve"/>
    </contour>
    <contour>
      <point x="806" y="756" type="qcurve"/>
      <point x="770" y="761"/>
      <point x="694" y="742"/>
      <point x="621" y="700"/>
      <point x="553" y="638"/>
      <point x="526" y="601" type="qcurve"/>
      <point x="521" y="575"/>
      <point x="514" y="532"/>
      <point x="510" y="493"/>
      <point x="510" y="455"/>
      <point x="514" y="434" type="qcurve"/>
      <point x="521" y="396"/>
      <point x="546" y="316"/>
      <point x="585" y="250"/>
      <point x="639" y="204"/>
      <point x="675" y="200" type="qcurve"/>
      <point x="730" y="194"/>
      <point x="825" y="249"/>
      <point x="895" y="343"/>
      <point x="938" y="460"/>
      <point x="942" y="516" type="qcurve"/>
      <point x="949" y="619"/>
      <point x="876" y="745"/>
    </contour>
  </outline>
</glyph>
<glyph name="seven" format="1">
  <advance width="1300"/>
  <unicode hex="0037"/>
  <outline>
    <contour>
      <point x="416" y="1500" type="line"/>
      <point x="1410" y="1500" type="line"/>
      <point x="1382" y="1339" type="line"/>
      <point x="1368" y="1263"/>
      <point x="1238" y="1088"/>
      <point x="1140" y="976" type="qcurve"/>
      <point x="1075" y="901"/>
      <point x="951" y="749"/>
      <point x="846" y="592"/>
      <point x="767" y="430"/>
      <point x="748" y="346" type="qcurve"/>
      <point x="740" y="310"/>
      <point x="720" y="221"/>
      <point x="701" y="129"/>
      <point x="683" y="39"/>
      <point x="676" y="0" type="qcurve"/>
      <point x="352" y="0" type="line"/>
      <point x="358" y="32"/>
      <point x="379" y="140"/>
      <point x="406" y="260"/>
      <point x="435" y="376"/>
      <point x="449" y="418" type="qcurve"/>
      <point x="482" y="517"/>
      <point x="574" y="698"/>
      <point x="684" y="864"/>
      <point x="809" y="1016"/>
      <point x="875" y="1086" type="qcurve"/>
      <point x="925" y="1139"/>
      <point x="994" y="1239"/>
      <point x="1012" y="1272" type="qcurve"/>
      <point x="376" y="1272" type="line"/>
    </contour>
  </outline>
</glyph>
<glyph name="eight" format="1">
  <advance width="1300"/>
  <unicode hex="0038"/>
  <outline>
    <contour>
      <point x="883" y="1517" type="qcurve"/>
      <point x="984" y="1509"/>
      <point x="1140" y="1455"/>
      <point x="1242" y="1361"/>
      <point x="1288" y="1224"/>
      <point x="1280" y="1134" type="qcurve"/>
      <point x="1275" y="1084"/>
      <point x="1224" y="992"/>
      <point x="1146" y="916"/>
      <point x="1052" y="859"/>
      <point x="1005" y="844" type="qcurve"/>
      <point x="1048" y="827"/>
      <point x="1140" y="747"/>
      <point x="1214" y="635"/>
      <point x="1256" y="499"/>
      <point x="1249" y="427" type="qcurve"/>
      <point x="1241" y="345"/>
      <point x="1181" y="213"/>
      <point x="1088" y="112"/>
      <point x="968" y="40"/>
      <point x="834" y="-5"/>
      <point x="690" y="-22"/>
      <point x="619" y="-17" type="qcurve"/>
      <point x="516" y="-11"/>
      <point x="344" y="48"/>
      <point x="223" y="160"/>
      <point x="163" y="327"/>
      <point x="172" y="441" type="qcurve"/>
      <point x="178" y="513"/>
      <point x="233" y="635"/>
      <point x="327" y="737"/>
      <point x="454" y="818"/>
      <point x="532" y="848" type="qcurve"/>
      <point x="496" y="878"/>
      <point x="432" y="939"/>
      <point x="386" y="1007"/>
      <point x="362" y="1082"/>
      <point x="366" y="1124" type="qcurve"/>
      <point x="372" y="1193"/>
      <point x="424" y="1308"/>
      <point x="503" y="1398"/>
      <point x="603" y="1463"/>
      <point x="714" y="1504"/>
      <point x="829" y="1521"/>
    </contour>
    <contour>
      <point x="936" y="422" type="qcurve"/>
      <point x="938" y="476"/>
      <point x="906" y="565"/>
      <point x="849" y="635"/>
      <point x="773" y="690"/>
      <point x="732" y="711" type="qcurve"/>
      <point x="682" y="693"/>
      <point x="592" y="639"/>
      <point x="523" y="567"/>
      <point x="481" y="476"/>
      <point x="480" y="421" type="qcurve"/>
      <point x="479" y="372"/>
      <point x="506" y="294"/>
      <point x="554" y="239"/>
      <point x="619" y="205"/>
      <point x="658" y="200" type="qcurve"/>
      <point x="704" y="194"/>
      <point x="801" y="222"/>
      <point x="881" y="282"/>
      <point x="934" y="369"/>
    </contour>
    <contour>
      <point x="678" y="1156" type="qcurve"/>
      <point x="677" y="1121"/>
      <point x="702" y="1063"/>
      <point x="742" y="1015"/>
      <point x="790" y="977"/>
      <point x="812" y="964" type="qcurve"/>
      <point x="890" y="1002"/>
      <point x="979" y="1092"/>
      <point x="977" y="1152" type="qcurve"/>
      <point x="976" y="1188"/>
      <point x="959" y="1240"/>
      <point x="929" y="1274"/>
      <point x="888" y="1295"/>
      <point x="863" y="1300" type="qcurve"/>
      <point x="828" y="1307"/>
      <point x="763" y="1287"/>
      <point x="711" y="1244"/>
      <point x="679" y="1186"/>
    </contour>
  </outline>
</glyph>
<glyph name="nine" format="1">
  <advance width="1300"/>
  <unicode hex="0039"/>
  <outline>
    <contour>
      <point x="322" y="199" type="line"/>
      <point x="441" y="199"/>
      <point x="657" y="281"/>
      <point x="828" y="419"/>
      <point x="940" y="601"/>
      <point x="955" y="700" type="qcurve"/>
      <point x="750" y="548" type="line"/>
      <point x="734" y="546"/>
      <point x="700" y="543"/>
      <point x="683" y="544" type="qcurve"/>
      <point x="585" y="547"/>
      <point x="423" y="614"/>
      <point x="311" y="735"/>
      <point x="254" y="908"/>
      <point x="261" y="1017" type="qcurve"/>
      <point x="268" y="1129"/>
      <point x="371" y="1320"/>
      <point x="537" y="1456"/>
      <point x="754" y="1526"/>
      <point x="877" y="1517" type="qcurve"/>
      <point x="982" y="1509"/>
      <point x="1131" y="1440"/>
      <point x="1230" y="1335"/>
      <point x="1286" y="1203"/>
      <point x="1310" y="1065"/>
      <point x="1310" y="930"/>
      <point x="1304" y="873" type="qcurve"/>
      <point x="1291" y="755"/>
      <point x="1213" y="536"/>
      <point x="1089" y="343"/>
      <point x="920" y="182"/>
      <point x="712" y="62"/>
      <point x="466" y="-10"/>
      <point x="327" y="-17" type="qcurve"/>
    </contour>
    <contour>
      <point x="731" y="761" type="qcurve"/>
      <point x="767" y="755"/>
      <point x="847" y="781"/>
      <point x="920" y="834"/>
      <point x="982" y="906"/>
      <point x="1002" y="945" type="qcurve"/>
      <point x="1015" y="1009"/>
      <point x="1002" y="1133"/>
      <point x="960" y="1231"/>
      <point x="890" y="1295"/>
      <point x="846" y="1300" type="qcurve"/>
      <point x="795" y="1306"/>
      <point x="699" y="1265"/>
      <point x="625" y="1190"/>
      <point x="580" y="1089"/>
      <point x="581" y="1034" type="qcurve"/>
      <point x="582" y="981"/>
      <point x="596" y="888"/>
      <point x="629" y="816"/>
      <point x="687" y="768"/>
    </contour>
  </outline>
</glyph>
<glyph name="colon" format="1">
  <advance width="500"/>
  <unicode hex="003A"/>
  <outline>
    <contour>
      <point x="95" y="171" type="qcurve"/>
      <point x="98" y="209"/>
      <point x="138" y="280"/>
      <point x="199" y="332"/>
      <point x="274" y="360"/>
      <point x="311" y="356" type="qcurve"/>
      <point x="387" y="348"/>
      <point x="469" y="248"/>
      <point x="464" y="171" type="qcurve"/>
      <point x="462" y="132"/>
      <point x="422" y="62"/>
      <point x="361" y="9"/>
      <point x="285" y="-20"/>
      <point x="248" y="-17" type="qcurve"/>
      <point x="209" y="-14"/>
      <point x="149" y="17"/>
      <point x="110" y="68"/>
      <point x="92" y="134"/>
    </contour>
    <contour>
      <point x="190" y="714" type="qcurve"/>
      <point x="193" y="752"/>
      <point x="233" y="823"/>
      <point x="294" y="875"/>
      <point x="369" y="903"/>
      <point x="406" y="899" type="qcurve"/>
      <point x="482" y="891"/>
      <point x="564" y="791"/>
      <point x="559" y="714" type="qcurve"/>
      <point x="557" y="675"/>
      <point x="517" y="605"/>
      <point x="456" y="552"/>
      <point x="380" y="523"/>
      <point x="343" y="526" type="qcurve"/>
      <point x="304" y="529"/>
      <point x="244" y="560"/>
      <point x="205" y="611"/>
      <point x="187" y="677"/>
    </contour>
  </outline>
</glyph>
<glyph name="equal" format="1">
  <advance width="1000"/>
  <unicode hex="003D"/>
  <outline>
    <contour>
      <point x="240" y="800" type="line"/>
      <point x="1040" y="800" type="line"/>
      <point x="1001" y="581" type="line"/>
      <point x="201" y="581" type="line"/>
    </contour>
    <contour>
      <point x="169" y="400" type="line"/>
      <point x="969" y="400" type="line"/>
      <point x="930" y="181" type="line"/>
      <point x="130" y="181" type="line"/>
    </contour>
  </outline>
</glyph>
<glyph name="greater" format="1">
  <advance width="1300"/>
  <unicode hex="003E"/>
  <outline>
    <contour>
      <point x="1271" y="770" type="line"/>
      <point x="1232" y="545" type="line"/>
      <point x="134" y="34" type="line"/>
      <point x="182" y="302" type="line"/>
      <point x="911" y="654" type="line"/>
      <point x="306" y="1009" type="line"/>
      <point x="354" y="1278" type="line"/>
    </contour>
  </outline>
</glyph>
<glyph name="question" format="1">
  <advance width="1100"/>
  <unicode hex="003F"/>
  <outline>
    <contour>
      <point x="1237" y="1124" type="qcurve"/>
      <point x="1233" y="1062"/>
      <point x="1181" y="959"/>
      <point x="1100" y="871"/>
      <point x="997" y="797"/>
      <point x="942" y="765" type="qcurve"/>
      <point x="900" y="741"/>
      <point x="829" y="681"/>
      <point x="772" y="602"/>
      <point x="731" y="500"/>
      <point x="720" y="434" type="qcurve"/>
      <point x="403" y="399" type="line"/>
      <point x="427" y="588"/>
      <point x="595" y="856"/>
      <point x="748" y="942" type="qcurve"/>
      <point x="779" y="959"/>
      <point x="832" y="998"/>
      <point x="872" y="1043"/>
      <point x="896" y="1098"/>
      <point x="897" y="1132" type="qcurve"/>
      <point x="898" y="1172"/>
      <point x="874" y="1227"/>
      <point x="833" y="1263"/>
      <point x="778" y="1280"/>
      <point x="748" y="1283" type="qcurve"/>
      <point x="718" y="1286"/>
      <point x="643" y="1276"/>
      <point x="556" y="1241"/>
      <point x="461" y="1173"/>
      <point x="413" y="1117" type="qcurve"/>
      <point x="258" y="1268" type="line"/>
      <point x="335" y="1355"/>
      <point x="481" y="1455"/>
      <point x="619" y="1504"/>
      <point x="750" y="1517"/>
      <point x="813" y="1517" type="qcurve"/>
      <point x="899" y="1517"/>
      <point x="1058" y="1471"/>
      <point x="1178" y="1374"/>
      <point x="1244" y="1226"/>
    </contour>
    <contour>
      <point x="404" y="137" type="qcurve"/>
      <point x="406" y="167"/>
      <point x="438" y="224"/>
      <point x="487" y="266"/>
      <point x="547" y="288"/>
      <point x="577" y="285" type="qcurve"/>
      <point x="637" y="278"/>
      <point x="703" y="198"/>
      <point x="699" y="137" type="qcurve"/>
      <point x="697" y="106"/>
      <point x="665" y="49"/>
      <point x="616" y="7"/>
      <point x="556" y="-16"/>
      <point x="526" y="-14" type="qcurve"/>
      <point x="495" y="-12"/>
      <point x="447" y="14"/>
      <point x="416" y="54"/>
      <point x="402" y="107"/>
    </contour>
  </outline>
</glyph>
<glyph name="D" format="1">
  <advance width="1300"/>
  <unicode hex="0044"/>
  <outline>
    <contour>
      <point x="375" y="1493" type="line"/>
      <point x="424" y="1498"/>
      <point x="531" y="1504"/>
      <point x="633" y="1508"/>
      <point x="724" y="1510"/>
      <point x="757" y="1510" type="qcurve"/>
      <point x="910" y="1510"/>
      <point x="1166" y="1433"/>
      <point x="1341" y="1264"/>
      <point x="1420" y="997"/>
      <point x="1397" y="807" type="qcurve"/>
      <point x="1379" y="659"/>
      <point x="1292" y="424"/>
      <point x="1163" y="245"/>
      <point x="998" y="118"/>
      <point x="807" y="37"/>
      <point x="594" y="0"/>
      <point x="483" y="0" type="qcurve"/>
      <point x="146" y="0" type="line"/>
      <point x="368" y="1262" type="line"/>
    </contour>
    <contour>
      <point x="680" y="1127" type="line"/>
      <point x="522" y="230" type="line"/>
      <point x="624" y="232"/>
      <point x="778" y="281"/>
      <point x="889" y="363"/>
      <point x="965" y="471"/>
      <point x="1016" y="591"/>
      <point x="1046" y="718"/>
      <point x="1056" y="778" type="qcurve"/>
      <point x="1075" y="892"/>
      <point x="1064" y="1080"/>
      <point x="985" y="1215"/>
      <point x="832" y="1289"/>
      <point x="710" y="1289" type="qcurve"/>
      <point x="705" y="1289"/>
      <point x="694" y="1289"/>
      <point x="688" y="1288" type="qcurve"/>
    </contour>
  </outline>
</glyph>
<glyph name="J" format="1">
  <advance width="900"/>
  <unicode hex="004A"/>
  <outline>
    <contour>
      <point x="462" y="1493" type="line"/>
      <point x="1016" y="1523" type="line"/>
      <point x="826" y="446" type="line"/>
      <point x="805" y="329"/>
      <point x="714" y="149"/>
      <point x="580" y="30"/>
      <point x="406" y="-25"/>
      <point x="303" y="-17" type="qcurve"/>
      <point x="253" y="-13"/>
      <point x="157" y="15"/>
      <point x="73" y="59"/>
      <point x="3" y="114"/>
      <point x="-20" y="145" type="qcurve"/>
      <point x="161" y="338" type="line"/>
      <point x="174" y="322"/>
      <point x="207" y="288"/>
      <point x="246" y="261"/>
      <point x="291" y="244"/>
      <point x="318" y="244" type="qcurve"/>
      <point x="348" y="244"/>
      <point x="401" y="263"/>
      <point x="446" y="309"/>
      <point x="479" y="386"/>
      <point x="490" y="444" type="qcurve"/>
      <point x="611" y="1132" type="line"/>
      <point x="649" y="1266" type="line"/>
      <point x="449" y="1254" type="line"/>
    </contour>
  </outline>
</glyph>
<glyph name="K" format="1">
  <advance width="1200"/>
  <unicode hex="004B"/>
  <outline>
    <contour>
      <point x="136" y="0" type="line"/>
      <point x="358" y="1263" type="line"/>
      <point x="366" y="1494" type="line"/>
      <point x="740" y="1525" type="line"/>
      <point x="654" y="1035" type="line"/>
      <point x="1127" y="1500" type="line"/>
      <point x="1495" y="1500" type="line"/>
      <point x="890" y="900" type="line"/>
      <point x="603" y="802" type="line"/>
      <point x="848" y="716" type="line"/>
      <point x="1252" y="0" type="line"/>
      <point x="872" y="0" type="line"/>
      <point x="567" y="540" type="line"/>
      <point x="472" y="0" type="line"/>
    </contour>
  </outline>
</glyph>
<glyph name="S" format="1">
  <advance width="1100"/>
  <unicode hex="0053"/>
  <outline>
    <contour>
      <point x="1059" y="1178" type="line"/>
      <point x="1021" y="1205"/>
      <point x="956" y="1244"/>
      <point x="896" y="1270"/>
      <point x="838" y="1283"/>
      <point x="808" y="1284" type="qcurve"/>
      <point x="771" y="1285"/>
      <point x="692" y="1273"/>
      <point x="628" y="1237"/>
      <point x="586" y="1174"/>
      <point x="586" y="1125" type="qcurve"/>
      <point x="586" y="1083"/>
      <point x="616" y="1024"/>
      <point x="668" y="976"/>
      <point x="736" y="935"/>
      <point x="775" y="911" type="qcurve"/>
      <point x="813" y="887"/>
      <point x="896" y="838"/>
      <point x="975" y="779"/>
      <point x="1044" y="709"/>
      <point x="1093" y="622"/>
      <point x="1117" y="515"/>
      <point x="1110" y="448" type="qcurve"/>
      <point x="1102" y="366"/>
      <point x="1039" y="230"/>
      <point x="943" y="124"/>
      <point x="820" y="47"/>
      <point x="683" y="-2"/>
      <point x="540" y="-22"/>
      <point x="472" y="-17" type="qcurve"/>
      <point x="345" y="-9"/>
      <point x="128" y="62"/>
      <point x="50" y="121" type="qcurve"/>
      <point x="228" y="348" type="line"/>
      <point x="255" y="326"/>
      <point x="313" y="287"/>
      <point x="382" y="254"/>
      <point x="463" y="231"/>
      <point x="512" y="226" type="qcurve"/>
      <point x="556" y="221"/>
      <point x="652" y="242"/>
      <point x="733" y="293"/>
      <point x="786" y="374"/>
      <point x="786" y="430" type="qcurve"/>
      <point x="786" y="485"/>
      <point x="744" y="568"/>
      <point x="677" y="632"/>
      <point x="595" y="681"/>
      <point x="555" y="703" type="qcurve"/>
      <point x="490" y="738"/>
      <point x="375" y="811"/>
      <point x="291" y="901"/>
      <point x="246" y="1017"/>
      <point x="250" y="1097" type="qcurve"/>
      <point x="253" y="1165"/>
      <point x="307" y="1283"/>
      <point x="392" y="1380"/>
      <point x="505" y="1453"/>
      <point x="630" y="1501"/>
      <point x="762" y="1521"/>
      <point x="825" y="1517" type="qcurve"/>
      <point x="942" y="1509"/>
      <point x="1145" y="1438"/>
      <point x="1243" y="1369" type="qcurve"/>
    </contour>
  </outline>
</glyph>
<glyph name="X" format="1">
  <advance width="1300"/>
  <unicode hex="0058"/>
  <outline>
    <contour>
      <point x="766" y="375" type="line"/>
      <point x="712" y="592" type="line"/>
      <point x="620" y="400" type="line"/>
      <point x="310" y="0" type="line"/>
      <point x="-24" y="0" type="line"/>
      <point x="595" y="797" type="line"/>
      <point x="299" y="1492" type="line"/>
      <point x="642" y="1524" type="line"/>
      <point x="780" y="1198" type="line"/>
      <point x="834" y="962" type="line"/>
      <point x="910" y="1154" type="line"/>
      <point x="1177" y="1500" type="line"/>
      <point x="1513" y="1500" type="line"/>
      <point x="949" y="775" type="line"/>
      <point x="1278" y="0" type="line"/>
      <point x="924" y="0" type="line"/>
    </contour>
  </outline>
</glyph>
<glyph name="Y" format="1">
  <advance width="1200"/>
  <unicode hex="0059"/>
  <outline>
    <contour>
      <point x="711" y="1143" type="line"/>
      <point x="753" y="773" type="line"/>
      <point x="876" y="1143" type="line"/>
      <point x="1121" y="1500" type="line"/>
      <point x="1451" y="1500" type="line"/>
      <point x="868" y="650" type="line"/>
      <point x="754" y="0" type="line"/>
      <point x="418" y="0" type="line"/>
      <point x="532" y="650" type="line"/>
      <point x="252" y="1492" type="line"/>
      <point x="586" y="1525" type="line"/>
    </contour>
  </outline>
</glyph>
<glyph name="bracketleft" format="1">
  <advance width="900"/>
  <unicode hex="005B"/>
  <outline>
    <contour>
      <point x="300" y="1287" type="line"/>
      <point x="315" y="1519" type="line"/>
      <point x="1002" y="1519" type="line"/>
      <point x="964" y="1301" type="line"/>
      <point x="614" y="1301" type="line"/>
      <point x="603" y="1153" type="line"/>
      <point x="394" y="-32" type="line"/>
      <point x="353" y="-180" type="line"/>
      <point x="703" y="-180" type="line"/>
      <point x="664" y="-399" type="line"/>
      <point x="-22" y="-399" type="line"/>
      <point x="44" y="-167" type="line"/>
    </contour>
  </outline>
</glyph>
<glyph name="backslash" format="1">
  <advance width="1100"/>
  <unicode hex="005C"/>
  <outline>
    <contour>
      <point x="286" y="1595" type="line"/>
      <point x="615" y="1595" type="line"/>
      <point x="1023" y="-95" type="line"/>
      <point x="683" y="-95" type="line"/>
    </contour>
  </outline>
</glyph>
<glyph name="bracketright" format="1">
  <advance width="1000"/>
  <unicode hex="005D"/>
  <outline>
    <contour>
      <point x="697" y="-167" type="line"/>
      <point x="682" y="-399" type="line"/>
      <point x="-4" y="-399" type="line"/>
      <point x="34" y="-180" type="line"/>
      <point x="383" y="-180" type="line"/>
      <point x="394" y="-32" type="line"/>
      <point x="603" y="1153" type="line"/>
      <point x="644" y="1301" type="line"/>
      <point x="295" y="1301" type="line"/>
      <point x="333" y="1519" type="line"/>
      <point x="1020" y="1519" type="line"/>
      <point x="953" y="1287" type="line"/>
    </contour>
  </outline>
</glyph>
<glyph name="underscore" format="1">
  <advance width="1100"/>
  <unicode hex="005F"/>
  <outline>
    <contour>
      <point x="-35" y="-200" type="line"/>
      <point x="1064" y="-200" type="line"/>
      <point x="1019" y="-455" type="line"/>
      <point x="-80" y="-455" type="line"/>
    </contour>
  </outline>
</glyph>
<glyph name="b" format="1">
  <advance width="1200"/>
  <unicode hex="0062"/>
  <outline>
    <contour>
      <point x="494" y="212" type="line"/>
      <point x="523" y="207"/>
      <point x="587" y="200"/>
      <point x="617" y="200" type="qcurve"/>
      <point x="686" y="200"/>
      <point x="785" y="273"/>
      <point x="853" y="387"/>
      <point x="891" y="529"/>
      <point x="897" y="598" type="qcurve"/>
      <point x="905" y="681"/>
      <point x="899" y="792"/>
      <point x="875" y="861"/>
      <point x="834" y="894"/>
      <point x="806" y="900" type="qcurve"/>
      <point x="776" y="906"/>
      <point x="722" y="898"/>
      <point x="671" y="877"/>
      <point x="624" y="844"/>
      <point x="602" y="826" type="qcurve"/>
    </contour>
    <contour>
      <point x="389" y="1398" type="line"/>
      <point x="403" y="1601" type="line"/>
      <point x="744" y="1632" type="line"/>
      <point x="628" y="974" type="line"/>
      <point x="747" y="1096" type="line"/>
      <point x="778" y="1104"/>
      <point x="844" y="1117"/>
      <point x="872" y="1117" type="qcurve"/>
      <point x="953" y="1117"/>
      <point x="1090" y="1049"/>
      <point x="1184" y="916"/>
      <point x="1225" y="720"/>
      <point x="1210" y="593" type="qcurve"/>
      <point x="1194" y="455"/>
      <point x="1086" y="226"/>
      <point x="919" y="64"/>
      <point x="699" y="-21"/>
      <point x="570" y="-16" type="qcurve"/>
      <point x="506" y="-13"/>
      <point x="381" y="0"/>
      <point x="270" y="19"/>
      <point x="180" y="42"/>
      <point x="152" y="54" type="qcurve"/>
    </contour>
  </outline>
</glyph>
<glyph name="d" format="1">
  <advance width="1200"/>
  <unicode hex="0064"/>
  <outline>
    <contour>
      <point x="904" y="900" type="line"/>
      <point x="835" y="900" type="line"/>
      <point x="761" y="900"/>
      <point x="646" y="836"/>
      <point x="565" y="729"/>
      <point x="516" y="590"/>
      <point x="509" y="515" type="qcurve"/>
      <point x="494" y="366"/>
      <point x="544" y="211"/>
      <point x="614" y="200" type="qcurve"/>
      <point x="650" y="195"/>
      <point x="708" y="211"/>
      <point x="754" y="245"/>
      <point x="789" y="291"/>
      <point x="801" y="316" type="qcurve"/>
    </contour>
    <contour>
      <point x="746" y="0" type="line"/>
      <point x="774" y="162" type="line"/>
      <point x="619" y="-10" type="line"/>
      <point x="611" y="-12"/>
      <point x="596" y="-15"/>
      <point x="577" y="-18"/>
      <point x="550" y="-19"/>
      <point x="529" y="-17" type="qcurve"/>
      <point x="439" y="-11"/>
      <point x="302" y="70"/>
      <point x="215" y="210"/>
      <point x="184" y="406"/>
      <point x="200" y="528" type="qcurve"/>
      <point x="215" y="645"/>
      <point x="317" y="853"/>
      <point x="486" y="1009"/>
      <point x="720" y="1100"/>
      <point x="869" y="1100" type="qcurve"/>
      <point x="939" y="1100" type="line"/>
      <point x="1033" y="1632" type="line"/>
      <point x="1341" y="1600" type="line"/>
      <point x="1095" y="209" type="line"/>
      <point x="1081" y="0" type="line"/>
    </contour>
  </outline>
</glyph>
<glyph name="f" format="1">
  <advance width="800"/>
  <unicode hex="0066"/>
  <outline>
    <contour>
      <point x="319" y="876" type="line"/>
      <point x="179" y="876" type="line"/>
      <point x="218" y="1100" type="line"/>
      <point x="358" y="1100" type="line"/>
      <point x="383" y="1242" type="line"/>
      <point x="402" y="1339"/>
      <point x="469" y="1485"/>
      <point x="573" y="1581"/>
      <point x="719" y="1623"/>
      <point x="817" y="1617" type="qcurve"/>
      <point x="869" y="1614"/>
      <point x="960" y="1589"/>
      <point x="1034" y="1556"/>
      <point x="1093" y="1518"/>
      <point x="1114" y="1501" type="qcurve"/>
      <point x="950" y="1341" type="line"/>
      <point x="921" y="1361"/>
      <point x="853" y="1388"/>
      <point x="809" y="1393" type="qcurve"/>
      <point x="783" y="1396"/>
      <point x="741" y="1383"/>
      <point x="710" y="1345"/>
      <point x="687" y="1281"/>
      <point x="679" y="1233" type="qcurve"/>
      <point x="655" y="1100" type="line"/>
      <point x="939" y="1100" type="line"/>
      <point x="873" y="876" type="line"/>
      <point x="630" y="876" type="line"/>
      <point x="476" y="0" type="line"/>
      <point x="456" y="-112"/>
      <point x="400" y="-279"/>
      <point x="305" y="-387"/>
      <point x="158" y="-435"/>
      <point x="46" y="-428" type="qcurve"/>
      <point x="9" y="-426"/>
      <point x="-55" y="-413"/>
      <point x="-106" y="-398"/>
      <point x="-142" y="-382"/>
      <point x="-152" y="-376" type="qcurve"/>
      <point x="-62" y="-179" type="line"/>
      <point x="-61" y="-179"/>
      <point x="-60" y="-180"/>
      <point x="-59" y="-180" type="qcurve"/>
      <point x="-40" y="-188"/>
      <point x="7" y="-204"/>
      <point x="33" y="-202" type="qcurve"/>
      <point x="61" y="-199"/>
      <point x="103" y="-169"/>
      <point x="133" y="-116"/>
      <point x="155" y="-44"/>
      <point x="165" y="0" type="qcurve"/>
    </contour>
  </outline>
</glyph>
<glyph name="k" format="1">
  <advance width="1100"/>
  <unicode hex="006B"/>
  <outline>
    <contour>
      <point x="144" y="0" type="line"/>
      <point x="390" y="1397" type="line"/>
      <point x="404" y="1600" type="line"/>
      <point x="722" y="1631" type="line"/>
      <point x="570" y="769" type="line"/>
      <point x="893" y="1100" type="line"/>
      <point x="1234" y="1100" type="line"/>
      <point x="802" y="700" type="line"/>
      <point x="585" y="627" type="line"/>
      <point x="763" y="564" type="line"/>
      <point x="1142" y="0" type="line"/>
      <point x="794" y="0" type="line"/>
      <point x="515" y="458" type="line"/>
      <point x="435" y="0" type="line"/>
    </contour>
  </outline>
</glyph>
<glyph name="l" format="1">
  <advance width="700"/>
  <unicode hex="006C"/>
  <outline>
    <contour>
      <point x="388" y="1379" type="line"/>
      <point x="406" y="1600" type="line"/>
      <point x="744" y="1631" type="line"/>
      <point x="528" y="403" type="line"/>
      <point x="522" y="371"/>
      <point x="519" y="307"/>
      <point x="529" y="253"/>
      <point x="558" y="215"/>
      <point x="584" y="209" type="qcurve"/>
      <point x="597" y="206"/>
      <point x="627" y="210"/>
      <point x="656" y="219"/>
      <point x="679" y="229"/>
      <point x="687" y="232" type="qcurve"/>
      <point x="709" y="35" type="line"/>
      <point x="666" y="9"/>
      <point x="565" y="-22"/>
      <point x="491" y="-17" type="qcurve"/>
      <point x="390" y="-11"/>
      <point x="268" y="59"/>
      <point x="208" y="173"/>
      <point x="202" y="324"/>
      <point x="217" y="411" type="qcurve"/>
    </contour>
  </outline>
</glyph>
<glyph name="m" format="1">
  <advance width="1800"/>
  <unicode hex="006D"/>
  <outline>
    <contour>
      <point x="469" y="0" type="line"/>
      <point x="156" y="0" type="line"/>
      <point x="348" y="1093" type="line"/>
      <point x="667" y="1126" type="line"/>
      <point x="634" y="937" type="line"/>
      <point x="750" y="1088" type="line"/>
      <point x="773" y="1096"/>
      <point x="799" y="1102" type="qcurve"/>
      <point x="821" y="1107"/>
      <point x="874" y="1117"/>
      <point x="900" y="1117" type="qcurve"/>
      <point x="920" y="1117"/>
      <point x="978" y="1109"/>
      <point x="1045" y="1088"/>
      <point x="1118" y="1052"/>
      <point x="1153" y="1023" type="qcurve"/>
      <point x="1183" y="1039"/>
      <point x="1257" y="1073"/>
      <point x="1337" y="1100"/>
      <point x="1421" y="1117"/>
      <point x="1462" y="1117" type="qcurve"/>
      <point x="1551" y="1117"/>
      <point x="1684" y="1051"/>
      <point x="1765" y="944"/>
      <point x="1791" y="807"/>
      <point x="1773" y="736" type="qcurve"/>
      <point x="1644" y="0" type="line"/>
      <point x="1331" y="0" type="line"/>
      <point x="1464" y="757" type="line"/>
      <point x="1471" y="786"/>
      <point x="1462" y="837"/>
      <point x="1436" y="875"/>
      <point x="1396" y="898"/>
      <point x="1373" y="900" type="qcurve"/>
      <point x="1336" y="903"/>
      <point x="1246" y="867"/>
      <point x="1196" y="814" type="qcurve"/>
      <point x="1194" y="790"/>
      <point x="1188" y="755"/>
      <point x="1184" y="727" type="qcurve"/>
      <point x="1056" y="0" type="line"/>
      <point x="743" y="0" type="line"/>
      <point x="876" y="757" type="line"/>
      <point x="885" y="785"/>
      <point x="878" y="834"/>
      <point x="855" y="872"/>
      <point x="820" y="897"/>
      <point x="801" y="900" type="qcurve"/>
      <point x="756" y="908"/>
      <point x="664" y="868"/>
      <point x="612" y="816" type="qcurve"/>
    </contour>
  </outline>
</glyph>
<glyph name="n" format="1">
  <advance width="1200"/>
  <unicode hex="006E"/>
  <outline>
    <contour>
      <point x="653" y="1126" type="line"/>
      <point x="620" y="937" type="line"/>
      <point x="736" y="1088" type="line"/>
      <point x="770" y="1099"/>
      <point x="840" y="1115"/>
      <point x="875" y="1117" type="qcurve"/>
      <point x="929" y="1121"/>
      <point x="1006" y="1114"/>
      <point x="1066" y="1091"/>
      <point x="1114" y="1052"/>
      <point x="1139" y="1024" type="qcurve"/>
      <point x="1166" y="993"/>
      <point x="1186" y="914"/>
      <point x="1187" y="833"/>
      <point x="1175" y="756"/>
      <point x="1170" y="727" type="qcurve"/>
      <point x="1042" y="0" type="line"/>
      <point x="729" y="0" type="line"/>
      <point x="862" y="757" type="line"/>
      <point x="873" y="821"/>
      <point x="826" y="889"/>
      <point x="787" y="900" type="qcurve"/>
      <point x="771" y="904"/>
      <point x="726" y="899"/>
      <point x="674" y="878"/>
      <point x="621" y="842"/>
      <point x="598" y="816" type="qcurve"/>
      <point x="455" y="0" type="line"/>
      <point x="142" y="0" type="line"/>
      <point x="334" y="1093" type="line"/>
    </contour>
  </outline>
</glyph>
<glyph name="p" format="1">
  <advance width="1200"/>
  <unicode hex="0070"/>
  <outline>
    <contour>
      <point x="511" y="200" type="line"/>
      <point x="589" y="200" type="line"/>
      <point x="668" y="200"/>
      <point x="791" y="260"/>
      <point x="878" y="362"/>
      <point x="931" y="499"/>
      <point x="941" y="576" type="qcurve"/>
      <point x="950" y="649"/>
      <point x="937" y="765"/>
      <point x="903" y="847"/>
      <point x="851" y="894"/>
      <point x="821" y="900" type="qcurve"/>
      <point x="794" y="905"/>
      <point x="740" y="894"/>
      <point x="689" y="869"/>
      <point x="640" y="832"/>
      <point x="619" y="811" type="qcurve"/>
    </contour>
    <contour>
      <point x="76" y="-500" type="line"/>
      <point x="357" y="1093" type="line"/>
      <point x="674" y="1126" type="line"/>
      <point x="642" y="944" type="line"/>
      <point x="795" y="1110" type="line"/>
      <point x="817" y="1113"/>
      <point x="862" y="1117"/>
      <point x="886" y="1117" type="qcurve"/>
      <point x="967" y="1117"/>
      <point x="1102" y="1046"/>
      <point x="1195" y="906"/>
      <point x="1237" y="699"/>
      <point x="1224" y="564" type="qcurve"/>
      <point x="1212" y="440"/>
      <point x="1103" y="233"/>
      <point x="924" y="83"/>
      <point x="682" y="0"/>
      <point x="537" y="0" type="qcurve"/>
      <point x="476" y="0" type="line"/>
      <point x="387" y="-500" type="line"/>
    </contour>
  </outline>
</glyph>
<glyph name="r" format="1">
  <advance width="800"/>
  <unicode hex="0072"/>
  <outline>
    <contour>
      <point x="940" y="867" type="line"/>
      <point x="922" y="877"/>
      <point x="892" y="890"/>
      <point x="862" y="898"/>
      <point x="827" y="900"/>
      <point x="804" y="900" type="qcurve"/>
      <point x="741" y="900"/>
      <point x="619" y="816"/>
      <point x="578" y="736" type="qcurve"/>
      <point x="449" y="0" type="line"/>
      <point x="136" y="0" type="line"/>
      <point x="328" y="1093" type="line"/>
      <point x="647" y="1126" type="line"/>
      <point x="606" y="895" type="line"/>
      <point x="736" y="1100" type="line"/>
      <point x="745" y="1103"/>
      <point x="770" y="1109"/>
      <point x="798" y="1114"/>
      <point x="827" y="1117"/>
      <point x="840" y="1117" type="qcurve"/>
      <point x="895" y="1117"/>
      <point x="964" y="1100"/>
      <point x="993" y="1084" type="qcurve"/>
    </contour>
  </outline>
</glyph>
<glyph name="z" format="1">
  <advance width="1000"/>
  <unicode hex="007A"/>
  <outline>
    <contour>
      <point x="580" y="200" type="line"/>
      <point x="953" y="200" type="line"/>
      <point x="945" y="0" type="line"/>
      <point x="55" y="0" type="line"/>
      <point x="36" y="85" type="line"/>
      <point x="555" y="757" type="line"/>
      <point x="817" y="935" type="line"/>
      <point x="540" y="900" type="line"/>
      <point x="266" y="900" type="line"/>
      <point x="274" y="1100" type="line"/>
      <point x="1057" y="1100" type="line"/>
      <point x="1075" y="1017" type="line"/>
      <point x="560" y="339" type="line"/>
      <point x="303" y="165" type="line"/>
    </contour>
  </outline>
</glyph>
<glyph name="braceleft" format="1">
  <advance width="1298"/>
  <unicode hex="007B"/>
  <outline>
    <contour>
      <point x="1225" y="1260" type="line"/>
      <point x="1194" y="1280"/>
      <point x="1112" y="1305"/>
      <point x="1077" y="1305" type="qcurve"/>
      <point x="1047" y="1303"/>
      <point x="1006" y="1274"/>
      <point x="978" y="1222"/>
      <point x="959" y="1147"/>
      <point x="950" y="1099" type="qcurve"/>
      <point x="909" y="864" type="line"/>
      <point x="895" y="787"/>
      <point x="847" y="679"/>
      <point x="787" y="605"/>
      <point x="720" y="561"/>
      <point x="689" y="550" type="qcurve"/>
      <point x="713" y="530"/>
      <point x="759" y="460"/>
      <point x="791" y="373"/>
      <point x="805" y="280"/>
      <point x="798" y="238" type="qcurve"/>
      <point x="756" y="-2" type="line"/>
      <point x="748" y="-50"/>
      <point x="740" y="-119"/>
      <point x="749" y="-167"/>
      <point x="780" y="-198"/>
      <point x="810" y="-208" type="qcurve"/>
      <point x="826" y="-213"/>
      <point x="868" y="-208"/>
      <point x="912" y="-194"/>
      <point x="955" y="-173"/>
      <point x="974" y="-163" type="qcurve"/>
      <point x="1037" y="-348" type="line"/>
      <point x="1002" y="-363"/>
      <point x="936" y="-393"/>
      <point x="864" y="-414"/>
      <point x="781" y="-424"/>
      <point x="729" y="-420" type="qcurve"/>
      <point x="628" y="-413"/>
      <point x="498" y="-346"/>
      <point x="428" y="-237"/>
      <point x="414" y="-90"/>
      <point x="429" y="-2" type="qcurve"/>
      <point x="471" y="238" type="line"/>
      <point x="487" y="326"/>
      <point x="474" y="432"/>
      <point x="430" y="442" type="qcurve"/>
      <point x="296" y="462" type="line"/>
      <point x="327" y="640" type="line"/>
      <point x="469" y="660" type="line"/>
      <point x="517" y="671"/>
      <point x="566" y="776"/>
      <point x="582" y="864" type="qcurve"/>
      <point x="623" y="1099" type="line"/>
      <point x="642" y="1211"/>
      <point x="706" y="1375"/>
      <point x="809" y="1478"/>
      <point x="962" y="1523"/>
      <point x="1071" y="1517" type="qcurve"/>
      <point x="1123" y="1514"/>
      <point x="1202" y="1503"/>
      <point x="1267" y="1485"/>
      <point x="1323" y="1461"/>
      <point x="1353" y="1445" type="qcurve"/>
    </contour>
  </outline>
</glyph>
<glyph name="bar" format="1">
  <advance width="400"/>
  <unicode hex="007C"/>
  <outline>
    <contour>
      <point x="635" y="1527" type="line"/>
      <point x="298" y="-380" type="line"/>
      <point x="-28" y="-380" type="line"/>
      <point x="302" y="1493" type="line"/>
    </contour>
  </outline>
</glyph>
<glyph name="cent" format="1">
  <advance width="1000"/>
  <unicode hex="00A2"/>
  <outline>
    <contour>
      <point x="466" y="563" type="qcurve"/>
      <point x="463" y="516"/>
      <point x="461" y="428"/>
      <point x="470" y="350"/>
      <point x="492" y="283"/>
      <point x="513" y="258" type="qcurve"/>
      <point x="620" y="869" type="line"/>
      <point x="587" y="848"/>
      <point x="533" y="784"/>
      <point x="493" y="703"/>
      <point x="469" y="611"/>
    </contour>
    <contour>
      <point x="931" y="814" type="line"/>
      <point x="912" y="836"/>
      <point x="873" y="865"/>
      <point x="853" y="875" type="qcurve"/>
      <point x="738" y="217" type="line"/>
      <point x="776" y="231"/>
      <point x="848" y="268"/>
      <point x="872" y="288" type="qcurve"/>
      <point x="950" y="93" type="line"/>
      <point x="899" y="57"/>
      <point x="769" y="0"/>
      <point x="697" y="-12" type="qcurve"/>
      <point x="666" y="-190" type="line"/>
      <point x="386" y="-190" type="line"/>
      <point x="422" y="14" type="line"/>
      <point x="336" y="44"/>
      <point x="224" y="153"/>
      <point x="162" y="299"/>
      <point x="144" y="476"/>
      <point x="152" y="575" type="qcurve"/>
      <point x="159" y="666"/>
      <point x="229" y="841"/>
      <point x="348" y="985"/>
      <point x="513" y="1087"/>
      <point x="615" y="1107" type="qcurve"/>
      <point x="649" y="1302" type="line"/>
      <point x="936" y="1340" type="line"/>
      <point x="894" y="1101" type="line"/>
      <point x="959" y="1086"/>
      <point x="1063" y="1021"/>
      <point x="1108" y="961" type="qcurve"/>
    </contour>
  </outline>
</glyph>
<glyph name="currency" format="1">
  <advance width="1200"/>
  <unicode hex="00A4"/>
  <outline>
    <contour>
      <point x="1147" y="249" type="line"/>
      <point x="940" y="72" type="line"/>
      <point x="803" y="238" type="line"/>
      <point x="764" y="217"/>
      <point x="675" y="195"/>
      <point x="583" y="194"/>
      <point x="492" y="215"/>
      <point x="452" y="238" type="qcurve"/>
      <point x="258" y="72" type="line"/>
      <point x="112" y="249" type="line"/>
      <point x="291" y="400" type="line"/>
      <point x="266" y="443"/>
      <point x="249" y="544"/>
      <point x="266" y="646"/>
      <point x="316" y="742"/>
      <point x="358" y="779" type="qcurve"/>
      <point x="232" y="930" type="line"/>
      <point x="440" y="1109" type="line"/>
      <point x="577" y="942" type="line"/>
      <point x="610" y="958"/>
      <point x="698" y="978"/>
      <point x="794" y="981"/>
      <point x="889" y="964"/>
      <point x="928" y="942" type="qcurve"/>
      <point x="1124" y="1109" type="line"/>
      <point x="1267" y="930" type="line"/>
      <point x="1090" y="779" type="line"/>
      <point x="1111" y="736"/>
      <point x="1123" y="629"/>
      <point x="1106" y="523"/>
      <point x="1060" y="430"/>
      <point x="1023" y="400" type="qcurve"/>
    </contour>
    <contour>
      <point x="526" y="590" type="qcurve"/>
      <point x="523" y="543"/>
      <point x="544" y="482"/>
      <point x="583" y="444"/>
      <point x="633" y="423"/>
      <point x="660" y="417" type="qcurve"/>
      <point x="686" y="411"/>
      <point x="752" y="428"/>
      <point x="811" y="472"/>
      <point x="853" y="543"/>
      <point x="855" y="590" type="qcurve"/>
      <point x="857" y="639"/>
      <point x="836" y="701"/>
      <point x="798" y="738"/>
      <point x="748" y="756"/>
      <point x="721" y="761" type="qcurve"/>
      <point x="695" y="765"/>
      <point x="630" y="750"/>
      <point x="572" y="708"/>
      <point x="529" y="639"/>
    </contour>
  </outline>
</glyph>
<glyph name="yen" format="1">
  <advance width="1200"/>
  <unicode hex="00A5"/>
  <outline>
    <contour>
      <point x="203" y="589" type="line"/>
      <point x="522" y="589" type="line"/>
      <point x="533" y="650" type="line"/>
      <point x="516" y="700" type="line"/>
      <point x="223" y="700" type="line"/>
      <point x="256" y="889" type="line"/>
      <point x="453" y="889" type="line"/>
      <point x="253" y="1492" type="line"/>
      <point x="587" y="1525" type="line"/>
      <point x="712" y="1143" type="line"/>
      <point x="754" y="773" type="line"/>
      <point x="877" y="1143" type="line"/>
      <point x="1122" y="1500" type="line"/>
      <point x="1452" y="1500" type="line"/>
      <point x="1033" y="889" type="line"/>
      <point x="1256" y="889" type="line"/>
      <point x="1223" y="700" type="line"/>
      <point x="903" y="700" type="line"/>
      <point x="869" y="650" type="line"/>
      <point x="858" y="589" type="line"/>
      <point x="1203" y="589" type="line"/>
      <point x="1170" y="400" type="line"/>
      <point x="825" y="400" type="line"/>
      <point x="755" y="0" type="line"/>
      <point x="419" y="0" type="line"/>
      <point x="489" y="400" type="line"/>
      <point x="170" y="400" type="line"/>
    </contour>
  </outline>
</glyph>
<glyph name="brokenbar" format="1">
  <advance width="400"/>
  <unicode hex="00A6"/>
  <outline>
    <contour>
      <point x="634" y="1527" type="line"/>
      <point x="488" y="700" type="line"/>
      <point x="161" y="700" type="line"/>
      <point x="301" y="1493" type="line"/>
    </contour>
    <contour>
      <point x="428" y="362" type="line"/>
      <point x="294" y="-400" type="line"/>
      <point x="-32" y="-400" type="line"/>
      <point x="101" y="362" type="line"/>
    </contour>
  </outline>
</glyph>
<glyph name="dieresis" format="1">
  <advance width="1100"/>
  <unicode hex="00A8"/>
  <outline>
    <contour>
      <point x="487" y="1500" type="line"/>
      <point x="763" y="1500" type="line"/>
      <point x="716" y="1234" type="line"/>
      <point x="440" y="1234" type="line"/>
    </contour>
    <contour>
      <point x="887" y="1500" type="line"/>
      <point x="1163" y="1500" type="line"/>
      <point x="1116" y="1234" type="line"/>
      <point x="840" y="1234" type="line"/>
    </contour>
  </outline>
</glyph>
<glyph name="copyright" format="1">
  <advance width="1100"/>
  <unicode hex="00A9"/>
  <outline>
    <contour>
      <point x="816" y="1517" type="qcurve"/>
      <point x="912" y="1511"/>
      <point x="1061" y="1439"/>
      <point x="1160" y="1316"/>
      <point x="1208" y="1149"/>
      <point x="1203" y="1047" type="qcurve"/>
      <point x="1198" y="948"/>
      <point x="1097" y="770"/>
      <point x="940" y="639"/>
      <point x="747" y="569"/>
      <point x="650" y="577" type="qcurve"/>
      <point x="548" y="586"/>
      <point x="397" y="660"/>
      <point x="299" y="781"/>
      <point x="257" y="947"/>
      <point x="263" y="1047" type="qcurve"/>
      <point x="269" y="1146"/>
      <point x="366" y="1322"/>
      <point x="519" y="1452"/>
      <point x="712" y="1523"/>
    </contour>
    <contour>
      <point x="794" y="1395" type="qcurve"/>
      <point x="717" y="1400"/>
      <point x="573" y="1347"/>
      <point x="461" y="1251"/>
      <point x="389" y="1119"/>
      <point x="384" y="1046" type="qcurve"/>
      <point x="379" y="972"/>
      <point x="411" y="849"/>
      <point x="483" y="759"/>
      <point x="595" y="705"/>
      <point x="670" y="698" type="qcurve"/>
      <point x="742" y="692"/>
      <point x="885" y="744"/>
      <point x="1001" y="842"/>
      <point x="1077" y="973"/>
      <point x="1081" y="1046" type="qcurve"/>
      <point x="1084" y="1122"/>
      <point x="1049" y="1246"/>
      <point x="975" y="1337"/>
      <point x="865" y="1390"/>
    </contour>
    <contour>
      <point x="874" y="1165" type="line"/>
      <point x="863" y="1177"/>
      <point x="839" y="1192"/>
      <point x="815" y="1200"/>
      <point x="790" y="1203"/>
      <point x="778" y="1204" type="qcurve"/>
      <point x="749" y="1206"/>
      <point x="701" y="1181"/>
      <point x="665" y="1139"/>
      <point x="644" y="1082"/>
      <point x="642" y="1052" type="qcurve"/>
      <point x="640" y="1022"/>
      <point x="641" y="966"/>
      <point x="656" y="922"/>
      <point x="690" y="893"/>
      <point x="721" y="889" type="qcurve"/>
      <point x="734" y="887"/>
      <point x="768" y="893"/>
      <point x="802" y="905"/>
      <point x="834" y="921"/>
      <point x="845" y="929" type="qcurve"/>
      <point x="884" y="841" type="line"/>
      <point x="866" y="829"/>
      <point x="822" y="809"/>
      <point x="774" y="796"/>
      <point x="722" y="789"/>
      <point x="696" y="791" type="qcurve"/>
      <point x="629" y="796"/>
      <point x="543" y="841"/>
      <point x="495" y="912"/>
      <point x="480" y="1005"/>
      <point x="485" y="1058" type="qcurve"/>
      <point x="489" y="1107"/>
      <point x="537" y="1198"/>
      <point x="618" y="1267"/>
      <point x="729" y="1306"/>
      <point x="798" y="1302" type="qcurve"/>
      <point x="825" y="1300"/>
      <point x="871" y="1292"/>
      <point x="912" y="1276"/>
      <point x="947" y="1250"/>
      <point x="963" y="1231" type="qcurve"/>
    </contour>
  </outline>
</glyph>
<glyph name="ordfeminine" format="1">
  <advance width="800"/>
  <unicode hex="00AA"/>
  <outline>
    <contour>
      <point x="211" y="800" type="line"/>
      <point x="671" y="800" type="line"/>
      <point x="644" y="650" type="line"/>
      <point x="184" y="650" type="line"/>
    </contour>
    <contour>
      <point x="661" y="1373" type="line"/>
      <point x="651" y="1375"/>
      <point x="634" y="1377"/>
      <point x="630" y="1377" type="qcurve"/>
      <point x="593" y="1377"/>
      <point x="535" y="1346"/>
      <point x="494" y="1294"/>
      <point x="470" y="1225"/>
      <point x="466" y="1186" type="qcurve"/>
      <point x="463" y="1155"/>
      <point x="465" y="1101"/>
      <point x="476" y="1059"/>
      <point x="497" y="1035"/>
      <point x="511" y="1035" type="qcurve"/>
      <point x="528" y="1035"/>
      <point x="559" y="1047"/>
      <point x="585" y="1065"/>
      <point x="606" y="1086"/>
      <point x="613" y="1095" type="qcurve"/>
    </contour>
    <contour>
      <point x="483" y="923" type="qcurve"/>
      <point x="444" y="923"/>
      <point x="387" y="947"/>
      <point x="347" y="987"/>
      <point x="322" y="1040"/>
      <point x="311" y="1102"/>
      <point x="310" y="1169"/>
      <point x="315" y="1202" type="qcurve"/>
      <point x="319" y="1238"/>
      <point x="343" y="1309"/>
      <point x="383" y="1373"/>
      <point x="437" y="1427"/>
      <point x="508" y="1467"/>
      <point x="595" y="1489"/>
      <point x="647" y="1489" type="qcurve"/>
      <point x="678" y="1489"/>
      <point x="709" y="1485" type="qcurve"/>
      <point x="736" y="1481"/>
      <point x="799" y="1466"/>
      <point x="828" y="1452" type="qcurve"/>
      <point x="756" y="1035" type="line"/>
      <point x="749" y="931" type="line"/>
      <point x="588" y="931" type="line"/>
      <point x="602" y="1012" type="line"/>
      <point x="525" y="926" type="line"/>
      <point x="519" y="925"/>
      <point x="501" y="922"/>
    </contour>
  </outline>
</glyph>
<glyph name="guillemotleft" format="1">
  <advance width="1400"/>
  <unicode hex="00AB"/>
  <outline>
    <contour>
      <point x="877" y="1106" type="line"/>
      <point x="926" y="880" type="line"/>
      <point x="542" y="583" type="line"/>
      <point x="460" y="550" type="line"/>
      <point x="530" y="517" type="line"/>
      <point x="812" y="224" type="line"/>
      <point x="676" y="-13" type="line"/>
      <point x="207" y="476" type="line"/>
      <point x="233" y="620" type="line"/>
    </contour>
    <contour>
      <point x="1377" y="1106" type="line"/>
      <point x="1426" y="880" type="line"/>
      <point x="1042" y="583" type="line"/>
      <point x="960" y="550" type="line"/>
      <point x="1030" y="517" type="line"/>
      <point x="1312" y="224" type="line"/>
      <point x="1176" y="-13" type="line"/>
      <point x="707" y="476" type="line"/>
      <point x="733" y="620" type="line"/>
    </contour>
  </outline>
</glyph>
<glyph name="logicalnot" format="1">
  <advance width="1700"/>
  <unicode hex="00AC"/>
  <outline>
    <contour>
      <point x="1605" y="827" type="line"/>
      <point x="1544" y="586" type="line"/>
      <point x="1486" y="258" type="line"/>
      <point x="1154" y="258" type="line"/>
      <point x="1189" y="459" type="line"/>
      <point x="1226" y="600" type="line"/>
      <point x="276" y="600" type="line"/>
      <point x="316" y="827" type="line"/>
    </contour>
  </outline>
</glyph>
<glyph name="plusminus" format="1">
  <advance width="1200"/>
  <unicode hex="00B1"/>
  <outline>
    <contour>
      <point x="303" y="863" type="line"/>
      <point x="648" y="863" type="line"/>
      <point x="721" y="1212" type="line"/>
      <point x="922" y="1212" type="line"/>
      <point x="849" y="863" type="line"/>
      <point x="1194" y="863" type="line"/>
      <point x="1160" y="700" type="line"/>
      <point x="815" y="700" type="line"/>
      <point x="747" y="374" type="line"/>
      <point x="546" y="374" type="line"/>
      <point x="614" y="700" type="line"/>
      <point x="270" y="700" type="line"/>
    </contour>
    <contour>
      <point x="264" y="299" type="line"/>
      <point x="1164" y="299" type="line"/>
      <point x="1164" y="159" type="line"/>
      <point x="264" y="159" type="line"/>
    </contour>
  </outline>
</glyph>
<glyph name="twosuperior" format="1">
  <advance width="600"/>
  <unicode hex="00B2"/>
  <outline>
    <contour>
      <point x="62" y="720" type="line"/>
      <point x="79" y="815" type="line"/>
      <point x="109" y="852"/>
      <point x="190" y="938"/>
      <point x="272" y="1019"/>
      <point x="344" y="1088"/>
      <point x="366" y="1107" type="qcurve"/>
      <point x="408" y="1145"/>
      <point x="455" y="1192"/>
      <point x="479" y="1225"/>
      <point x="488" y="1251"/>
      <point x="493" y="1268" type="qcurve"/>
      <point x="497" y="1283"/>
      <point x="492" y="1318"/>
      <point x="473" y="1347"/>
      <point x="442" y="1368"/>
      <point x="422" y="1370" type="qcurve"/>
      <point x="381" y="1374"/>
      <point x="306" y="1319"/>
      <point x="277" y="1268" type="qcurve"/>
      <point x="168" y="1311" type="line"/>
      <point x="208" y="1399"/>
      <point x="352" y="1483"/>
      <point x="449" y="1478" type="qcurve"/>
      <point x="506" y="1475"/>
      <point x="584" y="1435"/>
      <point x="631" y="1375"/>
      <point x="648" y="1300"/>
      <point x="644" y="1263" type="qcurve"/>
      <point x="639" y="1227"/>
      <point x="601" y="1162"/>
      <point x="550" y="1103"/>
      <point x="494" y="1052"/>
      <point x="472" y="1030" type="qcurve"/>
      <point x="442" y="1000"/>
      <point x="377" y="938"/>
      <point x="318" y="882"/>
      <point x="270" y="835"/>
      <point x="257" y="820" type="qcurve"/>
      <point x="578" y="820" type="line"/>
      <point x="561" y="720" type="line"/>
    </contour>
  </outline>
</glyph>
<glyph name="threesuperior" format="1">
  <advance width="600"/>
  <unicode hex="00B3"/>
  <outline>
    <contour>
      <point x="219" y="1189" type="line"/>
      <point x="244" y="1205"/>
      <point x="321" y="1252"/>
      <point x="404" y="1310"/>
      <point x="479" y="1374"/>
      <point x="502" y="1407" type="qcurve"/>
      <point x="365" y="1370" type="line"/>
      <point x="200" y="1370" type="line"/>
      <point x="228" y="1470" type="line"/>
      <point x="642" y="1470" type="line"/>
      <point x="627" y="1383" type="line"/>
      <point x="606" y="1353"/>
      <point x="536" y="1275"/>
      <point x="494" y="1246" type="qcurve"/>
      <point x="408" y="1204" type="line"/>
      <point x="453" y="1206"/>
      <point x="530" y="1179"/>
      <point x="584" y="1127"/>
      <point x="611" y="1052"/>
      <point x="607" y="1006" type="qcurve"/>
      <point x="600" y="929"/>
      <point x="505" y="821"/>
      <point x="359" y="752"/>
      <point x="176" y="720"/>
      <point x="80" y="720" type="qcurve"/>
      <point x="98" y="820" type="line"/>
      <point x="162" y="820"/>
      <point x="285" y="846"/>
      <point x="381" y="893"/>
      <point x="441" y="960"/>
      <point x="442" y="1001" type="qcurve"/>
      <point x="443" y="1030"/>
      <point x="421" y="1070"/>
      <point x="384" y="1094"/>
      <point x="334" y="1105"/>
      <point x="307" y="1105" type="qcurve"/>
      <point x="299" y="1105"/>
      <point x="271" y="1104"/>
      <point x="239" y="1102"/>
      <point x="211" y="1100"/>
      <point x="204" y="1100" type="qcurve"/>
    </contour>
  </outline>
</glyph>
<glyph name="acute" format="1">
  <advance width="1100"/>
  <unicode hex="00B4"/>
  <outline>
    <contour>
      <point x="800" y="1496" type="line"/>
      <point x="1187" y="1528" type="line"/>
      <point x="837" y="1200" type="line"/>
      <point x="588" y="1200" type="line"/>
    </contour>
  </outline>
</glyph>
<glyph name="mu" format="1">
  <advance width="1300"/>
  <unicode hex="00B5"/>
  <outline>
    <contour>
      <point x="1264" y="51" type="line"/>
      <point x="1229" y="13"/>
      <point x="1121" y="-28"/>
      <point x="1039" y="-17" type="qcurve"/>
      <point x="1006" y="-13"/>
      <point x="943" y="23"/>
      <point x="895" y="78"/>
      <point x="865" y="149"/>
      <point x="865" y="190" type="qcurve"/>
      <point x="797" y="72" type="line"/>
      <point x="749" y="18"/>
      <point x="620" y="-17"/>
      <point x="542" y="-17" type="qcurve"/>
      <point x="522" y="-17"/>
      <point x="466" y="-7"/>
      <point x="410" y="10"/>
      <point x="363" y="30"/>
      <point x="353" y="40" type="qcurve"/>
      <point x="381" y="-166" type="line"/>
      <point x="322" y="-500" type="line"/>
      <point x="24" y="-500" type="line"/>
      <point x="305" y="1093" type="line"/>
      <point x="609" y="1125" type="line"/>
      <point x="474" y="362" type="line"/>
      <point x="466" y="329"/>
      <point x="485" y="274"/>
      <point x="523" y="231"/>
      <point x="570" y="203"/>
      <point x="590" y="199" type="qcurve"/>
      <point x="628" y="191"/>
      <point x="712" y="227"/>
      <point x="747" y="268" type="qcurve"/>
      <point x="892" y="1093" type="line"/>
      <point x="1196" y="1125" type="line"/>
      <point x="1062" y="365" type="line"/>
      <point x="1051" y="321"/>
      <point x="1050" y="264"/>
      <point x="1064" y="227"/>
      <point x="1090" y="206"/>
      <point x="1106" y="199" type="qcurve"/>
      <point x="1124" y="191"/>
      <point x="1169" y="210"/>
      <point x="1196" y="223" type="qcurve"/>
    </contour>
  </outline>
</glyph>
<glyph name="paragraph" format="1">
  <advance width="1400"/>
  <unicode hex="00B6"/>
  <outline>
    <contour>
      <point x="1260" y="1298" type="line"/>
      <point x="1126" y="1298" type="line"/>
      <point x="827" y="-400" type="line"/>
      <point x="568" y="-400" type="line"/>
      <point x="745" y="604" type="line"/>
      <point x="704" y="612"/>
      <point x="618" y="641"/>
      <point x="539" y="690"/>
      <point x="470" y="759"/>
      <point x="422" y="853"/>
      <point x="401" y="974"/>
      <point x="409" y="1050" type="qcurve"/>
      <point x="418" y="1138"/>
      <point x="475" y="1274"/>
      <point x="561" y="1374"/>
      <point x="672" y="1441"/>
      <point x="798" y="1482"/>
      <point x="934" y="1500"/>
      <point x="1003" y="1500" type="qcurve"/>
      <point x="1553" y="1500" type="line"/>
      <point x="1218" y="-400" type="line"/>
      <point x="961" y="-400" type="line"/>
    </contour>
  </outline>
</glyph>
<glyph name="periodcentered" format="1">
  <advance width="500"/>
  <unicode hex="00B7"/>
  <outline>
    <contour>
      <point x="95" y="671" type="qcurve"/>
      <point x="98" y="709"/>
      <point x="138" y="780"/>
      <point x="199" y="832"/>
      <point x="274" y="860"/>
      <point x="311" y="856" type="qcurve"/>
      <point x="387" y="848"/>
      <point x="469" y="748"/>
      <point x="464" y="671" type="qcurve"/>
      <point x="462" y="632"/>
      <point x="422" y="562"/>
      <point x="361" y="509"/>
      <point x="285" y="480"/>
      <point x="248" y="483" type="qcurve"/>
      <point x="209" y="486"/>
      <point x="149" y="517"/>
      <point x="110" y="568"/>
      <point x="92" y="634"/>
    </contour>
  </outline>
</glyph>
<glyph name="cedilla" format="1">
  <advance width="1100"/>
  <unicode hex="00B8"/>
  <outline>
    <contour>
      <point x="561" y="0" type="line"/>
      <point x="583" y="-20"/>
      <point x="599" y="-46" type="qcurve"/>
      <point x="613" y="-69"/>
      <point x="633" y="-131"/>
      <point x="629" y="-171" type="qcurve"/>
      <point x="623" y="-228"/>
      <point x="561" y="-320"/>
      <point x="468" y="-382"/>
      <point x="356" y="-412"/>
      <point x="300" y="-407" type="qcurve"/>
      <point x="241" y="-402"/>
      <point x="130" y="-365"/>
      <point x="87" y="-344" type="qcurve"/>
      <point x="36" y="-319"/>
      <point x="-8" y="-290" type="qcurve"/>
      <point x="134" y="-131" type="line"/>
      <point x="163" y="-149"/>
      <point x="192" y="-163" type="qcurve"/>
      <point x="216" y="-175"/>
      <point x="271" y="-197"/>
      <point x="293" y="-200" type="qcurve"/>
      <point x="324" y="-205"/>
      <point x="370" y="-177"/>
      <point x="367" y="-147" type="qcurve"/>
      <point x="365" y="-126"/>
      <point x="347" y="-79"/>
      <point x="326" y="-37"/>
      <point x="305" y="-6"/>
      <point x="299" y="0" type="qcurve"/>
    </contour>
  </outline>
</glyph>
<glyph name="onesuperior" format="1">
  <advance width="600"/>
  <unicode hex="00B9"/>
  <outline>
    <contour>
      <point x="351" y="1160" type="line"/>
      <point x="420" y="1341" type="line"/>
      <point x="282" y="1206" type="line"/>
      <point x="234" y="1169" type="line"/>
      <point x="172" y="1261" type="line"/>
      <point x="451" y="1482" type="line"/>
      <point x="563" y="1466" type="line"/>
      <point x="449" y="820" type="line"/>
      <point x="570" y="820" type="line"/>
      <point x="553" y="720" type="line"/>
      <point x="152" y="720" type="line"/>
      <point x="169" y="820" type="line"/>
      <point x="291" y="820" type="line"/>
    </contour>
  </outline>
</glyph>
<glyph name="ordmasculine" format="1">
  <advance width="800"/>
  <unicode hex="00BA"/>
  <outline>
    <contour>
      <point x="211" y="800" type="line"/>
      <point x="671" y="800" type="line"/>
      <point x="644" y="650" type="line"/>
      <point x="184" y="650" type="line"/>
    </contour>
    <contour>
      <point x="461" y="922" type="qcurve"/>
      <point x="402" y="927"/>
      <point x="316" y="971"/>
      <point x="263" y="1044"/>
      <point x="242" y="1145"/>
      <point x="248" y="1207" type="qcurve"/>
      <point x="253" y="1269"/>
      <point x="306" y="1376"/>
      <point x="390" y="1454"/>
      <point x="499" y="1494"/>
      <point x="561" y="1489" type="qcurve"/>
      <point x="620" y="1484"/>
      <point x="706" y="1441"/>
      <point x="760" y="1368"/>
      <point x="781" y="1269"/>
      <point x="775" y="1207" type="qcurve"/>
      <point x="772" y="1166"/>
      <point x="745" y="1090"/>
      <point x="702" y="1024"/>
      <point x="646" y="971"/>
      <point x="578" y="935"/>
      <point x="502" y="919"/>
    </contour>
    <contour>
      <point x="617" y="1195" type="qcurve"/>
      <point x="620" y="1230"/>
      <point x="620" y="1293"/>
      <point x="604" y="1343"/>
      <point x="570" y="1375"/>
      <point x="540" y="1379" type="qcurve"/>
      <point x="514" y="1383"/>
      <point x="468" y="1356"/>
      <point x="432" y="1309"/>
      <point x="408" y="1248"/>
      <point x="406" y="1216" type="qcurve"/>
      <point x="403" y="1181"/>
      <point x="404" y="1117"/>
      <point x="420" y="1068"/>
      <point x="453" y="1036"/>
      <point x="482" y="1032" type="qcurve"/>
      <point x="509" y="1029"/>
      <point x="556" y="1056"/>
      <point x="591" y="1103"/>
      <point x="614" y="1164"/>
    </contour>
  </outline>
</glyph>
<glyph name="onehalf" format="1">
  <advance width="1500"/>
  <unicode hex="00BD"/>
  <outline>
    <contour>
      <point x="474" y="0" type="line"/>
      <point x="289" y="0" type="line"/>
      <point x="1064" y="1500" type="line"/>
      <point x="1240" y="1500" type="line"/>
    </contour>
    <contour>
      <point x="369" y="1162" type="line"/>
      <point x="438" y="1343" type="line"/>
      <point x="300" y="1208" type="line"/>
      <point x="252" y="1171" type="line"/>
      <point x="190" y="1263" type="line"/>
      <point x="469" y="1484" type="line"/>
      <point x="581" y="1468" type="line"/>
      <point x="467" y="822" type="line"/>
      <point x="588" y="822" type="line"/>
      <point x="571" y="722" type="line"/>
      <point x="170" y="722" type="line"/>
      <point x="187" y="822" type="line"/>
      <point x="309" y="822" type="line"/>
    </contour>
    <contour>
      <point x="910" y="38" type="line"/>
      <point x="927" y="133" type="line"/>
      <point x="957" y="170"/>
      <point x="1038" y="256"/>
      <point x="1120" y="337"/>
      <point x="1192" y="406"/>
      <point x="1214" y="425" type="qcurve"/>
      <point x="1256" y="463"/>
      <point x="1303" y="510"/>
      <point x="1327" y="543"/>
      <point x="1336" y="569"/>
      <point x="1341" y="586" type="qcurve"/>
      <point x="1345" y="601"/>
      <point x="1340" y="636"/>
      <point x="1321" y="665"/>
      <point x="1290" y="686"/>
      <point x="1270" y="688" type="qcurve"/>
      <point x="1229" y="692"/>
      <point x="1154" y="637"/>
      <point x="1125" y="586" type="qcurve"/>
      <point x="1016" y="629" type="line"/>
      <point x="1056" y="717"/>
      <point x="1200" y="801"/>
      <point x="1297" y="796" type="qcurve"/>
      <point x="1354" y="793"/>
      <point x="1432" y="753"/>
      <point x="1479" y="693"/>
      <point x="1496" y="618"/>
      <point x="1492" y="581" type="qcurve"/>
      <point x="1487" y="545"/>
      <point x="1449" y="480"/>
      <point x="1398" y="421"/>
      <point x="1342" y="370"/>
      <point x="1320" y="348" type="qcurve"/>
      <point x="1290" y="318"/>
      <point x="1225" y="256"/>
      <point x="1166" y="200"/>
      <point x="1118" y="153"/>
      <point x="1105" y="138" type="qcurve"/>
      <point x="1426" y="138" type="line"/>
      <point x="1409" y="38" type="line"/>
    </contour>
  </outline>
</glyph>
<glyph name="questiondown" format="1">
  <advance width="1100"/>
  <unicode hex="00BF"/>
  <outline>
    <contour>
      <point x="276" y="-22" type="qcurve"/>
      <point x="280" y="39"/>
      <point x="332" y="143"/>
      <point x="413" y="231"/>
      <point x="516" y="305"/>
      <point x="571" y="337" type="qcurve"/>
      <point x="613" y="361"/>
      <point x="684" y="421"/>
      <point x="741" y="500"/>
      <point x="782" y="602"/>
      <point x="793" y="668" type="qcurve"/>
      <point x="1110" y="703" type="line"/>
      <point x="1086" y="514"/>
      <point x="918" y="246"/>
      <point x="765" y="160" type="qcurve"/>
      <point x="734" y="143"/>
      <point x="681" y="104"/>
      <point x="641" y="59"/>
      <point x="617" y="4"/>
      <point x="616" y="-30" type="qcurve"/>
      <point x="615" y="-70"/>
      <point x="639" y="-125"/>
      <point x="680" y="-161"/>
      <point x="735" y="-178"/>
      <point x="765" y="-181" type="qcurve"/>
      <point x="795" y="-184"/>
      <point x="870" y="-174"/>
      <point x="957" y="-139"/>
      <point x="1052" y="-71"/>
      <point x="1100" y="-15" type="qcurve"/>
      <point x="1255" y="-166" type="line"/>
      <point x="1178" y="-253"/>
      <point x="1032" y="-353"/>
      <point x="894" y="-402"/>
      <point x="763" y="-415"/>
      <point x="700" y="-415" type="qcurve"/>
      <point x="614" y="-415"/>
      <point x="455" y="-369"/>
      <point x="335" y="-272"/>
      <point x="269" y="-124"/>
    </contour>
    <contour>
      <point x="1109" y="965" type="qcurve"/>
      <point x="1107" y="935"/>
      <point x="1075" y="878"/>
      <point x="1026" y="836"/>
      <point x="966" y="814"/>
      <point x="936" y="817" type="qcurve"/>
      <point x="876" y="824"/>
      <point x="810" y="904"/>
      <point x="814" y="965" type="qcurve"/>
      <point x="816" y="996"/>
      <point x="848" y="1052"/>
      <point x="897" y="1094"/>
      <point x="957" y="1118"/>
      <point x="987" y="1116" type="qcurve"/>
      <point x="1018" y="1114"/>
      <point x="1066" y="1088"/>
      <point x="1097" y="1048"/>
      <point x="1111" y="995"/>
    </contour>
  </outline>
</glyph>
<glyph name="Aacute" format="1">
  <advance width="1300"/>
  <unicode hex="00C1"/>
  <outline>
    <contour>
      <point x="20" y="0" type="line"/>
      <point x="644" y="1284" type="line"/>
      <point x="716" y="1494" type="line"/>
      <point x="1071" y="1525" type="line"/>
      <point x="1282" y="0" type="line"/>
      <point x="955" y="0" type="line"/>
      <point x="914" y="427" type="line"/>
      <point x="522" y="427" type="line"/>
      <point x="334" y="0" type="line"/>
    </contour>
    <contour>
      <point x="882" y="1361" type="line"/>
      <point x="764" y="990" type="line"/>
      <point x="619" y="646" type="line"/>
      <point x="893" y="646" type="line"/>
      <point x="869" y="990" type="line"/>
    </contour>
    <contour>
      <point x="1003" y="1896" type="line"/>
      <point x="1390" y="1928" type="line"/>
      <point x="1040" y="1600" type="line"/>
      <point x="791" y="1600" type="line"/>
    </contour>
  </outline>
</glyph>
<glyph name="Acircumflex" format="1">
  <advance width="1300"/>
  <unicode hex="00C2"/>
  <outline>
    <contour>
      <point x="20" y="0" type="line"/>
      <point x="644" y="1284" type="line"/>
      <point x="716" y="1494" type="line"/>
      <point x="1071" y="1525" type="line"/>
      <point x="1282" y="0" type="line"/>
      <point x="955" y="0" type="line"/>
      <point x="914" y="427" type="line"/>
      <point x="522" y="427" type="line"/>
      <point x="334" y="0" type="line"/>
    </contour>
    <contour>
      <point x="882" y="1361" type="line"/>
      <point x="764" y="990" type="line"/>
      <point x="619" y="646" type="line"/>
      <point x="893" y="646" type="line"/>
      <point x="869" y="990" type="line"/>
    </contour>
    <contour>
      <point x="1244" y="1620" type="line"/>
      <point x="1029" y="1620" type="line"/>
      <point x="977" y="1723" type="line"/>
      <point x="969" y="1850" type="line"/>
      <point x="917" y="1723" type="line"/>
      <point x="818" y="1620" type="line"/>
      <point x="588" y="1620" type="line"/>
      <point x="809" y="1895" type="line"/>
      <point x="1110" y="1924" type="line"/>
    </contour>
  </outline>
</glyph>
<glyph name="Adieresis" format="1">
  <advance width="1300"/>
  <unicode hex="00C4"/>
  <outline>
    <contour>
      <point x="20" y="0" type="line"/>
      <point x="644" y="1284" type="line"/>
      <point x="716" y="1494" type="line"/>
      <point x="1071" y="1525" type="line"/>
      <point x="1282" y="0" type="line"/>
      <point x="955" y="0" type="line"/>
      <point x="914" y="427" type="line"/>
      <point x="522" y="427" type="line"/>
      <point x="334" y="0" type="line"/>
    </contour>
    <contour>
      <point x="882" y="1361" type="line"/>
      <point x="764" y="990" type="line"/>
      <point x="619" y="646" type="line"/>
      <point x="893" y="646" type="line"/>
      <point x="869" y="990" type="line"/>
    </contour>
    <contour>
      <point x="560" y="1634" type="line"/>
      <point x="836" y="1634" type="line"/>
      <point x="883" y="1900" type="line"/>
      <point x="607" y="1900" type="line"/>
    </contour>
    <contour>
      <point x="960" y="1634" type="line"/>
      <point x="1236" y="1634" type="line"/>
      <point x="1283" y="1900" type="line"/>
      <point x="1007" y="1900" type="line"/>
    </contour>
  </outline>
</glyph>
<glyph name="Ccedilla" format="1">
  <advance width="1300"/>
  <unicode hex="00C7"/>
  <outline>
    <contour>
      <point x="1177" y="133" type="line"/>
      <point x="1067" y="42"/>
      <point x="829" y="-29"/>
      <point x="695" y="-17" type="qcurve"/>
      <point x="544" y="-4"/>
      <point x="335" y="120"/>
      <point x="210" y="324"/>
      <point x="168" y="602"/>
      <point x="184" y="769" type="qcurve"/>
      <point x="194" y="871"/>
      <point x="254" y="1064"/>
      <point x="353" y="1233"/>
      <point x="489" y="1374"/>
      <point x="661" y="1472"/>
      <point x="867" y="1522"/>
      <point x="986" y="1517" type="qcurve"/>
      <point x="1050" y="1514"/>
      <point x="1171" y="1490"/>
      <point x="1279" y="1448"/>
      <point x="1371" y="1386"/>
      <point x="1407" y="1344" type="qcurve"/>
      <point x="1229" y="1170" type="line"/>
      <point x="1190" y="1201"/>
      <point x="1122" y="1243"/>
      <point x="1059" y="1268"/>
      <point x="995" y="1279"/>
      <point x="960" y="1280" type="qcurve"/>
      <point x="866" y="1282"/>
      <point x="712" y="1203"/>
      <point x="599" y="1064"/>
      <point x="529" y="878"/>
      <point x="520" y="772" type="qcurve"/>
      <point x="514" y="710"/>
      <point x="513" y="584"/>
      <point x="528" y="465"/>
      <point x="561" y="359"/>
      <point x="618" y="278"/>
      <point x="702" y="226"/>
      <point x="760" y="221" type="qcurve"/>
      <point x="829" y="215"/>
      <point x="995" y="263"/>
      <point x="1092" y="328" type="qcurve"/>
    </contour>
    <contour>
      <point x="865" y="0" type="line"/>
      <point x="887" y="-20"/>
      <point x="903" y="-46" type="qcurve"/>
      <point x="917" y="-69"/>
      <point x="937" y="-131"/>
      <point x="933" y="-171" type="qcurve"/>
      <point x="927" y="-228"/>
      <point x="865" y="-320"/>
      <point x="772" y="-382"/>
      <point x="660" y="-412"/>
      <point x="604" y="-407" type="qcurve"/>
      <point x="545" y="-402"/>
      <point x="434" y="-365"/>
      <point x="391" y="-344" type="qcurve"/>
      <point x="340" y="-319"/>
      <point x="296" y="-290" type="qcurve"/>
      <point x="438" y="-131" type="line"/>
      <point x="467" y="-149"/>
      <point x="496" y="-163" type="qcurve"/>
      <point x="520" y="-175"/>
      <point x="575" y="-197"/>
      <point x="597" y="-200" type="qcurve"/>
      <point x="628" y="-205"/>
      <point x="674" y="-177"/>
      <point x="671" y="-147" type="qcurve"/>
      <point x="669" y="-126"/>
      <point x="651" y="-79"/>
      <point x="630" y="-37"/>
      <point x="609" y="-6"/>
      <point x="603" y="0" type="qcurve"/>
    </contour>
  </outline>
</glyph>
<glyph name="Egrave" format="1">
  <advance width="1200"/>
  <unicode hex="00C8"/>
  <outline>
    <contour>
      <point x="1127" y="228" type="line"/>
      <point x="1060" y="0" type="line"/>
      <point x="118" y="0" type="line"/>
      <point x="175" y="231" type="line"/>
      <point x="357" y="1263" type="line"/>
      <point x="364" y="1500" type="line"/>
      <point x="1314" y="1500" type="line"/>
      <point x="1274" y="1272" type="line"/>
      <point x="680" y="1272" type="line"/>
      <point x="670" y="1134" type="line"/>
      <point x="632" y="916" type="line"/>
      <point x="1145" y="916" type="line"/>
      <point x="1107" y="703" type="line"/>
      <point x="594" y="703" type="line"/>
      <point x="534" y="360" type="line"/>
      <point x="503" y="228" type="line"/>
    </contour>
    <contour>
      <point x="1000" y="1600" type="line"/>
      <point x="742" y="1600" type="line"/>
      <point x="529" y="1891" type="line"/>
      <point x="882" y="1925" type="line"/>
    </contour>
  </outline>
</glyph>
<glyph name="Eacute" format="1">
  <advance width="1200"/>
  <unicode hex="00C9"/>
  <outline>
    <contour>
      <point x="1127" y="228" type="line"/>
      <point x="1060" y="0" type="line"/>
      <point x="118" y="0" type="line"/>
      <point x="175" y="231" type="line"/>
      <point x="357" y="1263" type="line"/>
      <point x="364" y="1500" type="line"/>
      <point x="1314" y="1500" type="line"/>
      <point x="1274" y="1272" type="line"/>
      <point x="680" y="1272" type="line"/>
      <point x="670" y="1134" type="line"/>
      <point x="632" y="916" type="line"/>
      <point x="1145" y="916" type="line"/>
      <point x="1107" y="703" type="line"/>
      <point x="594" y="703" type="line"/>
      <point x="534" y="360" type="line"/>
      <point x="503" y="228" type="line"/>
    </contour>
    <contour>
      <point x="850" y="1896" type="line"/>
      <point x="1237" y="1928" type="line"/>
      <point x="887" y="1600" type="line"/>
      <point x="638" y="1600" type="line"/>
    </contour>
  </outline>
</glyph>
<glyph name="Ecircumflex" format="1">
  <advance width="1200"/>
  <unicode hex="00CA"/>
  <outline>
    <contour>
      <point x="1127" y="228" type="line"/>
      <point x="1060" y="0" type="line"/>
      <point x="118" y="0" type="line"/>
      <point x="175" y="231" type="line"/>
      <point x="357" y="1263" type="line"/>
      <point x="364" y="1500" type="line"/>
      <point x="1314" y="1500" type="line"/>
      <point x="1274" y="1272" type="line"/>
      <point x="680" y="1272" type="line"/>
      <point x="670" y="1134" type="line"/>
      <point x="632" y="916" type="line"/>
      <point x="1145" y="916" type="line"/>
      <point x="1107" y="703" type="line"/>
      <point x="594" y="703" type="line"/>
      <point x="534" y="360" type="line"/>
      <point x="503" y="228" type="line"/>
    </contour>
    <contour>
      <point x="1180" y="1620" type="line"/>
      <point x="965" y="1620" type="line"/>
      <point x="913" y="1723" type="line"/>
      <point x="905" y="1850" type="line"/>
      <point x="853" y="1723" type="line"/>
      <point x="754" y="1620" type="line"/>
      <point x="524" y="1620" type="line"/>
      <point x="745" y="1895" type="line"/>
      <point x="1046" y="1924" type="line"/>
    </contour>
  </outline>
</glyph>
<glyph name="Edieresis" format="1">
  <advance width="1200"/>
  <unicode hex="00CB"/>
  <outline>
    <contour>
      <point x="1127" y="228" type="line"/>
      <point x="1060" y="0" type="line"/>
      <point x="118" y="0" type="line"/>
      <point x="175" y="231" type="line"/>
      <point x="357" y="1263" type="line"/>
      <point x="364" y="1500" type="line"/>
      <point x="1314" y="1500" type="line"/>
      <point x="1274" y="1272" type="line"/>
      <point x="680" y="1272" type="line"/>
      <point x="670" y="1134" type="line"/>
      <point x="632" y="916" type="line"/>
      <point x="1145" y="916" type="line"/>
      <point x="1107" y="703" type="line"/>
      <point x="594" y="703" type="line"/>
      <point x="534" y="360" type="line"/>
      <point x="503" y="228" type="line"/>
    </contour>
    <contour>
      <point x="490" y="1634" type="line"/>
      <point x="766" y="1634" type="line"/>
      <point x="813" y="1900" type="line"/>
      <point x="537" y="1900" type="line"/>
    </contour>
    <contour>
      <point x="890" y="1634" type="line"/>
      <point x="1166" y="1634" type="line"/>
      <point x="1213" y="1900" type="line"/>
      <point x="937" y="1900" type="line"/>
    </contour>
  </outline>
</glyph>
<glyph name="Iacute" format="1">
  <advance width="600"/>
  <unicode hex="00CD"/>
  <outline>
    <contour>
      <point x="126" y="0" type="line"/>
      <point x="348" y="1263" type="line"/>
      <point x="356" y="1494" type="line"/>
      <point x="731" y="1525" type="line"/>
      <point x="463" y="0" type="line"/>
    </contour>
    <contour>
      <point x="643" y="1896" type="line"/>
      <point x="1030" y="1928" type="line"/>
      <point x="680" y="1600" type="line"/>
      <point x="431" y="1600" type="line"/>
    </contour>
  </outline>
</glyph>
<glyph name="Eth" format="1">
  <advance width="1300"/>
  <unicode hex="00D0"/>
  <outline>
    <contour>
      <point x="171" y="888" type="line"/>
      <point x="301" y="888" type="line"/>
      <point x="367" y="1263" type="line"/>
      <point x="374" y="1493" type="line"/>
      <point x="423" y="1498"/>
      <point x="530" y="1504"/>
      <point x="632" y="1508"/>
      <point x="723" y="1510"/>
      <point x="756" y="1510" type="qcurve"/>
      <point x="924" y="1510"/>
      <point x="1180" y="1433"/>
      <point x="1346" y="1264"/>
      <point x="1416" y="997"/>
      <point x="1398" y="807" type="qcurve"/>
      <point x="1384" y="655"/>
      <point x="1301" y="418"/>
      <point x="1174" y="238"/>
      <point x="1009" y="113"/>
      <point x="815" y="35"/>
      <point x="597" y="0"/>
      <point x="482" y="0" type="qcurve"/>
      <point x="145" y="0" type="line"/>
      <point x="262" y="665" type="line"/>
      <point x="132" y="665" type="line"/>
    </contour>
    <contour>
      <point x="709" y="1289" type="qcurve"/>
      <point x="704" y="1289"/>
      <point x="693" y="1289"/>
      <point x="687" y="1288" type="qcurve"/>
      <point x="679" y="1127" type="line"/>
      <point x="637" y="888" type="line"/>
      <point x="817" y="888" type="line"/>
      <point x="778" y="665" type="line"/>
      <point x="598" y="665" type="line"/>
      <point x="521" y="230" type="line"/>
      <point x="636" y="234"/>
      <point x="801" y="290"/>
      <point x="916" y="378"/>
      <point x="988" y="489"/>
      <point x="1030" y="608"/>
      <point x="1049" y="726"/>
      <point x="1055" y="778" type="qcurve"/>
      <point x="1068" y="892"/>
      <point x="1058" y="1080"/>
      <point x="985" y="1215"/>
      <point x="836" y="1289"/>
    </contour>
  </outline>
</glyph>
<glyph name="Ocircumflex" format="1">
  <advance width="1600"/>
  <unicode hex="00D4"/>
  <outline>
    <contour>
      <point x="777" y="-17" type="qcurve"/>
      <point x="624" y="-11"/>
      <point x="394" y="104"/>
      <point x="248" y="304"/>
      <point x="190" y="581"/>
      <point x="209" y="750" type="qcurve"/>
      <point x="221" y="861"/>
      <point x="293" y="1065"/>
      <point x="405" y="1241"/>
      <point x="553" y="1382"/>
      <point x="731" y="1479"/>
      <point x="935" y="1525"/>
      <point x="1047" y="1517" type="qcurve"/>
      <point x="1206" y="1506"/>
      <point x="1436" y="1393"/>
      <point x="1578" y="1197"/>
      <point x="1632" y="922"/>
      <point x="1614" y="750" type="qcurve"/>
      <point x="1596" y="581"/>
      <point x="1459" y="294"/>
      <point x="1240" y="87"/>
      <point x="949" y="-24"/>
    </contour>
    <contour>
      <point x="1275" y="721" type="qcurve"/>
      <point x="1284" y="830"/>
      <point x="1276" y="1021"/>
      <point x="1218" y="1168"/>
      <point x="1099" y="1260"/>
      <point x="997" y="1269" type="qcurve"/>
      <point x="903" y="1277"/>
      <point x="747" y="1199"/>
      <point x="632" y="1060"/>
      <point x="560" y="878"/>
      <point x="549" y="783" type="qcurve"/>
      <point x="537" y="677"/>
      <point x="545" y="487"/>
      <point x="604" y="340"/>
      <point x="724" y="244"/>
      <point x="825" y="231" type="qcurve"/>
      <point x="887" y="223"/>
      <point x="998" y="255"/>
      <point x="1095" y="321"/>
      <point x="1174" y="418"/>
      <point x="1233" y="532"/>
      <point x="1270" y="658"/>
    </contour>
    <contour>
      <point x="1384" y="1620" type="line"/>
      <point x="1169" y="1620" type="line"/>
      <point x="1117" y="1723" type="line"/>
      <point x="1109" y="1850" type="line"/>
      <point x="1057" y="1723" type="line"/>
      <point x="958" y="1620" type="line"/>
      <point x="728" y="1620" type="line"/>
      <point x="949" y="1895" type="line"/>
      <point x="1250" y="1924" type="line"/>
    </contour>
  </outline>
</glyph>
<glyph name="Odieresis" format="1">
  <advance width="1600"/>
  <unicode hex="00D6"/>
  <outline>
    <contour>
      <point x="777" y="-17" type="qcurve"/>
      <point x="624" y="-11"/>
      <point x="394" y="104"/>
      <point x="248" y="304"/>
      <point x="190" y="581"/>
      <point x="209" y="750" type="qcurve"/>
      <point x="221" y="861"/>
      <point x="293" y="1065"/>
      <point x="405" y="1241"/>
      <point x="553" y="1382"/>
      <point x="731" y="1479"/>
      <point x="935" y="1525"/>
      <point x="1047" y="1517" type="qcurve"/>
      <point x="1206" y="1506"/>
      <point x="1436" y="1393"/>
      <point x="1578" y="1197"/>
      <point x="1632" y="922"/>
      <point x="1614" y="750" type="qcurve"/>
      <point x="1596" y="581"/>
      <point x="1459" y="294"/>
      <point x="1240" y="87"/>
      <point x="949" y="-24"/>
    </contour>
    <contour>
      <point x="1275" y="721" type="qcurve"/>
      <point x="1284" y="830"/>
      <point x="1276" y="1021"/>
      <point x="1218" y="1168"/>
      <point x="1099" y="1260"/>
      <point x="997" y="1269" type="qcurve"/>
      <point x="903" y="1277"/>
      <point x="747" y="1199"/>
      <point x="632" y="1060"/>
      <point x="560" y="878"/>
      <point x="549" y="783" type="qcurve"/>
      <point x="537" y="677"/>
      <point x="545" y="487"/>
      <point x="604" y="340"/>
      <point x="724" y="244"/>
      <point x="825" y="231" type="qcurve"/>
      <point x="887" y="223"/>
      <point x="998" y="255"/>
      <point x="1095" y="321"/>
      <point x="1174" y="418"/>
      <point x="1233" y="532"/>
      <point x="1270" y="658"/>
    </contour>
    <contour>
      <point x="727" y="1634" type="line"/>
      <point x="1003" y="1634" type="line"/>
      <point x="1050" y="1900" type="line"/>
      <point x="774" y="1900" type="line"/>
    </contour>
    <contour>
      <point x="1127" y="1634" type="line"/>
      <point x="1403" y="1634" type="line"/>
      <point x="1450" y="1900" type="line"/>
      <point x="1174" y="1900" type="line"/>
    </contour>
  </outline>
</glyph>
<glyph name="Ucircumflex" format="1">
  <advance width="1400"/>
  <unicode hex="00DB"/>
  <outline>
    <contour>
      <point x="1499" y="1500" type="line"/>
      <point x="1329" y="534" type="line"/>
      <point x="1307" y="390"/>
      <point x="1188" y="174"/>
      <point x="1012" y="33"/>
      <point x="790" y="-29"/>
      <point x="664" y="-17" type="qcurve"/>
      <point x="531" y="-5"/>
      <point x="344" y="91"/>
      <point x="235" y="247"/>
      <point x="204" y="456"/>
      <point x="228" y="582" type="qcurve"/>
      <point x="348" y="1263" type="line"/>
      <point x="356" y="1494" type="line"/>
      <point x="727" y="1526" type="line"/>
      <point x="557" y="564" type="line"/>
      <point x="540" y="492"/>
      <point x="549" y="373"/>
      <point x="591" y="283"/>
      <point x="665" y="228"/>
      <point x="714" y="221" type="qcurve"/>
      <point x="768" y="213"/>
      <point x="862" y="248"/>
      <point x="935" y="325"/>
      <point x="984" y="442"/>
      <point x="994" y="516" type="qcurve"/>
      <point x="1168" y="1500" type="line"/>
    </contour>
    <contour>
      <point x="1288" y="1620" type="line"/>
      <point x="1073" y="1620" type="line"/>
      <point x="1021" y="1723" type="line"/>
      <point x="1013" y="1850" type="line"/>
      <point x="961" y="1723" type="line"/>
      <point x="862" y="1620" type="line"/>
      <point x="632" y="1620" type="line"/>
      <point x="853" y="1895" type="line"/>
      <point x="1154" y="1924" type="line"/>
    </contour>
  </outline>
</glyph>
<glyph name="Yacute" format="1">
  <advance width="1200"/>
  <unicode hex="00DD"/>
  <outline>
    <contour>
      <point x="711" y="1143" type="line"/>
      <point x="753" y="773" type="line"/>
      <point x="876" y="1143" type="line"/>
      <point x="1121" y="1500" type="line"/>
      <point x="1451" y="1500" type="line"/>
      <point x="868" y="650" type="line"/>
      <point x="754" y="0" type="line"/>
      <point x="418" y="0" type="line"/>
      <point x="532" y="650" type="line"/>
      <point x="252" y="1492" type="line"/>
      <point x="586" y="1525" type="line"/>
    </contour>
    <contour>
      <point x="950" y="1896" type="line"/>
      <point x="1337" y="1928" type="line"/>
      <point x="987" y="1600" type="line"/>
      <point x="738" y="1600" type="line"/>
    </contour>
  </outline>
</glyph>
<glyph name="aring" format="1">
  <advance width="1100"/>
  <unicode hex="00E5"/>
  <outline>
    <contour>
      <point x="839" y="885" type="line"/>
      <point x="819" y="888"/>
      <point x="785" y="892"/>
      <point x="778" y="893" type="qcurve"/>
      <point x="703" y="893"/>
      <point x="588" y="831"/>
      <point x="506" y="727"/>
      <point x="457" y="588"/>
      <point x="449" y="510" type="qcurve"/>
      <point x="443" y="449"/>
      <point x="448" y="340"/>
      <point x="470" y="257"/>
      <point x="511" y="209"/>
      <point x="540" y="209" type="qcurve"/>
      <point x="574" y="209"/>
      <point x="635" y="232"/>
      <point x="688" y="268"/>
      <point x="729" y="310"/>
      <point x="744" y="329" type="qcurve"/>
    </contour>
    <contour>
      <point x="483" y="-16" type="qcurve"/>
      <point x="406" y="-15"/>
      <point x="292" y="32"/>
      <point x="211" y="112"/>
      <point x="162" y="219"/>
      <point x="139" y="342"/>
      <point x="138" y="476"/>
      <point x="147" y="542" type="qcurve"/>
      <point x="156" y="614"/>
      <point x="204" y="756"/>
      <point x="283" y="884"/>
      <point x="392" y="993"/>
      <point x="533" y="1072"/>
      <point x="708" y="1117"/>
      <point x="812" y="1117" type="qcurve"/>
      <point x="873" y="1116"/>
      <point x="935" y="1108" type="qcurve"/>
      <point x="989" y="1101"/>
      <point x="1115" y="1071"/>
      <point x="1173" y="1043" type="qcurve"/>
      <point x="1030" y="209" type="line"/>
      <point x="1016" y="0" type="line"/>
      <point x="694" y="0" type="line"/>
      <point x="722" y="162" type="line"/>
      <point x="567" y="-10" type="line"/>
      <point x="556" y="-12"/>
      <point x="520" y="-17"/>
    </contour>
    <contour>
      <point x="807" y="1612" type="qcurve"/>
      <point x="869" y="1605"/>
      <point x="971" y="1559"/>
      <point x="1041" y="1485"/>
      <point x="1075" y="1386"/>
      <point x="1069" y="1326" type="qcurve"/>
      <point x="1063" y="1267"/>
      <point x="997" y="1157"/>
      <point x="896" y="1075"/>
      <point x="771" y="1031"/>
      <point x="706" y="1040" type="qcurve"/>
      <point x="569" y="1058"/>
      <point x="437" y="1208"/>
      <point x="442" y="1326" type="qcurve"/>
      <point x="444" y="1386"/>
      <point x="510" y="1496"/>
      <point x="614" y="1577"/>
      <point x="742" y="1619"/>
    </contour>
    <contour>
      <point x="776" y="1422" type="qcurve"/>
      <point x="754" y="1424"/>
      <point x="710" y="1410"/>
      <point x="675" y="1383"/>
      <point x="653" y="1346"/>
      <point x="652" y="1325" type="qcurve"/>
      <point x="651" y="1284"/>
      <point x="695" y="1234"/>
      <point x="743" y="1227" type="qcurve"/>
      <point x="764" y="1224"/>
      <point x="806" y="1239"/>
      <point x="841" y="1267"/>
      <point x="863" y="1305"/>
      <point x="865" y="1325" type="qcurve"/>
      <point x="869" y="1367"/>
      <point x="820" y="1417"/>
    </contour>
  </outline>
</glyph>
<glyph name="ae" format="1">
  <advance width="1700"/>
  <unicode hex="00E6"/>
  <outline>
    <contour>
      <point x="1314" y="1116" type="qcurve"/>
      <point x="1409" y="1111"/>
      <point x="1548" y="1057"/>
      <point x="1642" y="968"/>
      <point x="1691" y="849"/>
      <point x="1700" y="708"/>
      <point x="1671" y="549"/>
      <point x="1639" y="466" type="qcurve"/>
      <point x="985" y="466" type="line"/>
      <point x="987" y="355"/>
      <point x="1094" y="214"/>
      <point x="1201" y="200" type="qcurve"/>
      <point x="1235" y="195"/>
      <point x="1301" y="208"/>
      <point x="1366" y="235"/>
      <point x="1429" y="272"/>
      <point x="1460" y="292" type="qcurve"/>
      <point x="1589" y="157" type="line"/>
      <point x="1544" y="108"/>
      <point x="1449" y="38"/>
      <point x="1340" y="-4"/>
      <point x="1214" y="-21"/>
      <point x="1139" y="-17" type="qcurve"/>
      <point x="1103" y="-15"/>
      <point x="1025" y="0"/>
      <point x="952" y="25"/>
      <point x="886" y="57"/>
      <point x="862" y="75" type="qcurve"/>
      <point x="825" y="200" type="line"/>
      <point x="788" y="100" type="line"/>
      <point x="762" y="77"/>
      <point x="688" y="32"/>
      <point x="598" y="-3"/>
      <point x="495" y="-21"/>
      <point x="441" y="-17" type="qcurve"/>
      <point x="355" y="-11"/>
      <point x="224" y="40"/>
      <point x="138" y="131"/>
      <point x="100" y="266"/>
      <point x="107" y="358" type="qcurve"/>
      <point x="114" y="455"/>
      <point x="210" y="597"/>
      <point x="350" y="688"/>
      <point x="518" y="730"/>
      <point x="599" y="726" type="qcurve"/>
      <point x="642" y="724"/>
      <point x="712" y="719"/>
      <point x="740" y="714" type="qcurve"/>
      <point x="746" y="754"/>
      <point x="748" y="821"/>
      <point x="731" y="869"/>
      <point x="692" y="898"/>
      <point x="657" y="900" type="qcurve"/>
      <point x="598" y="904"/>
      <point x="487" y="885"/>
      <point x="442" y="872" type="qcurve"/>
      <point x="390" y="857"/>
      <point x="344" y="837" type="qcurve"/>
      <point x="273" y="1021" type="line"/>
      <point x="335" y="1051"/>
      <point x="405" y="1073" type="qcurve"/>
      <point x="465" y="1092"/>
      <point x="620" y="1121"/>
      <point x="704" y="1117" type="qcurve"/>
      <point x="819" y="1112"/>
      <point x="958" y="1062"/>
      <point x="999" y="1019" type="qcurve"/>
      <point x="1031" y="1040"/>
      <point x="1102" y="1078"/>
      <point x="1181" y="1105"/>
      <point x="1267" y="1119"/>
    </contour>
    <contour>
      <point x="706" y="516" type="line"/>
      <point x="683" y="519"/>
      <point x="630" y="523"/>
      <point x="600" y="523" type="qcurve"/>
      <point x="553" y="523"/>
      <point x="474" y="504"/>
      <point x="415" y="464"/>
      <point x="380" y="402"/>
      <point x="378" y="359" type="qcurve"/>
      <point x="374" y="290"/>
      <point x="432" y="205"/>
      <point x="486" y="198" type="qcurve"/>
      <point x="524" y="193"/>
      <point x="588" y="221"/>
      <point x="613" y="239" type="qcurve"/>
      <point x="641" y="260"/>
      <point x="666" y="289" type="qcurve"/>
    </contour>
    <contour>
      <point x="1145" y="671" type="line"/>
      <point x="1428" y="671" type="line"/>
      <point x="1431" y="711"/>
      <point x="1426" y="789"/>
      <point x="1397" y="852"/>
      <point x="1339" y="896"/>
      <point x="1291" y="903" type="qcurve"/>
      <point x="1249" y="909"/>
      <point x="1179" y="886"/>
      <point x="1124" y="843"/>
      <point x="1086" y="785"/>
      <point x="1078" y="756" type="qcurve"/>
      <point x="969" y="653" type="line"/>
    </contour>
  </outline>
</glyph>
<glyph name="igrave" format="1">
  <advance width="600"/>
  <unicode hex="00EC"/>
  <outline>
    <contour>
      <point x="442" y="0" type="line"/>
      <point x="136" y="0" type="line"/>
      <point x="320" y="1049" type="line"/>
      <point x="632" y="1081" type="line"/>
    </contour>
    <contour>
      <point x="609" y="1237" type="line"/>
      <point x="351" y="1237" type="line"/>
      <point x="138" y="1528" type="line"/>
      <point x="491" y="1562" type="line"/>
    </contour>
  </outline>
</glyph>
<glyph name="iacute" format="1">
  <advance width="600"/>
  <unicode hex="00ED"/>
  <outline>
    <contour>
      <point x="442" y="0" type="line"/>
      <point x="136" y="0" type="line"/>
      <point x="320" y="1049" type="line"/>
      <point x="632" y="1081" type="line"/>
    </contour>
    <contour>
      <point x="601" y="1533" type="line"/>
      <point x="988" y="1565" type="line"/>
      <point x="638" y="1237" type="line"/>
      <point x="389" y="1237" type="line"/>
    </contour>
  </outline>
</glyph>
<glyph name="idieresis" format="1">
  <advance width="600"/>
  <unicode hex="00EF"/>
  <outline>
    <contour>
      <point x="442" y="0" type="line"/>
      <point x="136" y="0" type="line"/>
      <point x="320" y="1049" type="line"/>
      <point x="632" y="1081" type="line"/>
    </contour>
    <contour>
      <point x="217" y="1537" type="line"/>
      <point x="493" y="1537" type="line"/>
      <point x="446" y="1271" type="line"/>
      <point x="170" y="1271" type="line"/>
    </contour>
    <contour>
      <point x="617" y="1537" type="line"/>
      <point x="893" y="1537" type="line"/>
      <point x="846" y="1271" type="line"/>
      <point x="570" y="1271" type="line"/>
    </contour>
  </outline>
</glyph>
<glyph name="eth" format="1">
  <advance width="1300"/>
  <unicode hex="00F0"/>
  <outline>
    <contour>
      <point x="554" y="1154" type="line"/>
      <point x="785" y="1320" type="line"/>
      <point x="637" y="1296" type="line"/>
      <point x="597" y="1310"/>
      <point x="560" y="1310" type="qcurve"/>
      <point x="533" y="1310"/>
      <point x="482" y="1305"/>
      <point x="459" y="1300" type="qcurve"/>
      <point x="459" y="1508" type="line"/>
      <point x="492" y="1511"/>
      <point x="537" y="1515"/>
      <point x="568" y="1517"/>
      <point x="589" y="1517"/>
      <point x="598" y="1517" type="qcurve"/>
      <point x="698" y="1517"/>
      <point x="866" y="1473"/>
      <point x="934" y="1433" type="qcurve"/>
      <point x="1106" y="1561" type="line"/>
      <point x="1216" y="1395" type="line"/>
      <point x="1004" y="1239" type="line"/>
      <point x="1119" y="1239" type="line"/>
      <point x="1148" y="1174"/>
      <point x="1194" y="1026"/>
      <point x="1220" y="866"/>
      <point x="1225" y="697"/>
      <point x="1214" y="612" type="qcurve"/>
      <point x="1205" y="546"/>
      <point x="1163" y="396"/>
      <point x="1092" y="249"/>
      <point x="991" y="116"/>
      <point x="858" y="20"/>
      <point x="689" y="-28"/>
      <point x="586" y="-17" type="qcurve"/>
      <point x="469" y="-4"/>
      <point x="309" y="76"/>
      <point x="216" y="203"/>
      <point x="185" y="371"/>
      <point x="195" y="472" type="qcurve"/>
      <point x="206" y="585"/>
      <point x="283" y="763"/>
      <point x="417" y="884"/>
      <point x="607" y="942"/>
      <point x="732" y="936" type="qcurve"/>
      <point x="780" y="934"/>
      <point x="874" y="922"/>
      <point x="919" y="904" type="qcurve"/>
      <point x="920" y="929"/>
      <point x="913" y="988"/>
      <point x="896" y="1048"/>
      <point x="868" y="1104"/>
      <point x="850" y="1126" type="qcurve"/>
      <point x="669" y="993" type="line"/>
    </contour>
    <contour>
      <point x="903" y="596" type="qcurve"/>
      <point x="889" y="616"/>
      <point x="853" y="653"/>
      <point x="806" y="683"/>
      <point x="745" y="706"/>
      <point x="706" y="712" type="qcurve"/>
      <point x="657" y="719"/>
      <point x="580" y="687"/>
      <point x="523" y="617"/>
      <point x="486" y="516"/>
      <point x="479" y="455" type="qcurve"/>
      <point x="474" y="413"/>
      <point x="483" y="330"/>
      <point x="516" y="261"/>
      <point x="577" y="213"/>
      <point x="624" y="208" type="qcurve"/>
      <point x="664" y="203"/>
      <point x="738" y="237"/>
      <point x="800" y="299"/>
      <point x="847" y="381"/>
      <point x="860" y="426" type="qcurve"/>
      <point x="877" y="469"/>
      <point x="895" y="551"/>
    </contour>
  </outline>
</glyph>
<glyph name="oslash" format="1">
  <advance width="1200"/>
  <unicode hex="00F8"/>
  <outline>
    <contour>
      <point x="308" y="-100" type="line"/>
      <point x="58" y="-100" type="line"/>
      <point x="1089" y="1209" type="line"/>
      <point x="1329" y="1209" type="line"/>
    </contour>
    <contour>
      <point x="620" y="20" type="qcurve"/>
      <point x="501" y="30"/>
      <point x="329" y="117"/>
      <point x="223" y="263"/>
      <point x="182" y="465"/>
      <point x="193" y="590" type="qcurve"/>
      <point x="204" y="713"/>
      <point x="310" y="927"/>
      <point x="477" y="1083"/>
      <point x="696" y="1164"/>
      <point x="819" y="1154" type="qcurve"/>
      <point x="938" y="1144"/>
      <point x="1110" y="1057"/>
      <point x="1217" y="912"/>
      <point x="1259" y="713"/>
      <point x="1248" y="590" type="qcurve"/>
      <point x="1241" y="508"/>
      <point x="1187" y="355"/>
      <point x="1102" y="224"/>
      <point x="989" y="118"/>
      <point x="854" y="46"/>
      <point x="702" y="13"/>
    </contour>
    <contour>
      <point x="931" y="565" type="qcurve"/>
      <point x="938" y="635"/>
      <point x="937" y="762"/>
      <point x="906" y="861"/>
      <point x="838" y="926"/>
      <point x="777" y="934" type="qcurve"/>
      <point x="726" y="941"/>
      <point x="633" y="888"/>
      <point x="561" y="793"/>
      <point x="514" y="671"/>
      <point x="509" y="608" type="qcurve"/>
      <point x="503" y="537"/>
      <point x="506" y="410"/>
      <point x="537" y="311"/>
      <point x="604" y="247"/>
      <point x="661" y="240" type="qcurve"/>
      <point x="716" y="233"/>
      <point x="809" y="287"/>
      <point x="880" y="381"/>
      <point x="925" y="503"/>
    </contour>
  </outline>
</glyph>
<glyph name="ucircumflex" format="1">
  <advance width="1200"/>
  <unicode hex="00FB"/>
  <outline>
    <contour>
      <point x="921" y="1093" type="line"/>
      <point x="1240" y="1126" type="line"/>
      <point x="1042" y="0" type="line"/>
      <point x="729" y="0" type="line"/>
      <point x="757" y="163" type="line"/>
      <point x="619" y="11" type="line"/>
      <point x="598" y="2"/>
      <point x="529" y="-17"/>
      <point x="476" y="-17" type="qcurve"/>
      <point x="386" y="-17"/>
      <point x="270" y="51"/>
      <point x="208" y="164"/>
      <point x="196" y="308"/>
      <point x="210" y="384" type="qcurve"/>
      <point x="335" y="1093" type="line"/>
      <point x="654" y="1126" type="line"/>
      <point x="523" y="384" type="line"/>
      <point x="515" y="352"/>
      <point x="516" y="292"/>
      <point x="533" y="243"/>
      <point x="568" y="207"/>
      <point x="595" y="200" type="qcurve"/>
      <point x="614" y="195"/>
      <point x="660" y="202"/>
      <point x="709" y="223"/>
      <point x="757" y="256"/>
      <point x="777" y="276" type="qcurve"/>
    </contour>
    <contour>
      <point x="1140" y="1220" type="line"/>
      <point x="925" y="1220" type="line"/>
      <point x="873" y="1323" type="line"/>
      <point x="865" y="1450" type="line"/>
      <point x="813" y="1323" type="line"/>
      <point x="714" y="1220" type="line"/>
      <point x="484" y="1220" type="line"/>
      <point x="705" y="1495" type="line"/>
      <point x="1006" y="1524" type="line"/>
    </contour>
  </outline>
</glyph>
<glyph name="ydieresis" format="1">
  <advance width="1100"/>
  <unicode hex="00FF"/>
  <outline>
    <contour>
      <point x="588" y="670" type="line"/>
      <point x="582" y="190" type="line"/>
      <point x="744" y="670" type="line"/>
      <point x="980" y="1095" type="line"/>
      <point x="1297" y="1124" type="line"/>
      <point x="692" y="8" type="line"/>
      <point x="653" y="-64"/>
      <point x="586" y="-191"/>
      <point x="519" y="-300"/>
      <point x="450" y="-387"/>
      <point x="369" y="-447"/>
      <point x="271" y="-480"/>
      <point x="210" y="-480" type="qcurve"/>
      <point x="177" y="-480"/>
      <point x="102" y="-460"/>
      <point x="34" y="-428"/>
      <point x="-17" y="-391"/>
      <point x="-26" y="-374" type="qcurve"/>
      <point x="127" y="-194" type="line"/>
      <point x="142" y="-207"/>
      <point x="166" y="-222"/>
      <point x="187" y="-230"/>
      <point x="208" y="-233"/>
      <point x="222" y="-234" type="qcurve"/>
      <point x="272" y="-239"/>
      <point x="354" y="-148"/>
      <point x="404" y="-47" type="qcurve"/>
      <point x="188" y="1093" type="line"/>
      <point x="503" y="1121" type="line"/>
    </contour>
    <contour>
      <point x="440" y="1234" type="line"/>
      <point x="716" y="1234" type="line"/>
      <point x="763" y="1500" type="line"/>
      <point x="487" y="1500" type="line"/>
    </contour>
    <contour>
      <point x="840" y="1234" type="line"/>
      <point x="1116" y="1234" type="line"/>
      <point x="1163" y="1500" type="line"/>
      <point x="887" y="1500" type="line"/>
    </contour>
  </outline>
</glyph>
<glyph name="Ydieresis" format="1">
  <advance width="1200"/>
  <unicode hex="0178"/>
  <outline>
    <contour>
      <point x="711" y="1143" type="line"/>
      <point x="753" y="773" type="line"/>
      <point x="876" y="1143" type="line"/>
      <point x="1121" y="1500" type="line"/>
      <point x="1451" y="1500" type="line"/>
      <point x="868" y="650" type="line"/>
      <point x="754" y="0" type="line"/>
      <point x="418" y="0" type="line"/>
      <point x="532" y="650" type="line"/>
      <point x="252" y="1492" type="line"/>
      <point x="586" y="1525" type="line"/>
    </contour>
    <contour>
      <point x="531" y="1634" type="line"/>
      <point x="807" y="1634" type="line"/>
      <point x="854" y="1900" type="line"/>
      <point x="578" y="1900" type="line"/>
    </contour>
    <contour>
      <point x="931" y="1634" type="line"/>
      <point x="1207" y="1634" type="line"/>
      <point x="1254" y="1900" type="line"/>
      <point x="978" y="1900" type="line"/>
    </contour>
  </outline>
</glyph>
<glyph name="florin" format="1">
  <advance width="1400"/>
  <unicode hex="0192"/>
  <outline>
    <contour>
      <point x="1400" y="1263" type="line"/>
      <point x="1381" y="1275"/>
      <point x="1353" y="1293"/>
      <point x="1328" y="1303"/>
      <point x="1303" y="1304"/>
      <point x="1287" y="1300" type="qcurve"/>
      <point x="1261" y="1293"/>
      <point x="1211" y="1239"/>
      <point x="1151" y="1132"/>
      <point x="1076" y="966"/>
      <point x="1026" y="846" type="qcurve"/>
      <point x="1302" y="846" type="line"/>
      <point x="1208" y="631" type="line"/>
      <point x="1012" y="631" type="line"/>
      <point x="961" y="725" type="line"/>
      <point x="626" y="-85" type="line"/>
      <point x="592" y="-168"/>
      <point x="525" y="-303"/>
      <point x="430" y="-395"/>
      <point x="293" y="-439"/>
      <point x="190" y="-431" type="qcurve"/>
      <point x="140" y="-427"/>
      <point x="60" y="-416"/>
      <point x="-7" y="-399"/>
      <point x="-67" y="-377"/>
      <point x="-96" y="-362" type="qcurve"/>
      <point x="66" y="-157" type="line"/>
      <point x="103" y="-180"/>
      <point x="167" y="-201"/>
      <point x="193" y="-196" type="qcurve"/>
      <point x="212" y="-192"/>
      <point x="246" y="-158"/>
      <point x="275" y="-112"/>
      <point x="298" y="-62"/>
      <point x="307" y="-42" type="qcurve"/>
      <point x="594" y="628" type="line"/>
      <point x="371" y="628" type="line"/>
      <point x="467" y="846" type="line"/>
      <point x="617" y="846" type="line"/>
      <point x="660" y="777" type="line"/>
      <point x="720" y="918"/>
      <point x="815" y="1140"/>
      <point x="902" y="1307"/>
      <point x="985" y="1423"/>
      <point x="1082" y="1493"/>
      <point x="1197" y="1521"/>
      <point x="1272" y="1517" type="qcurve"/>
      <point x="1323" y="1514"/>
      <point x="1395" y="1503"/>
      <point x="1451" y="1485"/>
      <point x="1500" y="1462"/>
      <point x="1529" y="1447" type="qcurve"/>
    </contour>
  </outline>
</glyph>
<glyph name="caron" format="1">
  <advance width="1100"/>
  <unicode hex="02C7"/>
  <outline>
    <contour>
      <point x="842" y="1215" type="line"/>
      <point x="551" y="1244" type="line"/>
      <point x="426" y="1519" type="line"/>
      <point x="656" y="1519" type="line"/>
      <point x="715" y="1426" type="line"/>
      <point x="729" y="1299" type="line"/>
      <point x="785" y="1426" type="line"/>
      <point x="877" y="1519" type="line"/>
      <point x="1082" y="1519" type="line"/>
    </contour>
  </outline>
</glyph>
<glyph name="breve" format="1">
  <advance width="1100"/>
  <unicode hex="02D8"/>
  <outline>
    <contour>
      <point x="634" y="1519" type="line"/>
      <point x="632" y="1492"/>
      <point x="642" y="1470" type="qcurve"/>
      <point x="650" y="1450"/>
      <point x="691" y="1415"/>
      <point x="732" y="1410" type="qcurve"/>
      <point x="779" y="1404"/>
      <point x="836" y="1436"/>
      <point x="851" y="1458" type="qcurve"/>
      <point x="869" y="1484"/>
      <point x="875" y="1519" type="qcurve"/>
      <point x="1096" y="1519" type="line"/>
      <point x="1097" y="1465"/>
      <point x="1037" y="1364"/>
      <point x="930" y="1287"/>
      <point x="786" y="1246"/>
      <point x="705" y="1254" type="qcurve"/>
      <point x="616" y="1262"/>
      <point x="495" y="1314"/>
      <point x="425" y="1387"/>
      <point x="403" y="1474"/>
      <point x="412" y="1519" type="qcurve"/>
    </contour>
  </outline>
</glyph>
<glyph name="dotaccent" format="1">
  <advance width="600"/>
  <unicode hex="02D9"/>
  <outline>
    <contour>
      <point x="383" y="1500" type="line"/>
      <point x="711" y="1500" type="line"/>
      <point x="670" y="1269" type="line"/>
      <point x="342" y="1269" type="line"/>
    </contour>
  </outline>
</glyph>
<glyph name="Gamma" format="1">
  <advance width="1100"/>
  <unicode hex="0393"/>
  <outline>
    <contour>
      <point x="670" y="1131" type="line"/>
      <point x="471" y="0" type="line"/>
      <point x="142" y="0" type="line"/>
      <point x="365" y="1269" type="line"/>
      <point x="387" y="1500" type="line"/>
      <point x="1323" y="1500" type="line"/>
      <point x="1285" y="1282" type="line"/>
      <point x="685" y="1282" type="line"/>
    </contour>
  </outline>
</glyph>
<glyph name="Iota" format="1">
  <advance width="600"/>
  <unicode hex="0399"/>
  <outline>
    <contour>
      <point x="126" y="0" type="line"/>
      <point x="348" y="1263" type="line"/>
      <point x="356" y="1494" type="line"/>
      <point x="731" y="1525" type="line"/>
      <point x="463" y="0" type="line"/>
    </contour>
  </outline>
</glyph>
<glyph name="Lambda" format="1">
  <advance width="1300"/>
  <unicode hex="039B"/>
  <outline>
    <contour>
      <point x="-4" y="1" type="line"/>
      <point x="618" y="1267" type="line"/>
      <point x="698" y="1500" type="line"/>
      <point x="1063" y="1526" type="line"/>
      <point x="1290" y="0" type="line"/>
      <point x="961" y="0" type="line"/>
      <point x="857" y="801" type="line"/>
      <point x="840" y="1241" type="line"/>
      <point x="694" y="801" type="line"/>
      <point x="305" y="1" type="line"/>
    </contour>
  </outline>
</glyph>
<glyph name="Nu" format="1">
  <advance width="1500"/>
  <unicode hex="039D"/>
  <outline>
    <contour>
      <point x="1577" y="1527" type="line"/>
      <point x="1308" y="0" type="line"/>
      <point x="1007" y="0" type="line"/>
      <point x="712" y="700" type="line"/>
      <point x="624" y="1038" type="line"/>
      <point x="617" y="1037" type="line"/>
      <point x="594" y="691" type="line"/>
      <point x="473" y="0" type="line"/>
      <point x="146" y="0" type="line"/>
      <point x="368" y="1263" type="line"/>
      <point x="376" y="1494" type="line"/>
      <point x="722" y="1524" type="line"/>
      <point x="1021" y="810" type="line"/>
      <point x="1107" y="449" type="line"/>
      <point x="1113" y="450" type="line"/>
      <point x="1129" y="816" type="line"/>
      <point x="1249" y="1493" type="line"/>
    </contour>
  </outline>
</glyph>
<glyph name="Xi" format="1">
  <advance width="1200"/>
  <unicode hex="039E"/>
  <outline>
    <contour>
      <point x="310" y="916" type="line"/>
      <point x="1182" y="916" type="line"/>
      <point x="1140" y="675" type="line"/>
      <point x="268" y="675" type="line"/>
    </contour>
    <contour>
      <point x="96" y="241" type="line"/>
      <point x="1157" y="241" type="line"/>
      <point x="1115" y="0" type="line"/>
      <point x="54" y="0" type="line"/>
    </contour>
    <contour>
      <point x="318" y="1500" type="line"/>
      <point x="1379" y="1500" type="line"/>
      <point x="1336" y="1259" type="line"/>
      <point x="275" y="1259" type="line"/>
    </contour>
  </outline>
</glyph>
<glyph name="Phi" format="1">
  <advance width="1400"/>
  <unicode hex="03A6"/>
  <outline>
    <contour>
      <point x="550" y="204" type="line"/>
      <point x="456" y="230"/>
      <point x="304" y="318"/>
      <point x="200" y="450"/>
      <point x="149" y="631"/>
      <point x="155" y="750" type="qcurve"/>
      <point x="161" y="864"/>
      <point x="264" y="1055"/>
      <point x="427" y="1197"/>
      <point x="634" y="1285"/>
      <point x="743" y="1296" type="qcurve"/>
      <point x="778" y="1493" type="line"/>
      <point x="1115" y="1527" type="line"/>
      <point x="1074" y="1296" type="line"/>
      <point x="1158" y="1279"/>
      <point x="1309" y="1193"/>
      <point x="1419" y="1055"/>
      <point x="1479" y="867"/>
      <point x="1473" y="750" type="qcurve"/>
      <point x="1467" y="635"/>
      <point x="1370" y="449"/>
      <point x="1211" y="311"/>
      <point x="1000" y="222"/>
      <point x="881" y="204" type="qcurve"/>
      <point x="846" y="0" type="line"/>
      <point x="515" y="0" type="line"/>
    </contour>
    <contour>
      <point x="1181" y="750" type="qcurve"/>
      <point x="1192" y="801"/>
      <point x="1179" y="906"/>
      <point x="1139" y="997"/>
      <point x="1075" y="1064"/>
      <point x="1035" y="1076" type="qcurve"/>
      <point x="920" y="423" type="line"/>
      <point x="1012" y="448"/>
      <point x="1152" y="615"/>
    </contour>
    <contour>
      <point x="442" y="730" type="qcurve"/>
      <point x="438" y="607"/>
      <point x="518" y="456"/>
      <point x="589" y="423" type="qcurve"/>
      <point x="704" y="1076" type="line"/>
      <point x="652" y="1063"/>
      <point x="559" y="995"/>
      <point x="487" y="900"/>
      <point x="444" y="788"/>
    </contour>
  </outline>
</glyph>
<glyph name="alpha" format="1">
  <advance width="1400"/>
  <unicode hex="03B1"/>
  <outline>
    <contour>
      <point x="911" y="528" type="qcurve"/>
      <point x="923" y="596"/>
      <point x="916" y="732"/>
      <point x="876" y="842"/>
      <point x="798" y="914"/>
      <point x="740" y="917" type="qcurve"/>
      <point x="677" y="921"/>
      <point x="576" y="860"/>
      <point x="502" y="760"/>
      <point x="456" y="633"/>
      <point x="449" y="571" type="qcurve"/>
      <point x="441" y="502"/>
      <point x="448" y="370"/>
      <point x="486" y="262"/>
      <point x="560" y="190"/>
      <point x="618" y="183" type="qcurve"/>
      <point x="673" y="176"/>
      <point x="770" y="236"/>
      <point x="847" y="338"/>
      <point x="900" y="466"/>
    </contour>
    <contour>
      <point x="935" y="176" type="line"/>
      <point x="852" y="56" type="line"/>
      <point x="734" y="-29"/>
      <point x="580" y="-17" type="qcurve"/>
      <point x="465" y="-8"/>
      <point x="298" y="81"/>
      <point x="194" y="229"/>
      <point x="153" y="431"/>
      <point x="163" y="553" type="qcurve"/>
      <point x="173" y="676"/>
      <point x="270" y="885"/>
      <point x="430" y="1037"/>
      <point x="648" y="1121"/>
      <point x="779" y="1117" type="qcurve"/>
      <point x="853" y="1115"/>
      <point x="974" y="1083"/>
      <point x="1028" y="1051" type="qcurve"/>
      <point x="1068" y="931" type="line"/>
      <point x="1129" y="1055" type="line"/>
      <point x="1158" y="1071"/>
      <point x="1220" y="1104"/>
      <point x="1264" y="1122" type="qcurve"/>
      <point x="1370" y="962" type="line"/>
      <point x="1282" y="904"/>
      <point x="1265" y="829" type="qcurve"/>
      <point x="1255" y="787"/>
      <point x="1228" y="651"/>
      <point x="1211" y="552" type="qcurve"/>
      <point x="1205" y="518"/>
      <point x="1193" y="437"/>
      <point x="1184" y="356"/>
      <point x="1180" y="280"/>
      <point x="1187" y="222"/>
      <point x="1205" y="187"/>
      <point x="1222" y="187" type="qcurve"/>
      <point x="1243" y="187"/>
      <point x="1274" y="197"/>
      <point x="1282" y="203" type="qcurve"/>
      <point x="1329" y="35" type="line"/>
      <point x="1272" y="10"/>
      <point x="1173" y="-17"/>
      <point x="1130" y="-17" type="qcurve"/>
      <point x="1070" y="-17"/>
      <point x="981" y="27"/>
      <point x="952" y="52" type="qcurve"/>
    </contour>
  </outline>
</glyph>
<glyph name="gamma" format="1">
  <advance width="1100"/>
  <unicode hex="03B3"/>
  <outline>
    <contour>
      <point x="150" y="1116" type="line"/>
      <point x="207" y="1127"/>
      <point x="325" y="1111"/>
      <point x="427" y="1061"/>
      <point x="499" y="980"/>
      <point x="509" y="927" type="qcurve"/>
      <point x="564" y="641" type="line"/>
      <point x="569" y="220" type="line"/>
      <point x="723" y="643" type="line"/>
      <point x="971" y="1095" type="line"/>
      <point x="1276" y="1124" type="line"/>
      <point x="685" y="21" type="line"/>
      <point x="593" y="-500" type="line"/>
      <point x="285" y="-500" type="line"/>
      <point x="372" y="-7" type="line"/>
      <point x="215" y="834" type="line"/>
      <point x="209" y="864"/>
      <point x="176" y="899"/>
      <point x="159" y="907" type="qcurve"/>
      <point x="139" y="917"/>
      <point x="116" y="920" type="qcurve"/>
    </contour>
  </outline>
</glyph>
<glyph name="zeta" format="1">
  <advance width="1000"/>
  <unicode hex="03B6"/>
  <outline>
    <contour>
      <point x="954" y="1500" type="line"/>
      <point x="930" y="1308" type="line"/>
      <point x="874" y="1261"/>
      <point x="745" y="1146"/>
      <point x="617" y="1016"/>
      <point x="498" y="876"/>
      <point x="407" y="732"/>
      <point x="353" y="587"/>
      <point x="353" y="519" type="qcurve"/>
      <point x="353" y="428"/>
      <point x="443" y="286"/>
      <point x="541" y="223" type="qcurve"/>
      <point x="583" y="196"/>
      <point x="672" y="147"/>
      <point x="758" y="95"/>
      <point x="835" y="38"/>
      <point x="893" y="-30"/>
      <point x="927" y="-112"/>
      <point x="927" y="-162" type="qcurve"/>
      <point x="927" y="-212"/>
      <point x="872" y="-311"/>
      <point x="778" y="-402"/>
      <point x="649" y="-484"/>
      <point x="576" y="-517" type="qcurve"/>
      <point x="442" y="-324" type="line"/>
      <point x="473" y="-308"/>
      <point x="529" y="-273"/>
      <point x="571" y="-236"/>
      <point x="596" y="-199"/>
      <point x="596" y="-180" type="qcurve"/>
      <point x="596" y="-138"/>
      <point x="541" y="-73"/>
      <point x="464" y="-22"/>
      <point x="381" y="17"/>
      <point x="353" y="33" type="qcurve"/>
      <point x="204" y="118"/>
      <point x="50" y="341"/>
      <point x="50" y="496" type="qcurve"/>
      <point x="50" y="568"/>
      <point x="84" y="709"/>
      <point x="141" y="843"/>
      <point x="214" y="967"/>
      <point x="293" y="1076"/>
      <point x="371" y="1168"/>
      <point x="404" y="1202" type="qcurve"/>
      <point x="620" y="1318" type="line"/>
      <point x="379" y="1300" type="line"/>
      <point x="107" y="1300" type="line"/>
      <point x="134" y="1500" type="line"/>
    </contour>
  </outline>
</glyph>
<glyph name="eta" format="1">
  <advance width="1200"/>
  <unicode hex="03B7"/>
  <outline>
    <contour>
      <point x="457" y="0" type="line"/>
      <point x="144" y="0" type="line"/>
      <point x="336" y="1093" type="line"/>
      <point x="655" y="1126" type="line"/>
      <point x="645" y="1067" type="line"/>
      <point x="697" y="1087"/>
      <point x="820" y="1110"/>
      <point x="882" y="1116" type="qcurve"/>
      <point x="941" y="1122"/>
      <point x="1030" y="1090"/>
      <point x="1093" y="1031"/>
      <point x="1132" y="950"/>
      <point x="1151" y="861"/>
      <point x="1150" y="773"/>
      <point x="1142" y="736" type="qcurve"/>
      <point x="924" y="-500" type="line"/>
      <point x="611" y="-500" type="line"/>
      <point x="834" y="761" type="line"/>
      <point x="848" y="843"/>
      <point x="830" y="917"/>
      <point x="786" y="917" type="qcurve"/>
      <point x="769" y="917"/>
      <point x="725" y="904"/>
      <point x="678" y="883"/>
      <point x="628" y="855"/>
      <point x="605" y="841" type="qcurve"/>
    </contour>
  </outline>
</glyph>
<glyph name="theta" format="1">
  <advance width="1200"/>
  <unicode hex="03B8"/>
  <outline>
    <contour>
      <point x="596" y="-17" type="qcurve"/>
      <point x="496" y="-8"/>
      <point x="356" y="63"/>
      <point x="263" y="174"/>
      <point x="211" y="318"/>
      <point x="190" y="481"/>
      <point x="194" y="658"/>
      <point x="202" y="746" type="qcurve"/>
      <point x="210" y="833"/>
      <point x="261" y="1021"/>
      <point x="343" y="1201"/>
      <point x="456" y="1359"/>
      <point x="598" y="1473"/>
      <point x="768" y="1529"/>
      <point x="866" y="1517" type="qcurve"/>
      <point x="965" y="1505"/>
      <point x="1105" y="1429"/>
      <point x="1197" y="1316"/>
      <point x="1248" y="1171"/>
      <point x="1268" y="1008"/>
      <point x="1265" y="833"/>
      <point x="1257" y="746" type="qcurve"/>
      <point x="1249" y="659"/>
      <point x="1201" y="474"/>
      <point x="1121" y="299"/>
      <point x="1010" y="144"/>
      <point x="869" y="32"/>
      <point x="697" y="-26"/>
    </contour>
    <contour>
      <point x="976" y="845" type="line"/>
      <point x="983" y="918"/>
      <point x="977" y="1068"/>
      <point x="942" y="1192"/>
      <point x="877" y="1279"/>
      <point x="826" y="1290" type="qcurve"/>
      <point x="791" y="1297"/>
      <point x="722" y="1266"/>
      <point x="658" y="1201"/>
      <point x="602" y="1111"/>
      <point x="557" y="1007"/>
      <point x="525" y="896"/>
      <point x="518" y="845" type="qcurve"/>
    </contour>
    <contour>
      <point x="484" y="651" type="line"/>
      <point x="478" y="578"/>
      <point x="484" y="428"/>
      <point x="519" y="304"/>
      <point x="584" y="218"/>
      <point x="636" y="210" type="qcurve"/>
      <point x="683" y="202"/>
      <point x="778" y="268"/>
      <point x="861" y="390"/>
      <point x="924" y="557"/>
      <point x="939" y="651" type="qcurve"/>
    </contour>
  </outline>
</glyph>
<glyph name="iota" format="1">
  <advance width="700"/>
  <unicode hex="03B9"/>
  <outline>
    <contour>
      <point x="291" y="874" type="line"/>
      <point x="308" y="1093" type="line"/>
      <point x="649" y="1125" type="line"/>
      <point x="521" y="400" type="line"/>
      <point x="514" y="362"/>
      <point x="503" y="289"/>
      <point x="502" y="231"/>
      <point x="515" y="195"/>
      <point x="533" y="195" type="qcurve"/>
      <point x="577" y="195"/>
      <point x="610" y="209" type="qcurve"/>
      <point x="676" y="35" type="line"/>
      <point x="660" y="26"/>
      <point x="613" y="9"/>
      <point x="558" y="-5"/>
      <point x="501" y="-15"/>
      <point x="476" y="-17" type="qcurve"/>
      <point x="403" y="-22"/>
      <point x="302" y="8"/>
      <point x="235" y="68"/>
      <point x="200" y="153"/>
      <point x="189" y="252"/>
      <point x="198" y="360"/>
      <point x="209" y="413" type="qcurve"/>
    </contour>
  </outline>
</glyph>
<glyph name="nu" format="1">
  <advance width="1200"/>
  <unicode hex="03BD"/>
  <outline>
    <contour>
      <point x="606" y="650" type="line"/>
      <point x="620" y="250" type="line"/>
      <point x="772" y="650" type="line"/>
      <point x="1000" y="1100" type="line"/>
      <point x="1308" y="1100" type="line"/>
      <point x="733" y="0" type="line"/>
      <point x="405" y="0" type="line"/>
      <point x="216" y="1100" type="line"/>
      <point x="523" y="1100" type="line"/>
    </contour>
  </outline>
</glyph>
<glyph name="xi" format="1">
  <advance width="1000"/>
  <unicode hex="03BE"/>
  <outline>
    <contour>
      <point x="372" y="33" type="qcurve"/>
      <point x="328" y="68"/>
      <point x="241" y="148"/>
      <point x="174" y="247"/>
      <point x="137" y="368"/>
      <point x="142" y="445" type="qcurve"/>
      <point x="146" y="513"/>
      <point x="193" y="616"/>
      <point x="263" y="696"/>
      <point x="350" y="754"/>
      <point x="394" y="777" type="qcurve"/>
      <point x="556" y="790" type="line"/>
      <point x="405" y="855" type="line"/>
      <point x="388" y="877"/>
      <point x="357" y="930"/>
      <point x="332" y="992"/>
      <point x="318" y="1062"/>
      <point x="318" y="1100" type="qcurve"/>
      <point x="318" y="1137"/>
      <point x="341" y="1215"/>
      <point x="385" y="1285"/>
      <point x="449" y="1342"/>
      <point x="490" y="1360" type="qcurve"/>
      <point x="456" y="1368"/>
      <point x="401" y="1406"/>
      <point x="361" y="1462"/>
      <point x="340" y="1536"/>
      <point x="341" y="1581" type="qcurve"/>
      <point x="659" y="1581" type="line"/>
      <point x="658" y="1574"/>
      <point x="658" y="1547"/>
      <point x="664" y="1520"/>
      <point x="677" y="1500"/>
      <point x="690" y="1500" type="qcurve"/>
      <point x="1219" y="1500" type="line"/>
      <point x="1155" y="1302" type="line"/>
      <point x="840" y="1302" type="line"/>
      <point x="807" y="1302"/>
      <point x="724" y="1282"/>
      <point x="649" y="1237"/>
      <point x="599" y="1163"/>
      <point x="599" y="1110" type="qcurve"/>
      <point x="599" y="1058"/>
      <point x="625" y="983"/>
      <point x="666" y="934"/>
      <point x="715" y="911"/>
      <point x="738" y="911" type="qcurve"/>
      <point x="1032" y="911" type="line"/>
      <point x="960" y="700" type="line"/>
      <point x="913" y="704"/>
      <point x="800" y="702"/>
      <point x="684" y="684"/>
      <point x="575" y="650"/>
      <point x="491" y="592"/>
      <point x="440" y="510"/>
      <point x="441" y="454" type="qcurve"/>
      <point x="441" y="425"/>
      <point x="460" y="362"/>
      <point x="495" y="301"/>
      <point x="544" y="245"/>
      <point x="576" y="223" type="qcurve"/>
      <point x="664" y="161"/>
      <point x="785" y="75"/>
      <point x="862" y="-6"/>
      <point x="897" y="-97"/>
      <point x="898" y="-162" type="qcurve"/>
      <point x="899" y="-214"/>
      <point x="827" y="-319"/>
      <point x="710" y="-414"/>
      <point x="561" y="-493"/>
      <point x="484" y="-517" type="qcurve"/>
      <point x="384" y="-324" type="line"/>
      <point x="420" y="-315"/>
      <point x="492" y="-282"/>
      <point x="548" y="-240"/>
      <point x="581" y="-193"/>
      <point x="579" y="-170" type="qcurve"/>
      <point x="575" y="-133"/>
      <point x="528" y="-75"/>
      <point x="465" y="-27"/>
      <point x="397" y="13"/>
    </contour>
  </outline>
</glyph>
<glyph name="pi" format="1">
  <advance width="1300"/>
  <unicode hex="03C0"/>
  <outline>
    <contour>
      <point x="1154" y="900" type="line"/>
      <point x="1066" y="400" type="line"/>
      <point x="1054" y="334"/>
      <point x="1047" y="249"/>
      <point x="1053" y="201"/>
      <point x="1071" y="183"/>
      <point x="1085" y="183" type="qcurve"/>
      <point x="1102" y="183"/>
      <point x="1137" y="193"/>
      <point x="1151" y="200" type="qcurve"/>
      <point x="1168" y="208"/>
      <point x="1184" y="218" type="qcurve"/>
      <point x="1260" y="43" type="line"/>
      <point x="1242" y="35"/>
      <point x="1194" y="14"/>
      <point x="1136" y="-4"/>
      <point x="1068" y="-17"/>
      <point x="1030" y="-17" type="qcurve"/>
      <point x="958" y="-17"/>
      <point x="859" y="21"/>
      <point x="796" y="85"/>
      <point x="764" y="170"/>
      <point x="753" y="266"/>
      <point x="758" y="366"/>
      <point x="764" y="413" type="qcurve"/>
      <point x="850" y="900" type="line"/>
      <point x="586" y="900" type="line"/>
      <point x="675" y="752" type="line"/>
      <point x="543" y="0" type="line"/>
      <point x="239" y="0" type="line"/>
      <point x="362" y="698" type="line"/>
      <point x="381" y="806"/>
      <point x="388" y="903"/>
      <point x="360" y="903" type="qcurve"/>
      <point x="342" y="903"/>
      <point x="304" y="893"/>
      <point x="287" y="888" type="qcurve"/>
      <point x="268" y="882"/>
      <point x="250" y="874" type="qcurve"/>
      <point x="164" y="1041" type="line"/>
      <point x="182" y="1050"/>
      <point x="230" y="1070"/>
      <point x="288" y="1088"/>
      <point x="356" y="1100"/>
      <point x="393" y="1100" type="qcurve"/>
      <point x="1322" y="1100" type="line"/>
      <point x="1260" y="900" type="line"/>
    </contour>
  </outline>
</glyph>
<glyph name="sigma1" format="1">
  <advance width="1000"/>
  <unicode hex="03C2"/>
  <outline>
    <contour>
      <point x="1030" y="900" type="line"/>
      <point x="960" y="700" type="line"/>
      <point x="900" y="705"/>
      <point x="779" y="703"/>
      <point x="668" y="685"/>
      <point x="570" y="649"/>
      <point x="497" y="591"/>
      <point x="453" y="509"/>
      <point x="451" y="454" type="qcurve"/>
      <point x="450" y="425"/>
      <point x="459" y="365"/>
      <point x="501" y="299"/>
      <point x="587" y="222"/>
      <point x="664" y="176" type="qcurve"/>
      <point x="717" y="143"/>
      <point x="803" y="79"/>
      <point x="863" y="1"/>
      <point x="897" y="-97"/>
      <point x="898" y="-162" type="qcurve"/>
      <point x="899" y="-214"/>
      <point x="838" y="-315"/>
      <point x="727" y="-408"/>
      <point x="575" y="-487"/>
      <point x="484" y="-517" type="qcurve"/>
      <point x="383" y="-324" type="line"/>
      <point x="475" y="-292"/>
      <point x="573" y="-218"/>
      <point x="576" y="-180" type="qcurve"/>
      <point x="579" y="-140"/>
      <point x="539" y="-79"/>
      <point x="477" y="-29"/>
      <point x="403" y="13"/>
      <point x="372" y="33" type="qcurve"/>
      <point x="328" y="61"/>
      <point x="241" y="143"/>
      <point x="174" y="247"/>
      <point x="137" y="373"/>
      <point x="142" y="445" type="qcurve"/>
      <point x="146" y="504"/>
      <point x="175" y="615"/>
      <point x="236" y="713"/>
      <point x="335" y="796"/>
      <point x="484" y="858"/>
      <point x="690" y="896"/>
      <point x="828" y="900" type="qcurve"/>
    </contour>
  </outline>
</glyph>
<glyph name="upsilon" format="1">
  <advance width="1200"/>
  <unicode hex="03C5"/>
  <outline>
    <contour>
      <point x="552" y="501" type="line"/>
      <point x="546" y="476"/>
      <point x="535" y="412"/>
      <point x="532" y="345"/>
      <point x="540" y="279"/>
      <point x="566" y="225"/>
      <point x="615" y="188"/>
      <point x="655" y="183" type="qcurve"/>
      <point x="708" y="176"/>
      <point x="780" y="229"/>
      <point x="829" y="322"/>
      <point x="858" y="441"/>
      <point x="869" y="501" type="qcurve"/>
      <point x="907" y="720" type="line"/>
      <point x="914" y="771"/>
      <point x="888" y="852"/>
      <point x="842" y="909"/>
      <point x="787" y="939"/>
      <point x="765" y="939" type="qcurve"/>
      <point x="796" y="1117" type="line"/>
      <point x="869" y="1117"/>
      <point x="999" y="1095"/>
      <point x="1104" y="1041"/>
      <point x="1180" y="951"/>
      <point x="1217" y="813"/>
      <point x="1211" y="624"/>
      <point x="1181" y="499" type="qcurve"/>
      <point x="1168" y="446"/>
      <point x="1138" y="323"/>
      <point x="1089" y="201"/>
      <point x="1013" y="90"/>
      <point x="897" y="10"/>
      <point x="733" y="-28"/>
      <point x="620" y="-17" type="qcurve"/>
      <point x="507" y="-6"/>
      <point x="359" y="56"/>
      <point x="270" y="142"/>
      <point x="230" y="246"/>
      <point x="221" y="353"/>
      <point x="233" y="457"/>
      <point x="240" y="499" type="qcurve"/>
      <point x="298" y="825" type="line"/>
      <point x="305" y="863"/>
      <point x="308" y="908"/>
      <point x="295" y="908" type="qcurve"/>
      <point x="289" y="908"/>
      <point x="278" y="899"/>
      <point x="269" y="875"/>
      <point x="260" y="833"/>
      <point x="254" y="800" type="qcurve"/>
      <point x="24" y="800" type="line"/>
      <point x="37" y="951"/>
      <point x="202" y="1117"/>
      <point x="349" y="1117" type="qcurve"/>
      <point x="421" y="1117"/>
      <point x="520" y="1070"/>
      <point x="582" y="989"/>
      <point x="609" y="883"/>
      <point x="609" y="825" type="qcurve"/>
    </contour>
  </outline>
</glyph>
<glyph name="phi" format="1">
  <advance width="1500"/>
  <unicode hex="03C6"/>
  <outline>
    <contour>
      <point x="1078" y="1126" type="line"/>
      <point x="1057" y="1005" type="line"/>
      <point x="1103" y="999"/>
      <point x="1197" y="959"/>
      <point x="1284" y="895"/>
      <point x="1359" y="808"/>
      <point x="1411" y="701"/>
      <point x="1435" y="574"/>
      <point x="1428" y="503" type="qcurve"/>
      <point x="1417" y="389"/>
      <point x="1317" y="213"/>
      <point x="1166" y="87"/>
      <point x="979" y="13"/>
      <point x="880" y="2" type="qcurve"/>
      <point x="791" y="-500" type="line"/>
      <point x="473" y="-500" type="line"/>
      <point x="562" y="2" type="line"/>
      <point x="490" y="15"/>
      <point x="351" y="97"/>
      <point x="245" y="227"/>
      <point x="186" y="399"/>
      <point x="193" y="503" type="qcurve"/>
      <point x="200" y="606"/>
      <point x="292" y="780"/>
      <point x="439" y="911"/>
      <point x="631" y="993"/>
      <point x="739" y="1005" type="qcurve"/>
      <point x="754" y="1093" type="line"/>
    </contour>
    <contour>
      <point x="1150" y="503" type="qcurve"/>
      <point x="1159" y="556"/>
      <point x="1145" y="646"/>
      <point x="1106" y="717"/>
      <point x="1050" y="768"/>
      <point x="1017" y="782" type="qcurve"/>
      <point x="919" y="223" type="line"/>
      <point x="956" y="238"/>
      <point x="1031" y="290"/>
      <point x="1094" y="361"/>
      <point x="1141" y="450"/>
    </contour>
    <contour>
      <point x="469" y="503" type="qcurve"/>
      <point x="460" y="450"/>
      <point x="475" y="361"/>
      <point x="513" y="291"/>
      <point x="569" y="239"/>
      <point x="601" y="224" type="qcurve"/>
      <point x="699" y="781" type="line"/>
      <point x="661" y="766"/>
      <point x="587" y="715"/>
      <point x="524" y="645"/>
      <point x="478" y="556"/>
    </contour>
  </outline>
</glyph>
<glyph name="chi" format="1">
  <advance width="1300"/>
  <unicode hex="03C7"/>
  <outline>
    <contour>
      <point x="677" y="763" type="line"/>
      <point x="731" y="478" type="line"/>
      <point x="819" y="716" type="line"/>
      <point x="1093" y="1100" type="line"/>
      <point x="1419" y="1100" type="line"/>
      <point x="845" y="323" type="line"/>
      <point x="1060" y="-226" type="line"/>
      <point x="1074" y="-261"/>
      <point x="1109" y="-300"/>
      <point x="1125" y="-311" type="qcurve"/>
      <point x="1143" y="-323"/>
      <point x="1163" y="-328" type="qcurve"/>
      <point x="1129" y="-517" type="line"/>
      <point x="1080" y="-530"/>
      <point x="968" y="-509"/>
      <point x="865" y="-456"/>
      <point x="784" y="-376"/>
      <point x="766" y="-330" type="qcurve"/>
      <point x="673" y="-93" type="line"/>
      <point x="619" y="167" type="line"/>
      <point x="514" y="-71" type="line"/>
      <point x="199" y="-500" type="line"/>
      <point x="-122" y="-500" type="line"/>
      <point x="505" y="344" type="line"/>
      <point x="317" y="829" type="line"/>
      <point x="303" y="862"/>
      <point x="269" y="902"/>
      <point x="253" y="913" type="qcurve"/>
      <point x="235" y="925"/>
      <point x="216" y="931" type="qcurve"/>
      <point x="248" y="1117" type="line"/>
      <point x="297" y="1127"/>
      <point x="408" y="1109"/>
      <point x="508" y="1059"/>
      <point x="589" y="981"/>
      <point x="609" y="932" type="qcurve"/>
    </contour>
  </outline>
</glyph>
<glyph name="psi" format="1">
  <advance width="1500"/>
  <unicode hex="03C8"/>
  <outline>
    <contour>
      <point x="1153" y="700" type="line"/>
      <point x="1159" y="733"/>
      <point x="1162" y="801"/>
      <point x="1156" y="862"/>
      <point x="1138" y="912"/>
      <point x="1122" y="926" type="qcurve"/>
      <point x="1153" y="1105" type="line"/>
      <point x="1190" y="1108"/>
      <point x="1269" y="1075"/>
      <point x="1344" y="1015"/>
      <point x="1409" y="932"/>
      <point x="1453" y="837"/>
      <point x="1472" y="737"/>
      <point x="1464" y="689" type="qcurve"/>
      <point x="1430" y="499" type="line"/>
      <point x="1421" y="449"/>
      <point x="1400" y="335"/>
      <point x="1359" y="220"/>
      <point x="1291" y="114"/>
      <point x="1181" y="33"/>
      <point x="1019" y="-16"/>
      <point x="906" y="-16" type="qcurve"/>
      <point x="878" y="-16" type="line"/>
      <point x="792" y="-500" type="line"/>
      <point x="474" y="-500" type="line"/>
      <point x="560" y="-16" type="line"/>
      <point x="543" y="-16" type="line"/>
      <point x="441" y="-16"/>
      <point x="307" y="42"/>
      <point x="226" y="134"/>
      <point x="191" y="249"/>
      <point x="182" y="364"/>
      <point x="193" y="466"/>
      <point x="199" y="499" type="qcurve"/>
      <point x="255" y="814" type="line"/>
      <point x="574" y="846" type="line"/>
      <point x="513" y="501" type="line"/>
      <point x="502" y="441"/>
      <point x="492" y="331"/>
      <point x="504" y="246"/>
      <point x="542" y="195"/>
      <point x="580" y="195" type="qcurve"/>
      <point x="597" y="195" type="line"/>
      <point x="755" y="1093" type="line"/>
      <point x="1079" y="1126" type="line"/>
      <point x="915" y="195" type="line"/>
      <point x="964" y="199"/>
      <point x="1032" y="252"/>
      <point x="1078" y="336"/>
      <point x="1108" y="444"/>
      <point x="1118" y="501" type="qcurve"/>
    </contour>
  </outline>
</glyph>
<glyph name="theta1" format="1">
  <advance width="1300"/>
  <unicode hex="03D1"/>
  <outline>
    <contour>
      <point x="422" y="529" type="line"/>
      <point x="422" y="453"/>
      <point x="450" y="339"/>
      <point x="502" y="261"/>
      <point x="575" y="217"/>
      <point x="620" y="210" type="qcurve"/>
      <point x="666" y="202"/>
      <point x="761" y="258"/>
      <point x="843" y="366"/>
      <point x="907" y="518"/>
      <point x="923" y="606" type="qcurve"/>
      <point x="596" y="606" type="line"/>
      <point x="522" y="604"/>
      <point x="382" y="628"/>
      <point x="277" y="703"/>
      <point x="220" y="840"/>
      <point x="230" y="951" type="qcurve"/>
      <point x="235" y="1013"/>
      <point x="283" y="1151"/>
      <point x="363" y="1283"/>
      <point x="473" y="1401"/>
      <point x="607" y="1485"/>
      <point x="763" y="1527"/>
      <point x="850" y="1517" type="qcurve"/>
      <point x="937" y="1507"/>
      <point x="1067" y="1443"/>
      <point x="1159" y="1344"/>
      <point x="1217" y="1215"/>
      <point x="1249" y="1066"/>
      <point x="1258" y="903"/>
      <point x="1255" y="820" type="qcurve"/>
      <point x="1449" y="820" type="line"/>
      <point x="1384" y="606" type="line"/>
      <point x="1214" y="606" type="line"/>
      <point x="1192" y="515"/>
      <point x="1121" y="349"/>
      <point x="1027" y="207"/>
      <point x="914" y="94"/>
      <point x="790" y="16"/>
      <point x="657" y="-22"/>
      <point x="590" y="-17" type="qcurve"/>
      <point x="501" y="-10"/>
      <point x="357" y="57"/>
      <point x="249" y="167"/>
      <point x="181" y="314"/>
      <point x="170" y="400" type="qcurve"/>
    </contour>
    <contour>
      <point x="810" y="1290" type="qcurve"/>
      <point x="775" y="1292"/>
      <point x="702" y="1267"/>
      <point x="633" y="1219"/>
      <point x="571" y="1152"/>
      <point x="525" y="1073"/>
      <point x="498" y="986"/>
      <point x="497" y="943" type="qcurve"/>
      <point x="496" y="896"/>
      <point x="529" y="846"/>
      <point x="589" y="823"/>
      <point x="674" y="820"/>
      <point x="727" y="820" type="qcurve"/>
      <point x="964" y="820" type="line"/>
      <point x="973" y="870"/>
      <point x="976" y="977"/>
      <point x="964" y="1080"/>
      <point x="938" y="1173"/>
      <point x="897" y="1244"/>
      <point x="843" y="1287"/>
    </contour>
  </outline>
</glyph>
<glyph name="phi1" format="1">
  <advance width="1500"/>
  <unicode hex="03D5"/>
  <outline>
    <contour>
      <point x="651" y="780" type="line"/>
      <point x="625" y="766"/>
      <point x="569" y="724"/>
      <point x="521" y="663"/>
      <point x="486" y="577"/>
      <point x="483" y="519" type="qcurve"/>
      <point x="479" y="456"/>
      <point x="493" y="362"/>
      <point x="525" y="293"/>
      <point x="573" y="246"/>
      <point x="603" y="230" type="qcurve"/>
      <point x="700" y="781" type="line"/>
      <point x="719" y="840"/>
      <point x="783" y="916"/>
      <point x="862" y="960"/>
      <point x="953" y="978"/>
      <point x="1001" y="979" type="qcurve"/>
      <point x="1091" y="980"/>
      <point x="1249" y="908"/>
      <point x="1363" y="779"/>
      <point x="1424" y="602"/>
      <point x="1418" y="499" type="qcurve"/>
      <point x="1411" y="387"/>
      <point x="1331" y="218"/>
      <point x="1193" y="98"/>
      <point x="1001" y="24"/>
      <point x="882" y="7" type="qcurve"/>
      <point x="792" y="-500" type="line"/>
      <point x="474" y="-500" type="line"/>
      <point x="564" y="7" type="line"/>
      <point x="488" y="28"/>
      <point x="350" y="102"/>
      <point x="248" y="221"/>
      <point x="194" y="387"/>
      <point x="203" y="499" type="qcurve"/>
      <point x="210" y="591"/>
      <point x="278" y="736"/>
      <point x="377" y="846"/>
      <point x="496" y="921"/>
      <point x="553" y="943" type="qcurve"/>
    </contour>
    <contour>
      <point x="1154" y="519" type="qcurve"/>
      <point x="1160" y="583"/>
      <point x="1139" y="684"/>
      <point x="1103" y="753"/>
      <point x="1062" y="790"/>
      <point x="1048" y="790" type="qcurve"/>
      <point x="1038" y="790"/>
      <point x="1025" y="781"/>
      <point x="1017" y="769"/>
      <point x="1013" y="755"/>
      <point x="1012" y="750" type="qcurve"/>
      <point x="920" y="229" type="line"/>
      <point x="965" y="242"/>
      <point x="1046" y="288"/>
      <point x="1108" y="359"/>
      <point x="1148" y="456"/>
    </contour>
  </outline>
</glyph>
<glyph name="emdash" format="1">
  <advance width="2100"/>
  <unicode hex="2014"/>
  <outline>
    <contour>
      <point x="110" y="624" type="line"/>
      <point x="2110" y="624" type="line"/>
      <point x="2070" y="400" type="line"/>
      <point x="70" y="400" type="line"/>
    </contour>
  </outline>
</glyph>
<glyph name="quotationdash" format="1">
  <advance width="1600"/>
  <unicode hex="2015"/>
  <outline>
    <contour>
      <point x="310" y="624" type="line"/>
      <point x="1510" y="624" type="line"/>
      <point x="1470" y="400" type="line"/>
      <point x="270" y="400" type="line"/>
    </contour>
  </outline>
</glyph>
<glyph name="quoteright" format="1">
  <advance width="700"/>
  <unicode hex="2019"/>
  <outline>
    <contour>
      <point x="163" y="1321" type="qcurve"/>
      <point x="164" y="1356"/>
      <point x="192" y="1417"/>
      <point x="241" y="1460"/>
      <point x="308" y="1481"/>
      <point x="348" y="1475" type="qcurve"/>
      <point x="377" y="1471"/>
      <point x="427" y="1446"/>
      <point x="464" y="1406"/>
      <point x="485" y="1353"/>
      <point x="485" y="1321" type="qcurve"/>
      <point x="485" y="1282"/>
      <point x="456" y="1186"/>
      <point x="394" y="1084"/>
      <point x="298" y="980"/>
      <point x="230" y="934" type="qcurve"/>
      <point x="138" y="992" type="line"/>
      <point x="152" y="1010"/>
      <point x="183" y="1056"/>
      <point x="211" y="1107"/>
      <point x="234" y="1159"/>
      <point x="242" y="1183" type="qcurve"/>
      <point x="224" y="1191"/>
      <point x="194" y="1212"/>
      <point x="173" y="1244"/>
      <point x="162" y="1289"/>
    </contour>
  </outline>
</glyph>
<glyph name="quotesinglbase" format="1">
  <advance width="700"/>
  <unicode hex="201A"/>
  <outline>
    <contour>
      <point x="163" y="121" type="qcurve"/>
      <point x="164" y="156"/>
      <point x="192" y="217"/>
      <point x="241" y="260"/>
      <point x="308" y="281"/>
      <point x="348" y="275" type="qcurve"/>
      <point x="377" y="271"/>
      <point x="427" y="246"/>
      <point x="464" y="206"/>
      <point x="485" y="153"/>
      <point x="485" y="121" type="qcurve"/>
      <point x="485" y="82"/>
      <point x="456" y="-14"/>
      <point x="394" y="-116"/>
      <point x="298" y="-220"/>
      <point x="230" y="-266" type="qcurve"/>
      <point x="138" y="-208" type="line"/>
      <point x="152" y="-190"/>
      <point x="183" y="-144"/>
      <point x="211" y="-93"/>
      <point x="234" y="-41"/>
      <point x="242" y="-17" type="qcurve"/>
      <point x="224" y="-9"/>
      <point x="194" y="12"/>
      <point x="173" y="44"/>
      <point x="162" y="89"/>
    </contour>
  </outline>
</glyph>
<glyph name="quotedblbase" format="1">
  <advance width="1000"/>
  <unicode hex="201E"/>
  <outline>
    <contour>
      <point x="163" y="121" type="qcurve"/>
      <point x="164" y="156"/>
      <point x="192" y="217"/>
      <point x="241" y="260"/>
      <point x="308" y="281"/>
      <point x="348" y="275" type="qcurve"/>
      <point x="377" y="271"/>
      <point x="427" y="246"/>
      <point x="464" y="206"/>
      <point x="485" y="153"/>
      <point x="485" y="121" type="qcurve"/>
      <point x="485" y="82"/>
      <point x="456" y="-14"/>
      <point x="394" y="-116"/>
      <point x="298" y="-220"/>
      <point x="230" y="-266" type="qcurve"/>
      <point x="138" y="-208" type="line"/>
      <point x="152" y="-190"/>
      <point x="183" y="-144"/>
      <point x="211" y="-93"/>
      <point x="234" y="-41"/>
      <point x="242" y="-17" type="qcurve"/>
      <point x="224" y="-9"/>
      <point x="194" y="12"/>
      <point x="173" y="44"/>
      <point x="162" y="89"/>
    </contour>
    <contour>
      <point x="563" y="121" type="qcurve"/>
      <point x="564" y="156"/>
      <point x="592" y="217"/>
      <point x="641" y="260"/>
      <point x="708" y="281"/>
      <point x="748" y="275" type="qcurve"/>
      <point x="777" y="271"/>
      <point x="827" y="246"/>
      <point x="864" y="206"/>
      <point x="885" y="153"/>
      <point x="885" y="121" type="qcurve"/>
      <point x="885" y="82"/>
      <point x="856" y="-14"/>
      <point x="794" y="-116"/>
      <point x="698" y="-220"/>
      <point x="630" y="-266" type="qcurve"/>
      <point x="538" y="-208" type="line"/>
      <point x="552" y="-190"/>
      <point x="583" y="-144"/>
      <point x="611" y="-93"/>
      <point x="634" y="-41"/>
      <point x="642" y="-17" type="qcurve"/>
      <point x="624" y="-9"/>
      <point x="594" y="12"/>
      <point x="573" y="44"/>
      <point x="562" y="89"/>
    </contour>
  </outline>
</glyph>
<glyph name="dagger" format="1">
  <advance width="1100"/>
  <unicode hex="2020"/>
  <outline>
    <contour>
      <point x="311" y="1118" type="line"/>
      <point x="567" y="1118" type="line"/>
      <point x="633" y="1493" type="line"/>
      <point x="908" y="1527" type="line"/>
      <point x="836" y="1118" type="line"/>
      <point x="1125" y="1118" type="line"/>
      <point x="1058" y="900" type="line"/>
      <point x="797" y="900" type="line"/>
      <point x="568" y="-400" type="line"/>
      <point x="299" y="-400" type="line"/>
      <point x="528" y="900" type="line"/>
      <point x="272" y="900" type="line"/>
    </contour>
  </outline>
</glyph>
<glyph name="daggerdbl" format="1">
  <advance width="1000"/>
  <unicode hex="2021"/>
  <outline>
    <contour>
      <point x="384" y="82" type="line"/>
      <point x="128" y="82" type="line"/>
      <point x="166" y="300" type="line"/>
      <point x="422" y="300" type="line"/>
      <point x="528" y="900" type="line"/>
      <point x="272" y="900" type="line"/>
      <point x="311" y="1118" type="line"/>
      <point x="567" y="1118" type="line"/>
      <point x="633" y="1493" type="line"/>
      <point x="908" y="1527" type="line"/>
      <point x="836" y="1118" type="line"/>
      <point x="1125" y="1118" type="line"/>
      <point x="1058" y="900" type="line"/>
      <point x="797" y="900" type="line"/>
      <point x="691" y="300" type="line"/>
      <point x="980" y="300" type="line"/>
      <point x="914" y="82" type="line"/>
      <point x="653" y="82" type="line"/>
      <point x="568" y="-400" type="line"/>
      <point x="299" y="-400" type="line"/>
    </contour>
  </outline>
</glyph>
<glyph name="ellipsis" format="1">
  <advance width="1500"/>
  <unicode hex="2026"/>
  <outline>
    <contour>
      <point x="97" y="171" type="qcurve"/>
      <point x="100" y="209"/>
      <point x="140" y="280"/>
      <point x="201" y="332"/>
      <point x="276" y="360"/>
      <point x="313" y="356" type="qcurve"/>
      <point x="389" y="348"/>
      <point x="471" y="248"/>
      <point x="466" y="171" type="qcurve"/>
      <point x="464" y="132"/>
      <point x="424" y="62"/>
      <point x="363" y="9"/>
      <point x="287" y="-20"/>
      <point x="250" y="-17" type="qcurve"/>
      <point x="211" y="-14"/>
      <point x="151" y="17"/>
      <point x="112" y="68"/>
      <point x="94" y="134"/>
    </contour>
    <contour>
      <point x="597" y="171" type="qcurve"/>
      <point x="600" y="209"/>
      <point x="640" y="280"/>
      <point x="701" y="332"/>
      <point x="776" y="360"/>
      <point x="813" y="356" type="qcurve"/>
      <point x="889" y="348"/>
      <point x="971" y="248"/>
      <point x="966" y="171" type="qcurve"/>
      <point x="964" y="132"/>
      <point x="924" y="62"/>
      <point x="863" y="9"/>
      <point x="787" y="-20"/>
      <point x="750" y="-17" type="qcurve"/>
      <point x="711" y="-14"/>
      <point x="651" y="17"/>
      <point x="612" y="68"/>
      <point x="594" y="134"/>
    </contour>
    <contour>
      <point x="1097" y="171" type="qcurve"/>
      <point x="1100" y="209"/>
      <point x="1140" y="280"/>
      <point x="1201" y="332"/>
      <point x="1276" y="360"/>
      <point x="1313" y="356" type="qcurve"/>
      <point x="1389" y="348"/>
      <point x="1471" y="248"/>
      <point x="1466" y="171" type="qcurve"/>
      <point x="1464" y="132"/>
      <point x="1424" y="62"/>
      <point x="1363" y="9"/>
      <point x="1287" y="-20"/>
      <point x="1250" y="-17" type="qcurve"/>
      <point x="1211" y="-14"/>
      <point x="1151" y="17"/>
      <point x="1112" y="68"/>
      <point x="1094" y="134"/>
    </contour>
  </outline>
</glyph>
<glyph name="pertenthousandsign" format="1">
  <advance width="3300"/>
  <unicode hex="2031"/>
  <outline>
    <contour>
      <point x="2065" y="-17" type="qcurve"/>
      <point x="1892" y="-1"/>
      <point x="1738" y="204"/>
      <point x="1753" y="382" type="qcurve"/>
      <point x="1760" y="467"/>
      <point x="1836" y="618"/>
      <point x="1956" y="726"/>
      <point x="2114" y="782"/>
      <point x="2204" y="774" type="qcurve"/>
      <point x="2376" y="758"/>
      <point x="2532" y="553"/>
      <point x="2516" y="382" type="qcurve"/>
      <point x="2508" y="295"/>
      <point x="2436" y="142"/>
      <point x="2318" y="31"/>
      <point x="2159" y="-26"/>
    </contour>
    <contour>
      <point x="2224" y="371" type="qcurve"/>
      <point x="2227" y="407"/>
      <point x="2228" y="474"/>
      <point x="2216" y="526"/>
      <point x="2190" y="561"/>
      <point x="2166" y="566" type="qcurve"/>
      <point x="2143" y="570"/>
      <point x="2105" y="543"/>
      <point x="2075" y="493"/>
      <point x="2054" y="429"/>
      <point x="2050" y="396" type="qcurve"/>
      <point x="2045" y="360"/>
      <point x="2045" y="294"/>
      <point x="2057" y="241"/>
      <point x="2084" y="206"/>
      <point x="2107" y="203" type="qcurve"/>
      <point x="2129" y="200"/>
      <point x="2169" y="228"/>
      <point x="2200" y="277"/>
      <point x="2221" y="339"/>
    </contour>
    <contour>
      <point x="2781" y="-17" type="qcurve"/>
      <point x="2608" y="-1"/>
      <point x="2454" y="204"/>
      <point x="2469" y="382" type="qcurve"/>
      <point x="2476" y="467"/>
      <point x="2552" y="618"/>
      <point x="2672" y="726"/>
      <point x="2830" y="782"/>
      <point x="2920" y="774" type="qcurve"/>
      <point x="3092" y="758"/>
      <point x="3248" y="553"/>
      <point x="3232" y="382" type="qcurve"/>
      <point x="3224" y="295"/>
      <point x="3152" y="142"/>
      <point x="3034" y="31"/>
      <point x="2875" y="-26"/>
    </contour>
    <contour>
      <point x="2940" y="371" type="qcurve"/>
      <point x="2943" y="407"/>
      <point x="2944" y="474"/>
      <point x="2932" y="526"/>
      <point x="2906" y="561"/>
      <point x="2882" y="566" type="qcurve"/>
      <point x="2859" y="570"/>
      <point x="2821" y="543"/>
      <point x="2791" y="493"/>
      <point x="2770" y="429"/>
      <point x="2766" y="396" type="qcurve"/>
      <point x="2761" y="360"/>
      <point x="2761" y="294"/>
      <point x="2773" y="241"/>
      <point x="2800" y="206"/>
      <point x="2823" y="203" type="qcurve"/>
      <point x="2845" y="200"/>
      <point x="2885" y="228"/>
      <point x="2916" y="277"/>
      <point x="2937" y="339"/>
    </contour>
    <contour>
      <point x="633" y="0" type="line"/>
      <point x="310" y="0" type="line"/>
      <point x="1393" y="1500" type="line"/>
      <point x="1707" y="1500" type="line"/>
    </contour>
    <contour>
      <point x="1348" y="-17" type="qcurve"/>
      <point x="1175" y="-1"/>
      <point x="1021" y="204"/>
      <point x="1036" y="382" type="qcurve"/>
      <point x="1043" y="467"/>
      <point x="1119" y="618"/>
      <point x="1239" y="726"/>
      <point x="1397" y="782"/>
      <point x="1487" y="774" type="qcurve"/>
      <point x="1659" y="758"/>
      <point x="1815" y="553"/>
      <point x="1799" y="382" type="qcurve"/>
      <point x="1791" y="295"/>
      <point x="1719" y="142"/>
      <point x="1601" y="31"/>
      <point x="1442" y="-26"/>
    </contour>
    <contour>
      <point x="1507" y="371" type="qcurve"/>
      <point x="1510" y="407"/>
      <point x="1511" y="474"/>
      <point x="1499" y="526"/>
      <point x="1473" y="561"/>
      <point x="1449" y="566" type="qcurve"/>
      <point x="1426" y="570"/>
      <point x="1388" y="543"/>
      <point x="1358" y="493"/>
      <point x="1337" y="429"/>
      <point x="1333" y="396" type="qcurve"/>
      <point x="1328" y="360"/>
      <point x="1328" y="294"/>
      <point x="1340" y="241"/>
      <point x="1367" y="206"/>
      <point x="1390" y="203" type="qcurve"/>
      <point x="1412" y="200"/>
      <point x="1452" y="228"/>
      <point x="1483" y="277"/>
      <point x="1504" y="339"/>
    </contour>
    <contour>
      <point x="528" y="726" type="qcurve"/>
      <point x="355" y="742"/>
      <point x="201" y="947"/>
      <point x="216" y="1125" type="qcurve"/>
      <point x="223" y="1210"/>
      <point x="299" y="1361"/>
      <point x="419" y="1469"/>
      <point x="577" y="1525"/>
      <point x="667" y="1517" type="qcurve"/>
      <point x="839" y="1501"/>
      <point x="995" y="1296"/>
      <point x="979" y="1125" type="qcurve"/>
      <point x="971" y="1038"/>
      <point x="899" y="885"/>
      <point x="781" y="774"/>
      <point x="622" y="717"/>
    </contour>
    <contour>
      <point x="687" y="1114" type="qcurve"/>
      <point x="690" y="1150"/>
      <point x="691" y="1217"/>
      <point x="679" y="1269"/>
      <point x="653" y="1304"/>
      <point x="629" y="1309" type="qcurve"/>
      <point x="606" y="1313"/>
      <point x="568" y="1286"/>
      <point x="538" y="1236"/>
      <point x="517" y="1172"/>
      <point x="513" y="1139" type="qcurve"/>
      <point x="508" y="1103"/>
      <point x="508" y="1037"/>
      <point x="520" y="984"/>
      <point x="547" y="949"/>
      <point x="570" y="946" type="qcurve"/>
      <point x="592" y="943"/>
      <point x="632" y="971"/>
      <point x="663" y="1020"/>
      <point x="684" y="1082"/>
    </contour>
  </outline>
</glyph>
<glyph name="minute" format="1">
  <advance width="500"/>
  <unicode hex="2032"/>
  <outline>
    <contour>
      <point x="596" y="1230" type="line"/>
      <point x="375" y="885" type="line"/>
      <point x="222" y="885" type="line"/>
      <point x="347" y="1232" type="line"/>
      <point x="398" y="1523" type="line"/>
      <point x="642" y="1490" type="line"/>
    </contour>
  </outline>
</glyph>
<glyph name="second" format="1">
  <advance width="800"/>
  <unicode hex="2033"/>
  <outline>
    <contour>
      <point x="596" y="1230" type="line"/>
      <point x="375" y="885" type="line"/>
      <point x="222" y="885" type="line"/>
      <point x="347" y="1232" type="line"/>
      <point x="398" y="1523" type="line"/>
      <point x="642" y="1490" type="line"/>
    </contour>
    <contour>
      <point x="896" y="1230" type="line"/>
      <point x="675" y="885" type="line"/>
      <point x="522" y="885" type="line"/>
      <point x="647" y="1232" type="line"/>
      <point x="698" y="1523" type="line"/>
      <point x="942" y="1490" type="line"/>
    </contour>
  </outline>
</glyph>
<glyph name="primereversed" format="1">
  <advance width="500"/>
  <unicode hex="2035"/>
  <outline>
    <contour>
      <point x="-142" y="1490" type="line"/>
      <point x="102" y="1523" type="line"/>
      <point x="153" y="1232" type="line"/>
      <point x="278" y="885" type="line"/>
      <point x="125" y="885" type="line"/>
      <point x="-96" y="1230" type="line"/>
    </contour>
  </outline>
</glyph>
<glyph name="guilsinglright" format="1">
  <advance width="900"/>
  <unicode hex="203A"/>
  <outline>
    <contour>
      <point x="886" y="619" type="line"/>
      <point x="860" y="476" type="line"/>
      <point x="218" y="-13" type="line"/>
      <point x="166" y="224" type="line"/>
      <point x="552" y="517" type="line"/>
      <point x="631" y="550" type="line"/>
      <point x="562" y="582" type="line"/>
      <point x="284" y="880" type="line"/>
      <point x="413" y="1106" type="line"/>
    </contour>
  </outline>
</glyph>
<glyph name="fivesuperior" format="1">
  <advance width="600"/>
  <unicode hex="2075"/>
  <outline>
    <contour>
      <point x="337" y="1243" type="line"/>
      <point x="362" y="1249"/>
      <point x="396" y="1249" type="qcurve"/>
      <point x="445" y="1249"/>
      <point x="526" y="1218"/>
      <point x="581" y="1161"/>
      <point x="606" y="1081"/>
      <point x="600" y="1033" type="qcurve"/>
      <point x="591" y="956"/>
      <point x="492" y="840"/>
      <point x="344" y="760"/>
      <point x="163" y="720"/>
      <point x="71" y="720" type="qcurve"/>
      <point x="90" y="833" type="line"/>
      <point x="147" y="834"/>
      <point x="269" y="861"/>
      <point x="370" y="910"/>
      <point x="436" y="979"/>
      <point x="439" y="1023" type="qcurve"/>
      <point x="442" y="1066"/>
      <point x="404" y="1125"/>
      <point x="362" y="1131" type="qcurve"/>
      <point x="343" y="1134"/>
      <point x="313" y="1130"/>
      <point x="288" y="1120"/>
      <point x="263" y="1106"/>
      <point x="250" y="1099" type="qcurve"/>
      <point x="144" y="1099" type="line"/>
      <point x="209" y="1470" type="line"/>
      <point x="636" y="1470" type="line"/>
      <point x="618" y="1370" type="line"/>
      <point x="360" y="1370" type="line"/>
    </contour>
  </outline>
</glyph>
<glyph name="sixsuperior" format="1">
  <advance width="600"/>
  <unicode hex="2076"/>
  <outline>
    <contour>
      <point x="609" y="1360" type="line"/>
      <point x="598" y="1367"/>
      <point x="568" y="1369"/>
      <point x="556" y="1370" type="qcurve"/>
      <point x="514" y="1373"/>
      <point x="429" y="1338"/>
      <point x="354" y="1271"/>
      <point x="295" y="1176"/>
      <point x="281" y="1120" type="qcurve"/>
      <point x="376" y="1192" type="line"/>
      <point x="390" y="1195"/>
      <point x="417" y="1197"/>
      <point x="428" y="1198" type="qcurve"/>
      <point x="472" y="1201"/>
      <point x="551" y="1177"/>
      <point x="608" y="1124"/>
      <point x="638" y="1040"/>
      <point x="634" y="982" type="qcurve"/>
      <point x="630" y="926"/>
      <point x="576" y="825"/>
      <point x="490" y="750"/>
      <point x="379" y="708"/>
      <point x="317" y="711" type="qcurve"/>
      <point x="263" y="714"/>
      <point x="188" y="748"/>
      <point x="139" y="801"/>
      <point x="111" y="867"/>
      <point x="100" y="937"/>
      <point x="101" y="1005"/>
      <point x="104" y="1033" type="qcurve"/>
      <point x="114" y="1122"/>
      <point x="198" y="1288"/>
      <point x="327" y="1413"/>
      <point x="490" y="1484"/>
      <point x="579" y="1478" type="qcurve"/>
      <point x="588" y="1477"/>
      <point x="621" y="1476"/>
      <point x="646" y="1469" type="qcurve"/>
    </contour>
    <contour>
      <point x="403" y="1098" type="qcurve"/>
      <point x="368" y="1103"/>
      <point x="291" y="1058"/>
      <point x="263" y="1020" type="qcurve"/>
      <point x="258" y="994"/>
      <point x="253" y="958"/>
      <point x="257" y="937" type="qcurve"/>
      <point x="261" y="918"/>
      <point x="273" y="878"/>
      <point x="293" y="845"/>
      <point x="320" y="822"/>
      <point x="338" y="820" type="qcurve"/>
      <point x="365" y="817"/>
      <point x="412" y="844"/>
      <point x="448" y="891"/>
      <point x="469" y="950"/>
      <point x="471" y="978" type="qcurve"/>
      <point x="475" y="1029"/>
      <point x="438" y="1093"/>
    </contour>
  </outline>
</glyph>
<glyph name="sevensuperior" format="1">
  <advance width="600"/>
  <unicode hex="2077"/>
  <outline>
    <contour>
      <point x="208" y="1470" type="line"/>
      <point x="705" y="1470" type="line"/>
      <point x="691" y="1389" type="line"/>
      <point x="684" y="1351"/>
      <point x="619" y="1264"/>
      <point x="570" y="1208" type="qcurve"/>
      <point x="538" y="1170"/>
      <point x="476" y="1094"/>
      <point x="423" y="1016"/>
      <point x="384" y="935"/>
      <point x="374" y="893" type="qcurve"/>
      <point x="370" y="875"/>
      <point x="360" y="830"/>
      <point x="350" y="784"/>
      <point x="341" y="739"/>
      <point x="338" y="720" type="qcurve"/>
      <point x="176" y="720" type="line"/>
      <point x="179" y="736"/>
      <point x="190" y="790"/>
      <point x="203" y="850"/>
      <point x="218" y="908"/>
      <point x="225" y="929" type="qcurve"/>
      <point x="258" y="1028"/>
      <point x="372" y="1193"/>
      <point x="438" y="1263" type="qcurve"/>
      <point x="463" y="1289"/>
      <point x="497" y="1339"/>
      <point x="506" y="1356" type="qcurve"/>
      <point x="188" y="1356" type="line"/>
    </contour>
  </outline>
</glyph>
<glyph name="eightsuperior" format="1">
  <advance width="600"/>
  <unicode hex="2078"/>
  <outline>
    <contour>
      <point x="441" y="1478" type="qcurve"/>
      <point x="542" y="1470"/>
      <point x="647" y="1377"/>
      <point x="640" y="1287" type="qcurve"/>
      <point x="638" y="1262"/>
      <point x="612" y="1216"/>
      <point x="573" y="1178"/>
      <point x="526" y="1149"/>
      <point x="502" y="1142" type="qcurve"/>
      <point x="523" y="1134"/>
      <point x="570" y="1093"/>
      <point x="607" y="1037"/>
      <point x="628" y="969"/>
      <point x="624" y="933" type="qcurve"/>
      <point x="618" y="872"/>
      <point x="558" y="785"/>
      <point x="469" y="730"/>
      <point x="362" y="708"/>
      <point x="309" y="711" type="qcurve"/>
      <point x="258" y="714"/>
      <point x="172" y="744"/>
      <point x="112" y="800"/>
      <point x="81" y="883"/>
      <point x="86" y="940" type="qcurve"/>
      <point x="91" y="1012"/>
      <point x="188" y="1114"/>
      <point x="266" y="1144" type="qcurve"/>
      <point x="248" y="1159"/>
      <point x="216" y="1189"/>
      <point x="193" y="1223"/>
      <point x="181" y="1261"/>
      <point x="183" y="1282" type="qcurve"/>
      <point x="187" y="1334"/>
      <point x="239" y="1410"/>
      <point x="313" y="1459"/>
      <point x="400" y="1481"/>
    </contour>
    <contour>
      <point x="468" y="931" type="qcurve"/>
      <point x="469" y="958"/>
      <point x="453" y="1002"/>
      <point x="424" y="1037"/>
      <point x="387" y="1064"/>
      <point x="366" y="1075" type="qcurve"/>
      <point x="341" y="1066"/>
      <point x="296" y="1039"/>
      <point x="261" y="1003"/>
      <point x="240" y="957"/>
      <point x="240" y="930" type="qcurve"/>
      <point x="239" y="881"/>
      <point x="290" y="825"/>
      <point x="329" y="820" type="qcurve"/>
      <point x="352" y="817"/>
      <point x="401" y="830"/>
      <point x="441" y="860"/>
      <point x="467" y="904"/>
    </contour>
    <contour>
      <point x="339" y="1298" type="qcurve"/>
      <point x="338" y="1281"/>
      <point x="351" y="1251"/>
      <point x="371" y="1227"/>
      <point x="395" y="1208"/>
      <point x="406" y="1202" type="qcurve"/>
      <point x="445" y="1221"/>
      <point x="489" y="1266"/>
      <point x="488" y="1296" type="qcurve"/>
      <point x="487" y="1332"/>
      <point x="456" y="1365"/>
      <point x="431" y="1370" type="qcurve"/>
      <point x="414" y="1373"/>
      <point x="381" y="1363"/>
      <point x="355" y="1342"/>
      <point x="339" y="1313"/>
    </contour>
  </outline>
</glyph>
<glyph name="minussuperior" format="1">
  <advance width="600"/>
  <unicode hex="207B"/>
  <outline>
    <contour>
      <point x="111" y="1070" type="line"/>
      <point x="561" y="1070" type="line"/>
      <point x="541" y="958" type="line"/>
      <point x="91" y="958" type="line"/>
    </contour>
  </outline>
</glyph>
<glyph name="parenleftsuperior" format="1">
  <advance width="400"/>
  <unicode hex="207D"/>
  <outline>
    <contour>
      <point x="181" y="1296" type="line"/>
      <point x="191" y="1349"/>
      <point x="214" y="1434"/>
      <point x="257" y="1493"/>
      <point x="327" y="1521"/>
      <point x="383" y="1517" type="qcurve"/>
      <point x="408" y="1515"/>
      <point x="453" y="1503"/>
      <point x="484" y="1489" type="qcurve"/>
      <point x="429" y="1432" type="line"/>
      <point x="418" y="1434"/>
      <point x="392" y="1433"/>
      <point x="367" y="1414"/>
      <point x="347" y="1370"/>
      <point x="341" y="1330" type="qcurve"/>
      <point x="228" y="694" type="line"/>
      <point x="222" y="665"/>
      <point x="228" y="628"/>
      <point x="244" y="606"/>
      <point x="266" y="596"/>
      <point x="277" y="594" type="qcurve"/>
      <point x="316" y="534" type="line"/>
      <point x="293" y="521"/>
      <point x="230" y="505"/>
      <point x="205" y="507" type="qcurve"/>
      <point x="151" y="511"/>
      <point x="94" y="556"/>
      <point x="72" y="622"/>
      <point x="75" y="700"/>
      <point x="82" y="736" type="qcurve"/>
    </contour>
  </outline>
</glyph>
<glyph name="nsuperior" format="1">
  <advance width="600"/>
  <unicode hex="207F"/>
  <outline>
    <contour>
      <point x="327" y="1283" type="line"/>
      <point x="310" y="1188" type="line"/>
      <point x="368" y="1264" type="line"/>
      <point x="385" y="1269"/>
      <point x="420" y="1277"/>
      <point x="438" y="1278" type="qcurve"/>
      <point x="465" y="1280"/>
      <point x="503" y="1277"/>
      <point x="533" y="1265"/>
      <point x="557" y="1246"/>
      <point x="570" y="1232" type="qcurve"/>
      <point x="583" y="1216"/>
      <point x="593" y="1177"/>
      <point x="594" y="1136"/>
      <point x="588" y="1098"/>
      <point x="585" y="1083" type="qcurve"/>
      <point x="521" y="720" type="line"/>
      <point x="365" y="720" type="line"/>
      <point x="431" y="1098" type="line"/>
      <point x="437" y="1130"/>
      <point x="413" y="1164"/>
      <point x="394" y="1170" type="qcurve"/>
      <point x="386" y="1172"/>
      <point x="363" y="1169"/>
      <point x="337" y="1159"/>
      <point x="311" y="1141"/>
      <point x="299" y="1128" type="qcurve"/>
      <point x="228" y="720" type="line"/>
      <point x="71" y="720" type="line"/>
      <point x="167" y="1266" type="line"/>
    </contour>
  </outline>
</glyph>
<glyph name="oneinferior" format="1">
  <advance width="600"/>
  <unicode hex="2081"/>
  <outline>
    <contour>
      <point x="350" y="-60" type="line"/>
      <point x="419" y="121" type="line"/>
      <point x="281" y="-14" type="line"/>
      <point x="233" y="-51" type="line"/>
      <point x="171" y="41" type="line"/>
      <point x="450" y="262" type="line"/>
      <point x="562" y="246" type="line"/>
      <point x="448" y="-400" type="line"/>
      <point x="569" y="-400" type="line"/>
      <point x="552" y="-500" type="line"/>
      <point x="151" y="-500" type="line"/>
      <point x="168" y="-400" type="line"/>
      <point x="290" y="-400" type="line"/>
    </contour>
  </outline>
</glyph>
<glyph name="twoinferior" format="1">
  <advance width="600"/>
  <unicode hex="2082"/>
  <outline>
    <contour>
      <point x="62" y="-500" type="line"/>
      <point x="79" y="-405" type="line"/>
      <point x="109" y="-368"/>
      <point x="190" y="-282"/>
      <point x="272" y="-201"/>
      <point x="344" y="-132"/>
      <point x="366" y="-113" type="qcurve"/>
      <point x="408" y="-75"/>
      <point x="455" y="-28"/>
      <point x="479" y="5"/>
      <point x="488" y="31"/>
      <point x="493" y="48" type="qcurve"/>
      <point x="497" y="63"/>
      <point x="492" y="98"/>
      <point x="473" y="127"/>
      <point x="442" y="148"/>
      <point x="422" y="150" type="qcurve"/>
      <point x="381" y="154"/>
      <point x="306" y="99"/>
      <point x="277" y="48" type="qcurve"/>
      <point x="168" y="91" type="line"/>
      <point x="208" y="179"/>
      <point x="352" y="263"/>
      <point x="449" y="258" type="qcurve"/>
      <point x="506" y="255"/>
      <point x="584" y="215"/>
      <point x="631" y="155"/>
      <point x="648" y="80"/>
      <point x="644" y="43" type="qcurve"/>
      <point x="639" y="7"/>
      <point x="601" y="-58"/>
      <point x="550" y="-117"/>
      <point x="494" y="-168"/>
      <point x="472" y="-190" type="qcurve"/>
      <point x="442" y="-220"/>
      <point x="377" y="-282"/>
      <point x="318" y="-338"/>
      <point x="270" y="-385"/>
      <point x="257" y="-400" type="qcurve"/>
      <point x="578" y="-400" type="line"/>
      <point x="561" y="-500" type="line"/>
    </contour>
  </outline>
</glyph>
<glyph name="threeinferior" format="1">
  <advance width="600"/>
  <unicode hex="2083"/>
  <outline>
    <contour>
      <point x="220" y="-31" type="line"/>
      <point x="245" y="-15"/>
      <point x="322" y="32"/>
      <point x="405" y="90"/>
      <point x="480" y="154"/>
      <point x="503" y="187" type="qcurve"/>
      <point x="366" y="150" type="line"/>
      <point x="201" y="150" type="line"/>
      <point x="229" y="250" type="line"/>
      <point x="643" y="250" type="line"/>
      <point x="628" y="163" type="line"/>
      <point x="607" y="133"/>
      <point x="537" y="55"/>
      <point x="495" y="26" type="qcurve"/>
      <point x="409" y="-16" type="line"/>
      <point x="454" y="-14"/>
      <point x="531" y="-41"/>
      <point x="585" y="-93"/>
      <point x="612" y="-168"/>
      <point x="608" y="-214" type="qcurve"/>
      <point x="601" y="-291"/>
      <point x="506" y="-399"/>
      <point x="360" y="-468"/>
      <point x="177" y="-500"/>
      <point x="81" y="-500" type="qcurve"/>
      <point x="99" y="-400" type="line"/>
      <point x="163" y="-400"/>
      <point x="286" y="-374"/>
      <point x="382" y="-327"/>
      <point x="442" y="-260"/>
      <point x="443" y="-219" type="qcurve"/>
      <point x="444" y="-190"/>
      <point x="422" y="-150"/>
      <point x="385" y="-126"/>
      <point x="335" y="-115"/>
      <point x="308" y="-115" type="qcurve"/>
      <point x="300" y="-115"/>
      <point x="272" y="-116"/>
      <point x="240" y="-118"/>
      <point x="212" y="-120"/>
      <point x="205" y="-120" type="qcurve"/>
    </contour>
  </outline>
</glyph>
<glyph name="seveninferior" format="1">
  <advance width="600"/>
  <unicode hex="2087"/>
  <outline>
    <contour>
      <point x="208" y="250" type="line"/>
      <point x="705" y="250" type="line"/>
      <point x="691" y="169" type="line"/>
      <point x="684" y="131"/>
      <point x="619" y="44"/>
      <point x="570" y="-12" type="qcurve"/>
      <point x="538" y="-50"/>
      <point x="476" y="-126"/>
      <point x="423" y="-204"/>
      <point x="384" y="-285"/>
      <point x="374" y="-327" type="qcurve"/>
      <point x="370" y="-345"/>
      <point x="360" y="-390"/>
      <point x="350" y="-436"/>
      <point x="341" y="-481"/>
      <point x="338" y="-500" type="qcurve"/>
      <point x="176" y="-500" type="line"/>
      <point x="179" y="-484"/>
      <point x="190" y="-430"/>
      <point x="203" y="-370"/>
      <point x="218" y="-312"/>
      <point x="225" y="-291" type="qcurve"/>
      <point x="258" y="-192"/>
      <point x="372" y="-27"/>
      <point x="438" y="43" type="qcurve"/>
      <point x="463" y="69"/>
      <point x="497" y="119"/>
      <point x="506" y="136" type="qcurve"/>
      <point x="188" y="136" type="line"/>
    </contour>
  </outline>
</glyph>
<glyph name="heightinferior" format="1">
  <advance width="600"/>
  <unicode hex="2088"/>
  <outline>
    <contour>
      <point x="441" y="258" type="qcurve"/>
      <point x="542" y="250"/>
      <point x="647" y="157"/>
      <point x="640" y="67" type="qcurve"/>
      <point x="638" y="42"/>
      <point x="612" y="-4"/>
      <point x="573" y="-42"/>
      <point x="526" y="-71"/>
      <point x="502" y="-78" type="qcurve"/>
      <point x="523" y="-86"/>
      <point x="570" y="-127"/>
      <point x="607" y="-183"/>
      <point x="628" y="-251"/>
      <point x="624" y="-287" type="qcurve"/>
      <point x="618" y="-348"/>
      <point x="558" y="-435"/>
      <point x="469" y="-490"/>
      <point x="362" y="-512"/>
      <point x="309" y="-509" type="qcurve"/>
      <point x="258" y="-506"/>
      <point x="172" y="-476"/>
      <point x="112" y="-420"/>
      <point x="81" y="-337"/>
      <point x="86" y="-280" type="qcurve"/>
      <point x="91" y="-208"/>
      <point x="188" y="-106"/>
      <point x="266" y="-76" type="qcurve"/>
      <point x="248" y="-61"/>
      <point x="216" y="-31"/>
      <point x="193" y="3"/>
      <point x="181" y="41"/>
      <point x="183" y="62" type="qcurve"/>
      <point x="187" y="114"/>
      <point x="239" y="190"/>
      <point x="313" y="239"/>
      <point x="400" y="261"/>
    </contour>
    <contour>
      <point x="468" y="-289" type="qcurve"/>
      <point x="469" y="-262"/>
      <point x="453" y="-218"/>
      <point x="424" y="-183"/>
      <point x="387" y="-156"/>
      <point x="366" y="-145" type="qcurve"/>
      <point x="341" y="-154"/>
      <point x="296" y="-181"/>
      <point x="261" y="-217"/>
      <point x="240" y="-263"/>
      <point x="240" y="-290" type="qcurve"/>
      <point x="239" y="-339"/>
      <point x="290" y="-395"/>
      <point x="329" y="-400" type="qcurve"/>
      <point x="352" y="-403"/>
      <point x="401" y="-390"/>
      <point x="441" y="-360"/>
      <point x="467" y="-316"/>
    </contour>
    <contour>
      <point x="339" y="78" type="qcurve"/>
      <point x="338" y="61"/>
      <point x="351" y="31"/>
      <point x="371" y="7"/>
      <point x="395" y="-12"/>
      <point x="406" y="-18" type="qcurve"/>
      <point x="445" y="1"/>
      <point x="489" y="46"/>
      <point x="488" y="76" type="qcurve"/>
      <point x="487" y="112"/>
      <point x="456" y="145"/>
      <point x="431" y="150" type="qcurve"/>
      <point x="414" y="153"/>
      <point x="381" y="143"/>
      <point x="355" y="122"/>
      <point x="339" y="93"/>
    </contour>
  </outline>
</glyph>
<glyph name="nineinferior" format="1">
  <advance width="600"/>
  <unicode hex="2089"/>
  <outline>
    <contour>
      <point x="161" y="-401" type="line"/>
      <point x="221" y="-401"/>
      <point x="329" y="-360"/>
      <point x="414" y="-291"/>
      <point x="470" y="-200"/>
      <point x="478" y="-150" type="qcurve"/>
      <point x="375" y="-226" type="line"/>
      <point x="367" y="-227"/>
      <point x="350" y="-229"/>
      <point x="342" y="-228" type="qcurve"/>
      <point x="293" y="-227"/>
      <point x="212" y="-194"/>
      <point x="155" y="-133"/>
      <point x="127" y="-46"/>
      <point x="131" y="8" type="qcurve"/>
      <point x="135" y="64"/>
      <point x="186" y="160"/>
      <point x="269" y="228"/>
      <point x="377" y="262"/>
      <point x="439" y="258" type="qcurve"/>
      <point x="492" y="254"/>
      <point x="566" y="219"/>
      <point x="616" y="167"/>
      <point x="643" y="101"/>
      <point x="656" y="32"/>
      <point x="655" y="-36"/>
      <point x="652" y="-64" type="qcurve"/>
      <point x="642" y="-152"/>
      <point x="565" y="-309"/>
      <point x="439" y="-429"/>
      <point x="268" y="-503"/>
      <point x="164" y="-509" type="qcurve"/>
    </contour>
    <contour>
      <point x="366" y="-120" type="qcurve"/>
      <point x="384" y="-123"/>
      <point x="423" y="-110"/>
      <point x="460" y="-83"/>
      <point x="491" y="-48"/>
      <point x="501" y="-28" type="qcurve"/>
      <point x="507" y="4"/>
      <point x="501" y="66"/>
      <point x="480" y="115"/>
      <point x="445" y="147"/>
      <point x="423" y="150" type="qcurve"/>
      <point x="398" y="153"/>
      <point x="350" y="132"/>
      <point x="313" y="95"/>
      <point x="291" y="44"/>
      <point x="291" y="17" type="qcurve"/>
      <point x="291" y="-9"/>
      <point x="298" y="-56"/>
      <point x="315" y="-92"/>
      <point x="344" y="-116"/>
    </contour>
  </outline>
</glyph>
<glyph name="plusinferior" format="1">
  <advance width="600"/>
  <unicode hex="208A"/>
  <outline>
    <contour>
      <point x="104" y="-150" type="line"/>
      <point x="284" y="-150" type="line"/>
      <point x="322" y="65" type="line"/>
      <point x="427" y="65" type="line"/>
      <point x="389" y="-150" type="line"/>
      <point x="569" y="-150" type="line"/>
      <point x="551" y="-250" type="line"/>
      <point x="371" y="-250" type="line"/>
      <point x="336" y="-450" type="line"/>
      <point x="231" y="-450" type="line"/>
      <point x="266" y="-250" type="line"/>
      <point x="86" y="-250" type="line"/>
    </contour>
  </outline>
</glyph>
<glyph name="minusinferior" format="1">
  <advance width="600"/>
  <unicode hex="208B"/>
  <outline>
    <contour>
      <point x="111" y="-150" type="line"/>
      <point x="561" y="-150" type="line"/>
      <point x="541" y="-262" type="line"/>
      <point x="91" y="-262" type="line"/>
    </contour>
  </outline>
</glyph>
<glyph name="equalinferior" format="1">
  <advance width="600"/>
  <unicode hex="208C"/>
  <outline>
    <contour>
      <point x="120" y="-100" type="line"/>
      <point x="520" y="-100" type="line"/>
      <point x="501" y="-210" type="line"/>
      <point x="101" y="-210" type="line"/>
    </contour>
    <contour>
      <point x="85" y="-300" type="line"/>
      <point x="485" y="-300" type="line"/>
      <point x="465" y="-410" type="line"/>
      <point x="65" y="-410" type="line"/>
    </contour>
  </outline>
</glyph>
<glyph name="Euro" format="1">
  <advance width="1400"/>
  <unicode hex="20AC"/>
  <outline>
    <contour>
      <point x="606" y="492" type="line"/>
      <point x="616" y="438"/>
      <point x="654" y="344"/>
      <point x="713" y="272"/>
      <point x="793" y="227"/>
      <point x="847" y="221" type="qcurve"/>
      <point x="878" y="218"/>
      <point x="950" y="220"/>
      <point x="1032" y="238"/>
      <point x="1124" y="276"/>
      <point x="1176" y="308" type="qcurve"/>
      <point x="1264" y="133" type="line"/>
      <point x="1213" y="89"/>
      <point x="1098" y="29"/>
      <point x="975" y="-7"/>
      <point x="846" y="-20"/>
      <point x="782" y="-17" type="qcurve"/>
      <point x="667" y="-11"/>
      <point x="480" y="74"/>
      <point x="347" y="210"/>
      <point x="270" y="390"/>
      <point x="264" y="491" type="qcurve"/>
      <point x="128" y="491" type="line"/>
      <point x="165" y="700" type="line"/>
      <point x="261" y="700" type="line"/>
      <point x="263" y="717"/>
      <point x="266" y="747"/>
      <point x="269" y="765" type="qcurve"/>
      <point x="271" y="776"/>
      <point x="278" y="806"/>
      <point x="281" y="817" type="qcurve"/>
      <point x="186" y="817" type="line"/>
      <point x="222" y="1025" type="line"/>
      <point x="348" y="1025" type="line"/>
      <point x="396" y="1148"/>
      <point x="529" y="1337"/>
      <point x="707" y="1463"/>
      <point x="933" y="1523"/>
      <point x="1073" y="1517" type="qcurve"/>
      <point x="1137" y="1514"/>
      <point x="1251" y="1488"/>
      <point x="1349" y="1448"/>
      <point x="1432" y="1399"/>
      <point x="1465" y="1373" type="qcurve"/>
      <point x="1331" y="1190" type="line"/>
      <point x="1302" y="1208"/>
      <point x="1232" y="1243"/>
      <point x="1157" y="1268"/>
      <point x="1081" y="1282"/>
      <point x="1047" y="1280" type="qcurve"/>
      <point x="961" y="1274"/>
      <point x="834" y="1229"/>
      <point x="740" y="1146"/>
      <point x="674" y="1022"/>
      <point x="649" y="937" type="qcurve"/>
      <point x="789" y="1025" type="line"/>
      <point x="1269" y="1025" type="line"/>
      <point x="1120" y="817" type="line"/>
      <point x="615" y="817" type="line"/>
      <point x="611" y="799" type="line"/>
      <point x="609" y="785"/>
      <point x="603" y="749"/>
      <point x="602" y="735" type="qcurve"/>
      <point x="535" y="628" type="line"/>
      <point x="681" y="700" type="line"/>
      <point x="1041" y="700" type="line"/>
      <point x="891" y="492" type="line"/>
    </contour>
  </outline>
</glyph>
<glyph name="centigrade" format="1">
  <advance width="1800"/>
  <unicode hex="2103"/>
  <outline>
    <contour>
      <point x="1767" y="133" type="line"/>
      <point x="1657" y="42"/>
      <point x="1419" y="-29"/>
      <point x="1285" y="-17" type="qcurve"/>
      <point x="1134" y="-4"/>
      <point x="925" y="120"/>
      <point x="800" y="324"/>
      <point x="758" y="602"/>
      <point x="774" y="769" type="qcurve"/>
      <point x="784" y="871"/>
      <point x="844" y="1064"/>
      <point x="943" y="1233"/>
      <point x="1079" y="1374"/>
      <point x="1251" y="1472"/>
      <point x="1457" y="1522"/>
      <point x="1576" y="1517" type="qcurve"/>
      <point x="1640" y="1514"/>
      <point x="1761" y="1490"/>
      <point x="1869" y="1448"/>
      <point x="1961" y="1386"/>
      <point x="1997" y="1344" type="qcurve"/>
      <point x="1819" y="1170" type="line"/>
      <point x="1780" y="1201"/>
      <point x="1712" y="1243"/>
      <point x="1649" y="1268"/>
      <point x="1585" y="1279"/>
      <point x="1550" y="1280" type="qcurve"/>
      <point x="1456" y="1282"/>
      <point x="1302" y="1203"/>
      <point x="1189" y="1064"/>
      <point x="1119" y="878"/>
      <point x="1110" y="772" type="qcurve"/>
      <point x="1104" y="710"/>
      <point x="1103" y="584"/>
      <point x="1118" y="465"/>
      <point x="1151" y="359"/>
      <point x="1208" y="278"/>
      <point x="1292" y="226"/>
      <point x="1350" y="221" type="qcurve"/>
      <point x="1419" y="215"/>
      <point x="1585" y="263"/>
      <point x="1682" y="328" type="qcurve"/>
    </contour>
    <contour>
      <point x="566" y="1517" type="qcurve"/>
      <point x="505" y="1524"/>
      <point x="384" y="1484"/>
      <point x="286" y="1407"/>
      <point x="224" y="1304"/>
      <point x="222" y="1247" type="qcurve"/>
      <point x="217" y="1137"/>
      <point x="342" y="994"/>
      <point x="471" y="977" type="qcurve"/>
      <point x="532" y="969"/>
      <point x="650" y="1010"/>
      <point x="746" y="1088"/>
      <point x="808" y="1192"/>
      <point x="814" y="1247" type="qcurve"/>
      <point x="820" y="1304"/>
      <point x="788" y="1397"/>
      <point x="721" y="1467"/>
      <point x="625" y="1511"/>
    </contour>
    <contour>
      <point x="540" y="1349" type="qcurve"/>
      <point x="585" y="1344"/>
      <point x="639" y="1290"/>
      <point x="634" y="1246" type="qcurve"/>
      <point x="632" y="1225"/>
      <point x="608" y="1185"/>
      <point x="571" y="1155"/>
      <point x="526" y="1139"/>
      <point x="503" y="1142" type="qcurve"/>
      <point x="452" y="1149"/>
      <point x="405" y="1203"/>
      <point x="407" y="1246" type="qcurve"/>
      <point x="408" y="1268"/>
      <point x="431" y="1307"/>
      <point x="469" y="1336"/>
      <point x="516" y="1352"/>
    </contour>
  </outline>
</glyph>
